<svg width="62" height="62" viewBox="0 0 62 62" fill="none" xmlns="http://www.w3.org/2000/svg">
<path d="M49.0833 28.4168H23.25L31.7492 19.9176C31.9913 19.6774 32.1835 19.3917 32.3146 19.0769C32.4458 18.7621 32.5133 18.4245 32.5133 18.0834C32.5133 17.7424 32.4458 17.4047 32.3146 17.0899C32.1835 16.7751 31.9913 16.4894 31.7492 16.2493C31.2651 15.7681 30.6104 15.498 29.9279 15.498C29.2454 15.498 28.5907 15.7681 28.1067 16.2493L17.0242 27.3576C16.0539 28.3221 15.5058 29.632 15.5 31.0001V31.0001C15.5126 32.3592 16.0602 33.6586 17.0242 34.6168L28.1067 45.7251C28.3475 45.9643 28.6331 46.1537 28.9472 46.2824C29.2613 46.4112 29.5976 46.4769 29.9371 46.4757C30.2765 46.4745 30.6124 46.4065 30.9255 46.2754C31.2386 46.1444 31.5229 45.953 31.7621 45.7122C32.0013 45.4713 32.1906 45.1857 32.3194 44.8716C32.4482 44.5576 32.5139 44.2212 32.5127 43.8818C32.5115 43.5424 32.4434 43.2065 32.3124 42.8933C32.1814 42.5802 31.99 42.2959 31.7492 42.0568L23.25 33.5834H49.0833C49.7685 33.5834 50.4256 33.3113 50.91 32.8268C51.3945 32.3423 51.6667 31.6852 51.6667 31.0001C51.6667 30.315 51.3945 29.6579 50.91 29.1734C50.4256 28.6889 49.7685 28.4168 49.0833 28.4168Z" fill="#00B4D8"/>
</svg>
