<svg xmlns="http://www.w3.org/2000/svg" width="44" height="44" fill="none" viewBox="0 0 44 44">
  <path fill="#80D9EB" d="M44 22c0 12.15-9.85 22-22 22S0 34.15 0 22 9.85 0 22 0s22 9.85 22 22Z"/>
  <g clip-path="url(#a)">
    <path fill="#fff" d="M28.26 32.522H11.226a1.002 1.002 0 0 1-1.002-1.002V8.973c0-.554.449-1.002 1.002-1.002h17.036c.553 0 1.002.448 1.002 1.002V31.52c0 .553-.449 1.002-1.002 1.002Z"/>
    <path fill="#FFB727" d="m17.238 13.482-1.503-1.002-1.503 1.002V7.971a.5.5 0 0 1 .5-.501h2.005a.5.5 0 0 1 .501.5v5.512Zm3.507 4.082.721 1.46 1.612.234-1.166 1.137.275 1.605-1.442-.758-1.441.758.275-1.605-1.166-1.137 1.612-.234.72-1.46Zm4.683 0 .72 1.46 1.612.234-1.166 1.137.275 1.605-1.441-.758-1.442.758.276-1.605-1.166-1.137 1.611-.234.72-1.46Zm-9.365 0 .72 1.46 1.612.234-1.166 1.137.275 1.605-1.441-.758-1.441.758.275-1.605-1.166-1.137 1.611-.234.721-1.46Z"/>
    <path fill="#0084C8" d="M12.227 32.522h-1.002a1.002 1.002 0 0 1-1.002-1.002V8.973c0-.554.449-1.002 1.002-1.002h1.002v24.55Z"/>
    <path fill="#FFB727" d="M14.733 7.47a.501.501 0 0 0-.501.5v5.512l1.503-1.002V7.47h-1.002Z"/>
    <path fill="#C6E7FF" d="M21.246 30.017c0 .875.146 1.716.405 2.505h6.61c.553 0 1.002-.449 1.002-1.002V22a8.017 8.017 0 0 0-8.017 8.017Z"/>
    <path fill="#FFB727" d="M29.263 36.53a6.514 6.514 0 1 0 0-13.027 6.514 6.514 0 0 0 0 13.027Z"/>
    <path fill="#FFB727" d="M30.892 35.445a6.514 6.514 0 0 1-6.514-6.514c0-1.91.827-3.622 2.136-4.813a6.508 6.508 0 0 0-3.764 5.899 6.514 6.514 0 0 0 6.513 6.513c1.688 0 3.22-.647 4.378-1.7a6.476 6.476 0 0 1-2.75.615Z"/>
    <path fill="#fff" d="M31.521 28.76h-2.186a3.732 3.732 0 0 0 1.145-1.77c.098-.358-.054-.755-.39-.91a.758.758 0 0 0-1.054.489c-.039.147-.422 1.44-1.777 1.44-.554 0-1.002.448-1.002 1.002v3.256c0 .554.448 1.003 1.002 1.003h3.303c.705 0 1.315-.49 1.468-1.178l.47-2.112a1.002 1.002 0 0 0-.979-1.22Z"/>
    <path fill="#0084C8" d="M29.733 23.05V8.973c0-.812-.66-1.472-1.472-1.472H17.586A.971.971 0 0 0 16.737 7h-2.004a.971.971 0 0 0-.85.501h-2.657c-.812 0-1.472.66-1.472 1.472V31.52c0 .811.66 1.472 1.472 1.472h11.72A6.992 6.992 0 0 0 29.263 37a6.991 6.991 0 0 0 6.983-6.983 6.99 6.99 0 0 0-6.513-6.967ZM14.7 7.97c0-.016.014-.03.032-.03h2.004a.03.03 0 0 1 .031.03v4.635l-.773-.516a.47.47 0 0 0-.52 0l-.774.515V7.971Zm7.882 24.082H11.226a.533.533 0 0 1-.533-.532V8.973c0-.294.239-.533.533-.533h2.536v5.042a.47.47 0 0 0 .73.391l1.243-.828 1.242.828a.47.47 0 0 0 .73-.39V8.44h10.554c.294 0 .533.238.533.532V23.05c-3.633.242-6.514 3.274-6.514 6.967 0 .707.106 1.39.303 2.035Zm6.68 4.009a6.05 6.05 0 0 1-6.044-6.044 6.05 6.05 0 0 1 6.044-6.044 6.05 6.05 0 0 1 6.044 6.044 6.05 6.05 0 0 1-6.044 6.044Z"/>
  </g>
  <defs>
    <clipPath id="a">
      <path fill="#fff" d="M0 0h30v30H0z" transform="translate(8 7)"/>
    </clipPath>
  </defs>
</svg>
