<svg width="19" height="15" viewBox="0 0 19 15" fill="none" xmlns="http://www.w3.org/2000/svg">
<path d="M0.55025 5.073C1.7135 3.1785 4.3595 0 9.0035 0C13.6475 0 16.2935 3.1785 17.4568 5.073C17.8164 5.65463 18.0068 6.32493 18.0068 7.00875C18.0068 7.69257 17.8164 8.36287 17.4568 8.9445C16.2935 10.839 13.6475 14.0175 9.0035 14.0175C4.3595 14.0175 1.7135 10.839 0.55025 8.9445C0.190646 8.36287 0.000165462 7.69257 0.000165462 7.00875C0.000165462 6.32493 0.190646 5.65463 0.55025 5.073V5.073ZM1.829 8.15925C2.828 9.78375 5.08925 12.5175 9.0035 12.5175C12.9178 12.5175 15.179 9.78375 16.178 8.15925C16.3916 7.81353 16.5048 7.41516 16.5048 7.00875C16.5048 6.60235 16.3916 6.20397 16.178 5.85825C15.179 4.23375 12.9178 1.5 9.0035 1.5C5.08925 1.5 2.828 4.23075 1.829 5.85825C1.61535 6.20397 1.50219 6.60235 1.50219 7.00875C1.50219 7.41516 1.61535 7.81353 1.829 8.15925V8.15925Z" fill="#06506B"/>
<path d="M9.00342 3.25879C9.7451 3.25879 10.4701 3.47872 11.0868 3.89078C11.7035 4.30283 12.1841 4.8885 12.468 5.57373C12.7518 6.25895 12.8261 7.01295 12.6814 7.74038C12.5367 8.46781 12.1795 9.13599 11.6551 9.66044C11.1306 10.1849 10.4624 10.542 9.73501 10.6867C9.00758 10.8314 8.25358 10.7572 7.56835 10.4733C6.88313 10.1895 6.29746 9.70886 5.88541 9.09218C5.47335 8.47549 5.25342 7.75047 5.25342 7.00879C5.25461 6.01459 5.65008 5.06146 6.35308 4.35845C7.05609 3.65545 8.00922 3.25998 9.00342 3.25879V3.25879ZM9.00342 9.25879C9.44842 9.25879 9.88344 9.12683 10.2534 8.8796C10.6235 8.63236 10.9118 8.28096 11.0821 7.86983C11.2524 7.45869 11.297 7.00629 11.2102 6.56984C11.1234 6.13338 10.9091 5.73247 10.5944 5.4178C10.2797 5.10313 9.87883 4.88884 9.44237 4.80202C9.00591 4.71521 8.55351 4.75976 8.14238 4.93006C7.73125 5.10036 7.37984 5.38875 7.13261 5.75876C6.88538 6.12877 6.75342 6.56378 6.75342 7.00879C6.75342 7.60553 6.99047 8.17782 7.41243 8.59978C7.83438 9.02174 8.40668 9.25879 9.00342 9.25879Z" fill="#06506B"/>
</svg>
