<svg width="24" height="24" viewBox="0 0 24 24" fill="none" xmlns="http://www.w3.org/2000/svg">
<path d="M15.03 4.99854C16.8865 4.99854 18.667 5.73601 19.9797 7.04877C21.2925 8.36152 22.03 10.142 22.03 11.9985C22.03 13.8551 21.2925 15.6355 19.9797 16.9483C18.667 18.2611 16.8865 18.9985 15.03 18.9985" stroke="#657085" stroke-width="2" stroke-miterlimit="10"/>
<path d="M15.03 15.0083C15.8257 15.0083 16.5888 14.6922 17.1514 14.1296C17.714 13.567 18.03 12.804 18.03 12.0083C18.03 11.2127 17.714 10.4496 17.1514 9.88696C16.5888 9.32435 15.8257 9.0083 15.03 9.0083" stroke="#657085" stroke-width="2" stroke-miterlimit="10"/>
<path d="M5.84009 7.99839H3C2.73478 7.99839 2.48051 8.10376 2.29297 8.2913C2.10543 8.47883 2 8.73317 2 8.99839V14.9984C2 15.2636 2.10543 15.5179 2.29297 15.7055C2.48051 15.893 2.73478 15.9984 3 15.9984H5.7002C5.89521 15.997 6.08619 16.0525 6.25 16.1584L10.4402 19.8384C10.5907 19.9401 10.7661 19.9989 10.9475 20.0085C11.1289 20.0181 11.3093 19.9781 11.4697 19.8927C11.6301 19.8074 11.7642 19.6799 11.8577 19.5241C11.9511 19.3683 12.0003 19.1901 12 19.0084V5.0084C12.0015 4.82512 11.9528 4.64491 11.8589 4.48752C11.765 4.33014 11.6296 4.2016 11.4675 4.11594C11.3055 4.03028 11.1229 3.99079 10.9399 4.00181C10.757 4.01282 10.5808 4.0739 10.4302 4.17838L6.43018 7.84836C6.25388 7.95847 6.04756 8.01092 5.84009 7.99839Z" stroke="#657085" stroke-width="2" stroke-linejoin="round"/>
</svg>
