<svg width="48" height="48" viewBox="0 0 48 48" fill="none" xmlns="http://www.w3.org/2000/svg">
<circle cx="24" cy="24" r="24" fill="#00B4D8"/>
<g clip-path="url(#clip0_378_236)">
<path d="M25.4266 35.5668C25.0724 37.5422 23.4021 38.9515 21.48 39.053C21.1607 39.0704 20.8351 39.0505 20.5061 38.9916C18.202 38.5788 16.6685 36.3755 17.0813 34.0714C17.4944 31.767 19.6974 30.2335 22.0018 30.6466C22.3305 30.7055 22.6427 30.7999 22.9361 30.9271C24.7033 31.6898 25.7805 33.5914 25.4266 35.5668Z" fill="#FDAE2F"/>
<path d="M24.7963 37.1473C24.0661 38.2595 22.8352 38.9812 21.4802 39.0533C20.2345 38.515 19.3318 37.4111 19.0332 36.1145L24.7963 37.1473Z" fill="#FECF32"/>
<path d="M32.9361 35.628L10.0181 31.521C10.5873 28.3447 14.392 26.8413 14.6821 25.2221L15.8316 18.8073C16.2293 16.5891 17.4886 14.7411 19.2027 13.5481C20.9167 12.3551 23.087 11.8157 25.3052 12.2134C29.7418 13.0085 32.6944 17.2503 31.8993 21.6868L30.7498 28.1015C30.5037 29.4753 32.6603 31.6513 32.97 34.2201C33.0256 34.6773 33.0223 35.1473 32.9361 35.628Z" fill="#FFDE17"/>
<path d="M32.97 34.2201L17.4912 31.4462C16.0472 31.1873 15.3627 29.5094 16.2197 28.3186C16.9213 27.3434 17.5711 26.5407 17.7102 25.7646L18.8597 19.3501C19.2573 17.1316 20.1779 15.2232 21.3436 13.932C22.511 12.6408 23.9227 11.9657 25.3052 12.2134C23.087 11.8157 20.9167 12.3551 19.2027 13.5481C17.4886 14.7414 16.2293 16.5891 15.8318 18.8076L14.6821 25.2221C14.392 26.8413 10.5873 28.3447 10.0181 31.521L14.3364 32.2949L32.9361 35.628C33.0223 35.1473 33.0256 34.6773 32.97 34.2201V34.2201Z" fill="#FFCC00"/>
<path d="M34.2958 35.7617C33.7448 36.45 33.1323 37.0875 32.4675 37.666L10.0428 33.6468C9.58624 32.8147 9.2082 31.933 8.91943 31.0118C9.18856 30.8538 9.51393 30.7879 9.84577 30.8478L33.3318 35.0561C33.7609 35.1338 34.1066 35.4036 34.2958 35.7617V35.7617Z" fill="#FDAE2F"/>
<path d="M34.2958 35.76C33.7448 36.4482 33.1322 37.0858 32.4674 37.6642L15.2337 34.575C14.4948 34.4431 14.0023 33.7364 14.1348 32.9961C14.2009 32.6266 14.4104 32.318 14.6965 32.1198C14.9831 31.9205 15.3435 31.8308 15.7137 31.8971L33.3317 35.0543C33.7608 35.132 34.1065 35.4018 34.2958 35.76V35.76Z" fill="#FECF32"/>
<path d="M37.4999 16.8633C37.4999 19.549 35.3225 21.7264 32.6368 21.7264C29.9508 21.7264 27.7734 19.549 27.7734 16.8633C27.7734 14.1774 29.9508 12 32.6368 12C35.3225 12 37.4999 14.1774 37.4999 16.8633V16.8633Z" fill="#FB3A4A"/>
<path d="M32.499 15.0671L32.2234 15.3427C32.1544 15.403 32.077 15.4204 32.0165 15.4204C31.8012 15.4204 31.6548 15.1963 31.6548 14.9723C31.6548 14.8172 31.7322 14.6536 31.8701 14.5675L32.8866 13.7922C32.9469 13.7404 33.0245 13.7061 33.1192 13.7061C33.3519 13.7061 33.6188 13.8437 33.6188 14.0678V19.6673C33.6188 19.9001 33.3345 20.0206 33.0589 20.0206C32.7746 20.0206 32.499 19.9001 32.499 19.6673V15.0671Z" fill="white"/>
</g>
<defs>
<clipPath id="clip0_378_236">
<rect width="29.25" height="29.25" fill="white" transform="translate(8.25 12)"/>
</clipPath>
</defs>
</svg>
