<svg width="44" height="44" viewBox="0 0 44 44" fill="none" xmlns="http://www.w3.org/2000/svg">
<path d="M44 22C44 34.1503 34.1503 44 22 44C9.84973 44 0 34.1503 0 22C0 9.84973 9.84973 0 22 0C34.1503 0 44 9.84973 44 22Z" fill="#80D9EB"/>
<path d="M26.7061 15.5106L26.1025 14.907C26.1025 14.2402 25.5619 13.6997 24.8952 13.6997H15.8472C15.1804 13.6997 14.6399 14.2402 14.6399 14.907V15.5106L20.3743 16.8222L26.7061 15.5106Z" fill="#C1C8D2"/>
<path d="M29.3079 33.6189H9.81084C8.81076 33.6189 8 32.8081 8 31.808V17.3211C8 16.321 8.81076 15.5103 9.81084 15.5103H29.3079C30.308 15.5103 31.1187 16.321 31.1187 17.3211V31.808C31.1187 32.8081 30.308 33.6189 29.3079 33.6189Z" fill="#0084C8"/>
<path d="M32.7485 17.3212V31.808C32.7485 32.8082 31.9378 33.6189 30.9376 33.6189H29.1268C30.127 33.6189 30.9376 32.8082 30.9376 31.808V31.5062L28.2922 24.5646L30.9376 17.3211C30.9376 16.3209 30.127 15.5103 29.1268 15.5103H30.9376C31.9378 15.5103 32.7485 16.321 32.7485 17.3212V17.3212Z" fill="#0084C8"/>
<path d="M30.4914 32.2001H9.50859C9.33816 32.2001 9.20001 32.0546 9.20001 31.8751V16.9251C9.20001 16.7456 9.33816 16.6001 9.50859 16.6001H30.4914C30.6619 16.6001 30.8 16.7456 30.8 16.9251V31.8752C30.8 32.0546 30.6619 32.2001 30.4914 32.2001Z" fill="white"/>
<path d="M17.6 20.2002H11.6V28.5677H17.6V20.2002Z" fill="#56B3F7"/>
<path d="M14.6294 25.9701C15.3344 25.9701 15.9059 25.3986 15.9059 24.6936C15.9059 23.9885 15.3344 23.417 14.6294 23.417C13.9244 23.417 13.3528 23.9885 13.3528 24.6936C13.3528 25.3986 13.9244 25.9701 14.6294 25.9701Z" fill="white"/>
<path d="M12.0321 28.5677C12.0321 27.1332 13.1951 25.9702 14.6296 25.9702C16.0642 25.9702 17.2271 27.1332 17.2271 28.5677H12.0321V28.5677Z" fill="#FFC843"/>
<path d="M15.358 22.1525C15.6235 22.1525 15.8386 21.9374 15.8386 21.672C15.8386 21.4065 15.6235 21.1914 15.358 21.1914H13.901C13.6356 21.1914 13.4205 21.4065 13.4205 21.672C13.4205 21.9374 13.6356 22.1525 13.901 22.1525H15.358Z" fill="#00C395"/>
<path d="M20.1875 19.132H18.9312C18.62 19.132 18.3598 18.8954 18.3303 18.5856L17.8102 13.1244C17.7933 12.9472 17.9326 12.7939 18.1106 12.7939H21.0082C21.1862 12.7939 21.3255 12.9472 21.3086 13.1244L20.7885 18.5856C20.759 18.8954 20.4987 19.132 20.1875 19.132Z" fill="#E8EAEC"/>
<path d="M22.9383 13.1241L22.418 18.5857C22.3884 18.8954 22.1283 19.132 21.8174 19.132H20.0066C20.3174 19.132 20.5776 18.8954 20.6072 18.5857L21.1275 13.1241C21.1444 12.9473 21.005 12.7939 20.8269 12.7939H22.6377C22.8158 12.7939 22.9553 12.9473 22.9383 13.1241Z" fill="#C1C8D2"/>
<path d="M29.1268 30.4503H19.7706C19.5206 30.4503 19.3179 30.2476 19.3179 29.9976C19.3179 29.7476 19.5206 29.5449 19.7706 29.5449H29.1268C29.3768 29.5449 29.5795 29.7476 29.5795 29.9976C29.5795 30.2476 29.3768 30.4503 29.1268 30.4503Z" fill="#C1C8D2"/>
<path d="M25.6861 25.0172H19.7706C19.5206 25.0172 19.3179 24.8145 19.3179 24.5645C19.3179 24.3145 19.5206 24.1118 19.7706 24.1118H25.6861C25.9362 24.1118 26.1388 24.3145 26.1388 24.5645C26.1388 24.8145 25.9361 25.0172 25.6861 25.0172V25.0172Z" fill="#C1C8D2"/>
<path d="M24.841 23.2067H19.7706C19.5206 23.2067 19.3179 23.004 19.3179 22.754C19.3179 22.5039 19.5206 22.3013 19.7706 22.3013H24.841C25.0911 22.3013 25.2937 22.5039 25.2937 22.754C25.2937 23.0039 25.0911 23.2067 24.841 23.2067Z" fill="#C1C8D2"/>
<path d="M23.6339 21.3961H19.7707C19.5207 21.3961 19.318 21.1934 19.318 20.9434C19.318 20.6934 19.5207 20.4907 19.7707 20.4907H23.6339C23.8839 20.4907 24.0866 20.6934 24.0866 20.9434C24.0866 21.1934 23.8839 21.3961 23.6339 21.3961Z" fill="#C1C8D2"/>
<path d="M29.1268 28.6394C28.8768 28.6394 28.6741 28.4367 28.6741 28.1867V27.5831C28.6741 27.333 28.8768 27.1304 29.1268 27.1304C29.3768 27.1304 29.5795 27.333 29.5795 27.5831V28.1867C29.5795 28.4367 29.3768 28.6394 29.1268 28.6394Z" fill="#C1C8D2"/>
<path d="M26.8028 28.6394C26.5528 28.6394 26.3501 28.4367 26.3501 28.1867V27.5831C26.3501 27.333 26.5528 27.1304 26.8028 27.1304C27.0528 27.1304 27.2555 27.333 27.2555 27.5831V28.1867C27.2555 28.4367 27.0528 28.6394 26.8028 28.6394Z" fill="#C1C8D2"/>
<path d="M24.4487 28.6394C24.1986 28.6394 23.996 28.4367 23.996 28.1867V27.5831C23.996 27.333 24.1986 27.1304 24.4487 27.1304C24.6987 27.1304 24.9014 27.333 24.9014 27.5831V28.1867C24.9014 28.4367 24.6987 28.6394 24.4487 28.6394Z" fill="#C1C8D2"/>
<path d="M22.0946 28.6394C21.8446 28.6394 21.6419 28.4367 21.6419 28.1867V27.5831C21.6419 27.333 21.8446 27.1304 22.0946 27.1304C22.3446 27.1304 22.5473 27.333 22.5473 27.5831V28.1867C22.5474 28.4367 22.3447 28.6394 22.0946 28.6394Z" fill="#C1C8D2"/>
<path d="M19.7707 28.6394C19.5207 28.6394 19.3181 28.4367 19.3181 28.1867V27.5831C19.3181 27.333 19.5207 27.1304 19.7707 27.1304C20.0208 27.1304 20.2234 27.333 20.2234 27.5831V28.1867C20.2234 28.4367 20.0208 28.6394 19.7707 28.6394Z" fill="#C1C8D2"/>
<path d="M17.9598 30.4503H11.9236C11.6736 30.4503 11.4709 30.2476 11.4709 29.9976C11.4709 29.7476 11.6736 29.5449 11.9236 29.5449H17.9598C18.2098 29.5449 18.4125 29.7476 18.4125 29.9976C18.4125 30.2476 18.2098 30.4503 17.9598 30.4503Z" fill="#C1C8D2"/>
<path d="M30.5151 20.4671L24.8411 13.6999L31.4205 12.3413L38 13.6999L30.5151 20.4671Z" fill="#FFC43C"/>
<path d="M38 13.6997L31.8829 20.9951C31.7873 21.1094 31.6597 21.1784 31.5256 21.2019C31.448 21.0898 31.373 21.1106 31.3154 21.2019C31.1813 21.1783 31.0538 21.1094 30.9581 20.9951L30.515 20.4669L30.9386 19.9617L31.531 19.9169L32.4498 18.1594L36.1891 13.6998H38V13.6997Z" fill="#FFB727"/>
<path d="M33.8978 11.0964L31.4205 10.3799L28.5483 11.1648L26.7097 10.46C26.6148 10.5145 26.5347 10.5948 26.4803 10.6945L24.841 13.6998H29.0362L31.4205 14.9849L33.8048 13.6998H36.3099L34.6706 10.6945L33.8978 11.0964Z" fill="#FFB727"/>
<path d="M37.9999 13.6992H36.1891L35.1598 11.8123C35.1598 11.8123 35.1712 10.7594 36.1312 10.4595C36.2262 10.514 36.3063 10.5942 36.3606 10.6938L37.9999 13.6992Z" fill="#FFDB93"/>
<path d="M31.4205 10.3799L29.0362 13.6998L26.7099 10.4602C26.7998 10.4082 26.9031 10.3799 27.0105 10.3799H31.4205Z" fill="#FDE09D"/>
<path d="M35.1599 11.8128L33.8048 13.6998L31.4205 10.3799H34.0951L35.031 10.5193L35.1599 11.8128Z" fill="#FDE09D"/>
<path d="M36.1311 10.4601L35.1599 11.8129L34.5496 10.6944C34.444 10.5006 34.2406 10.3799 34.0197 10.3799H35.8305C35.938 10.3798 36.0412 10.4082 36.1311 10.4601V10.4601Z" fill="#FFC43C"/>
<path d="M33.8047 13.6997L32.4498 18.1593L31.4204 19.9814L30.9387 19.9617L29.0361 13.6997H33.8047Z" fill="#FDE09D"/>
<path d="M32.4497 18.1597L31.5255 21.2019C31.4561 21.2146 31.3849 21.2146 31.3155 21.2019L30.9388 19.9621L32.4497 18.1597Z" fill="#FBDF9F"/>
</svg>
