<svg width="19" height="15" viewBox="0 0 19 15" fill="none" xmlns="http://www.w3.org/2000/svg">
<path d="M0.550098 5.073C1.71335 3.1785 4.35935 0 9.00335 0C13.6473 0 16.2933 3.1785 17.4566 5.073C17.8162 5.65463 18.0067 6.32493 18.0067 7.00875C18.0067 7.69257 17.8162 8.36287 17.4566 8.9445C16.2933 10.839 13.6473 14.0175 9.00335 14.0175C4.35935 14.0175 1.71335 10.839 0.550098 8.9445C0.190493 8.36287 1.28741e-05 7.69257 1.28741e-05 7.00875C1.28741e-05 6.32493 0.190493 5.65463 0.550098 5.073V5.073ZM1.82885 8.15925C2.82785 9.78375 5.0891 12.5175 9.00335 12.5175C12.9176 12.5175 15.1788 9.78375 16.1778 8.15925C16.3915 7.81353 16.5047 7.41516 16.5047 7.00875C16.5047 6.60235 16.3915 6.20397 16.1778 5.85825C15.1788 4.23375 12.9176 1.5 9.00335 1.5C5.0891 1.5 2.82785 4.23075 1.82885 5.85825C1.6152 6.20397 1.50204 6.60235 1.50204 7.00875C1.50204 7.41516 1.6152 7.81353 1.82885 8.15925V8.15925Z" fill="#06506B"/>
<path d="M9.00336 3.25879C9.74504 3.25879 10.4701 3.47872 11.0867 3.89078C11.7034 4.30283 12.1841 4.8885 12.4679 5.57373C12.7517 6.25895 12.826 7.01295 12.6813 7.74038C12.5366 8.46781 12.1795 9.13599 11.655 9.66044C11.1306 10.1849 10.4624 10.542 9.73494 10.6867C9.00752 10.8314 8.25352 10.7572 7.56829 10.4733C6.88307 10.1895 6.2974 9.70886 5.88534 9.09218C5.47329 8.47549 5.25336 7.75047 5.25336 7.00879C5.25455 6.01459 5.65002 5.06146 6.35302 4.35845C7.05602 3.65545 8.00916 3.25998 9.00336 3.25879V3.25879ZM9.00336 9.25879C9.44836 9.25879 9.88338 9.12683 10.2534 8.8796C10.6234 8.63236 10.9118 8.28096 11.0821 7.86983C11.2524 7.45869 11.2969 7.00629 11.2101 6.56984C11.1233 6.13338 10.909 5.73247 10.5943 5.4178C10.2797 5.10313 9.87877 4.88884 9.44231 4.80202C9.00585 4.71521 8.55345 4.75976 8.14232 4.93006C7.73118 5.10036 7.37978 5.38875 7.13255 5.75876C6.88532 6.12877 6.75336 6.56378 6.75336 7.00879C6.75336 7.60553 6.99041 8.17782 7.41237 8.59978C7.83432 9.02174 8.40662 9.25879 9.00336 9.25879Z" fill="#06506B"/>
</svg>
