<svg width="44" height="44" viewBox="0 0 44 44" fill="none" xmlns="http://www.w3.org/2000/svg">
<path d="M44 22C44 34.1503 34.1503 44 22 44C9.84973 44 0 34.1503 0 22C0 9.84973 9.84973 0 22 0C34.1503 0 44 9.84973 44 22Z" fill="#80D9EB"/>
<g clip-path="url(#clip0_283_956)">
<path d="M26.7061 15.5106L26.1025 14.907C26.1025 14.2402 25.5619 13.6997 24.8952 13.6997H15.8472C15.1804 13.6997 14.6399 14.2402 14.6399 14.907V15.5106L20.3743 16.8222L26.7061 15.5106Z" fill="#C1C8D2"/>
<path d="M29.3079 33.6189H9.81084C8.81076 33.6189 8 32.8081 8 31.808V17.3211C8 16.321 8.81076 15.5103 9.81084 15.5103H29.3079C30.308 15.5103 31.1187 16.321 31.1187 17.3211V31.808C31.1187 32.8081 30.308 33.6189 29.3079 33.6189Z" fill="#0084C8"/>
<path d="M32.7485 17.3212V31.808C32.7485 32.8082 31.9378 33.6189 30.9376 33.6189H29.1268C30.127 33.6189 30.9376 32.8082 30.9376 31.808V31.5062L28.2922 24.5646L30.9376 17.3211C30.9376 16.3209 30.127 15.5103 29.1268 15.5103H30.9376C31.9378 15.5103 32.7485 16.321 32.7485 17.3212V17.3212Z" fill="#0084C8"/>
<path d="M30.4914 32.2001H9.50853C9.33809 32.2001 9.19995 32.0546 9.19995 31.8751V16.9251C9.19995 16.7456 9.33809 16.6001 9.50853 16.6001H30.4914C30.6618 16.6001 30.7999 16.7456 30.7999 16.9251V31.8752C30.7999 32.0546 30.6618 32.2001 30.4914 32.2001Z" fill="white"/>
<path d="M17.6001 20.2002H11.6001V28.5677H17.6001V20.2002Z" fill="#56B3F7"/>
<path d="M14.6296 25.9701C15.3346 25.9701 15.9061 25.3986 15.9061 24.6936C15.9061 23.9885 15.3346 23.417 14.6296 23.417C13.9246 23.417 13.353 23.9885 13.353 24.6936C13.353 25.3986 13.9246 25.9701 14.6296 25.9701Z" fill="white"/>
<path d="M12.0322 28.5677C12.0322 27.1332 13.1952 25.9702 14.6297 25.9702C16.0643 25.9702 17.2273 27.1332 17.2273 28.5677H12.0322V28.5677Z" fill="#FFC843"/>
<path d="M15.3582 22.1525C15.6237 22.1525 15.8388 21.9374 15.8388 21.672C15.8388 21.4065 15.6237 21.1914 15.3582 21.1914H13.9012C13.6358 21.1914 13.4207 21.4065 13.4207 21.672C13.4207 21.9374 13.6358 22.1525 13.9012 22.1525H15.3582Z" fill="#00C395"/>
<path d="M20.1876 19.1325H18.9312C18.62 19.1325 18.3598 18.8959 18.3304 18.5861L17.8102 13.1248C17.7933 12.9477 17.9327 12.7944 18.1107 12.7944H21.0082C21.1862 12.7944 21.3256 12.9477 21.3087 13.1248L20.7885 18.5861C20.759 18.8959 20.4988 19.1325 20.1876 19.1325Z" fill="#E8EAEC"/>
<path d="M22.9383 13.1246L22.418 18.5862C22.3884 18.8959 22.1283 19.1325 21.8174 19.1325H20.0066C20.3174 19.1325 20.5776 18.8959 20.6072 18.5862L21.1275 13.1246C21.1444 12.9478 21.005 12.7944 20.8269 12.7944H22.6377C22.8158 12.7944 22.9553 12.9478 22.9383 13.1246Z" fill="#C1C8D2"/>
<path d="M29.1267 30.4503H19.7706C19.5205 30.4503 19.3179 30.2476 19.3179 29.9976C19.3179 29.7476 19.5205 29.5449 19.7706 29.5449H29.1267C29.3767 29.5449 29.5794 29.7476 29.5794 29.9976C29.5794 30.2476 29.3767 30.4503 29.1267 30.4503Z" fill="#C1C8D2"/>
<path d="M25.686 25.0177H19.7706C19.5205 25.0177 19.3179 24.815 19.3179 24.565C19.3179 24.315 19.5205 24.1123 19.7706 24.1123H25.6861C25.9361 24.1123 26.1388 24.315 26.1388 24.565C26.1388 24.815 25.936 25.0177 25.686 25.0177V25.0177Z" fill="#C1C8D2"/>
<path d="M24.841 23.2071H19.7706C19.5205 23.2071 19.3179 23.0045 19.3179 22.7545C19.3179 22.5044 19.5205 22.3018 19.7706 22.3018H24.841C25.091 22.3018 25.2937 22.5044 25.2937 22.7545C25.2937 23.0044 25.091 23.2071 24.841 23.2071Z" fill="#C1C8D2"/>
<path d="M23.6338 21.3961H19.7706C19.5205 21.3961 19.3179 21.1934 19.3179 20.9434C19.3179 20.6934 19.5205 20.4907 19.7706 20.4907H23.6338C23.8838 20.4907 24.0865 20.6934 24.0865 20.9434C24.0865 21.1934 23.8838 21.3961 23.6338 21.3961Z" fill="#C1C8D2"/>
<path d="M29.1268 28.6394C28.8767 28.6394 28.6741 28.4367 28.6741 28.1867V27.5831C28.6741 27.333 28.8767 27.1304 29.1268 27.1304C29.3768 27.1304 29.5795 27.333 29.5795 27.5831V28.1867C29.5795 28.4367 29.3768 28.6394 29.1268 28.6394Z" fill="#C1C8D2"/>
<path d="M26.8028 28.6394C26.5528 28.6394 26.3501 28.4367 26.3501 28.1867V27.5831C26.3501 27.333 26.5528 27.1304 26.8028 27.1304C27.0528 27.1304 27.2555 27.333 27.2555 27.5831V28.1867C27.2555 28.4367 27.0528 28.6394 26.8028 28.6394Z" fill="#C1C8D2"/>
<path d="M24.4488 28.6394C24.1988 28.6394 23.9961 28.4367 23.9961 28.1867V27.5831C23.9961 27.333 24.1988 27.1304 24.4488 27.1304C24.6988 27.1304 24.9015 27.333 24.9015 27.5831V28.1867C24.9015 28.4367 24.6988 28.6394 24.4488 28.6394Z" fill="#C1C8D2"/>
<path d="M22.0948 28.6394C21.8448 28.6394 21.6421 28.4367 21.6421 28.1867V27.5831C21.6421 27.333 21.8448 27.1304 22.0948 27.1304C22.3448 27.1304 22.5475 27.333 22.5475 27.5831V28.1867C22.5475 28.4367 22.3449 28.6394 22.0948 28.6394Z" fill="#C1C8D2"/>
<path d="M19.7708 28.6394C19.5208 28.6394 19.3181 28.4367 19.3181 28.1867V27.5831C19.3181 27.333 19.5208 27.1304 19.7708 27.1304C20.0208 27.1304 20.2235 27.333 20.2235 27.5831V28.1867C20.2235 28.4367 20.0208 28.6394 19.7708 28.6394Z" fill="#C1C8D2"/>
<path d="M17.9598 30.4503H11.9236C11.6736 30.4503 11.4709 30.2476 11.4709 29.9976C11.4709 29.7476 11.6736 29.5449 11.9236 29.5449H17.9598C18.2099 29.5449 18.4125 29.7476 18.4125 29.9976C18.4125 30.2476 18.2099 30.4503 17.9598 30.4503Z" fill="#C1C8D2"/>
<path d="M30.5151 20.4676L24.8411 13.7004L31.4205 12.3418L38 13.7004L30.5151 20.4676Z" fill="#FFC43C"/>
<path d="M38.0001 13.6997L31.883 20.9951C31.7874 21.1094 31.6598 21.1784 31.5257 21.2019C31.4481 21.0898 31.3731 21.1106 31.3155 21.2019C31.1814 21.1783 31.0539 21.1094 30.9582 20.9951L30.5151 20.4669L30.9388 19.9617L31.5311 19.9169L32.45 18.1594L36.1892 13.6998H38.0001V13.6997Z" fill="#FFB727"/>
<path d="M33.8979 11.0964L31.4206 10.3799L28.5483 11.1648L26.7098 10.46C26.6148 10.5145 26.5347 10.5948 26.4803 10.6945L24.8411 13.6998H29.0363L31.4206 14.9849L33.8049 13.6998H36.3099L34.6706 10.6945L33.8979 11.0964Z" fill="#FFB727"/>
<path d="M37.9998 13.6997H36.189L35.1597 11.8128C35.1597 11.8128 35.1711 10.7598 36.1311 10.46C36.2261 10.5145 36.3062 10.5947 36.3604 10.6943L37.9998 13.6997Z" fill="#FFDB93"/>
<path d="M31.4206 10.3799L29.0363 13.6998L26.71 10.4602C26.7999 10.4082 26.9031 10.3799 27.0105 10.3799H31.4206Z" fill="#FDE09D"/>
<path d="M35.16 11.8128L33.805 13.6998L31.4207 10.3799H34.0952L35.0311 10.5193L35.16 11.8128Z" fill="#FDE09D"/>
<path d="M36.1313 10.4601L35.16 11.8129L34.5498 10.6944C34.4441 10.5006 34.2407 10.3799 34.0198 10.3799H35.8306C35.9381 10.3798 36.0413 10.4082 36.1313 10.4601V10.4601Z" fill="#FFC43C"/>
<path d="M33.8047 13.6997L32.4498 18.1593L31.4204 19.9814L30.9387 19.9617L29.0361 13.6997H33.8047Z" fill="#FDE09D"/>
<path d="M32.4498 18.1602L31.5257 21.2024C31.4562 21.2151 31.385 21.2151 31.3156 21.2024L30.939 19.9626L32.4498 18.1602Z" fill="#FBDF9F"/>
</g>
<defs>
<clipPath id="clip0_283_956">
<rect width="30" height="30" fill="white" transform="translate(8 7)"/>
</clipPath>
</defs>
</svg>
