<svg width="64" height="64" viewBox="0 0 64 64" fill="none" xmlns="http://www.w3.org/2000/svg">
<circle cx="32" cy="32" r="32" fill="#80D9EB"/>
<path d="M49.6083 43.7396H14.3909V20.2614C14.3909 19.9154 14.5283 19.5837 14.7729 19.3391C15.0175 19.0945 15.3493 18.957 15.6952 18.957H48.3039C48.6499 18.957 48.9816 19.0945 49.2263 19.3391C49.4709 19.5837 49.6083 19.9154 49.6083 20.2614V43.7396Z" fill="#0083C7"/>
<path d="M16.3474 18.957H15.6952C15.3493 18.957 15.0175 19.0945 14.7729 19.3391C14.5283 19.5837 14.3909 19.9154 14.3909 20.2614V43.7396H49.6083V41.7831H39.1735C33.1197 41.7831 27.3137 39.3782 23.033 35.0975C18.7523 30.8168 16.3474 25.0109 16.3474 18.957V18.957Z" fill="#38B1F1"/>
<path d="M46.3473 41.1316H17.6516C17.4787 41.1316 17.3128 41.0629 17.1905 40.9406C17.0682 40.8183 16.9995 40.6524 16.9995 40.4795V22.2186C16.9995 22.0456 17.0682 21.8797 17.1905 21.7574C17.3128 21.6351 17.4787 21.5664 17.6516 21.5664H46.3473C46.5202 21.5664 46.6861 21.6351 46.8084 21.7574C46.9307 21.8797 46.9995 22.0456 46.9995 22.2186V40.4795C46.9995 40.6524 46.9307 40.8183 46.8084 40.9406C46.6861 41.0629 46.5202 41.1316 46.3473 41.1316Z" fill="#FDFEFF"/>
<path d="M26.1301 30.0449H22.8692C22.6962 30.0449 22.5304 29.9762 22.4081 29.8539C22.2858 29.7316 22.217 29.5657 22.217 29.3927V26.784C22.217 26.611 22.2858 26.4452 22.4081 26.3229C22.5304 26.2005 22.6962 26.1318 22.8692 26.1318H26.1301C26.3031 26.1318 26.4689 26.2005 26.5912 26.3229C26.7135 26.4452 26.7823 26.611 26.7823 26.784V29.3927C26.7823 29.5657 26.7135 29.7316 26.5912 29.8539C26.4689 29.9762 26.3031 30.0449 26.1301 30.0449ZM23.5214 28.7405H25.4779V27.4362H23.5214V28.7405Z" fill="#FEBC00"/>
<path d="M35.2604 27.4365H28.0865V28.7409H35.2604V27.4365Z" fill="#0083C7"/>
<path d="M40.4777 27.4365H39.1734V28.7409H40.4777V27.4365Z" fill="#0083C7"/>
<path d="M37.8693 27.4365H36.5649V28.7409H37.8693V27.4365Z" fill="#0083C7"/>
<path d="M26.1301 36.5659H22.8692C22.6962 36.5659 22.5304 36.4972 22.4081 36.3749C22.2858 36.2526 22.217 36.0867 22.217 35.9137V33.305C22.217 33.132 22.2858 32.9662 22.4081 32.8438C22.5304 32.7215 22.6962 32.6528 22.8692 32.6528H26.1301C26.3031 32.6528 26.4689 32.7215 26.5912 32.8438C26.7135 32.9662 26.7823 33.132 26.7823 33.305V35.9137C26.7823 36.0867 26.7135 36.2526 26.5912 36.3749C26.4689 36.4972 26.3031 36.5659 26.1301 36.5659ZM23.5214 35.2615H25.4779V33.9572H23.5214V35.2615Z" fill="#FEBC00"/>
<path d="M35.2604 33.957H28.0865V35.2614H35.2604V33.957Z" fill="#0083C7"/>
<path d="M40.4777 33.957H39.1734V35.2614H40.4777V33.957Z" fill="#0083C7"/>
<path d="M37.8693 33.957H36.5649V35.2614H37.8693V33.957Z" fill="#0083C7"/>
<path d="M12.4343 43.7393H51.5647C51.5647 44.95 51.0838 46.1112 50.2276 46.9674C49.3715 47.8235 48.2103 48.3045 46.9995 48.3045H16.9995C15.7887 48.3045 14.6276 47.8235 13.7714 46.9674C12.9153 46.1112 12.4343 44.95 12.4343 43.7393V43.7393Z" fill="#0083C7"/>
<path d="M48.3039 47.0001H18.3039C17.321 46.9998 16.3644 46.6823 15.5765 46.0948C14.7885 45.5073 14.2112 44.6812 13.9304 43.7393H12.4343C12.4343 44.95 12.9153 46.1112 13.7714 46.9674C14.6276 47.8235 15.7887 48.3045 16.9995 48.3045H46.9995C47.7558 48.3047 48.5002 48.1168 49.1657 47.7577C49.8313 47.3987 50.3971 46.8797 50.8121 46.2475C50.0681 46.7393 49.1957 47.001 48.3039 47.0001V47.0001Z" fill="#38B1F1"/>
<path d="M27.4343 43.7393H36.5647C36.5647 44.2582 36.3586 44.7558 35.9917 45.1227C35.6248 45.4896 35.1271 45.6958 34.6082 45.6958H29.3908C28.8719 45.6958 28.3743 45.4896 28.0073 45.1227C27.6404 44.7558 27.4343 44.2582 27.4343 43.7393V43.7393Z" fill="#FEBC00"/>
<path d="M35.2604 45.0436H30.043C29.6396 45.0429 29.2463 44.917 28.9173 44.6834C28.5884 44.4498 28.34 44.1199 28.2065 43.7393H27.4343C27.4343 44.2582 27.6404 44.7558 28.0073 45.1227C28.3743 45.4896 28.8719 45.6958 29.3908 45.6958H34.6082C34.9435 45.6953 35.2731 45.6082 35.5649 45.443C35.8567 45.2778 36.1009 45.04 36.2739 44.7527C35.9695 44.9417 35.6186 45.0424 35.2604 45.0436V45.0436Z" fill="#EDAA03"/>
</svg>
