<svg width="48" height="48" viewBox="0 0 48 48" fill="none" xmlns="http://www.w3.org/2000/svg">
<circle cx="24" cy="24" r="24" fill="#00B4D8"/>
<g clip-path="url(#clip0_264_690)">
<path d="M25.4264 35.5668C25.0722 37.5422 23.4019 38.9515 21.4798 39.053C21.1605 39.0704 20.8349 39.0505 20.5059 38.9916C18.2018 38.5788 16.6683 36.3755 17.0811 34.0714C17.4942 31.767 19.6972 30.2335 22.0015 30.6466C22.3303 30.7055 22.6425 30.7999 22.9359 30.9271C24.7031 31.6898 25.7803 33.5914 25.4264 35.5668Z" fill="#FDAE2F"/>
<path d="M24.7961 37.1473C24.0659 38.2595 22.835 38.9812 21.4799 39.0533C20.2343 38.515 19.3316 37.4111 19.033 36.1145L24.7961 37.1473Z" fill="#FECF32"/>
<path d="M32.9359 35.628L10.0178 31.521C10.5871 28.3447 14.3918 26.8413 14.6819 25.2221L15.8314 18.8073C16.229 16.5891 17.4883 14.7411 19.2024 13.5481C20.9165 12.3551 23.0867 11.8157 25.3049 12.2134C29.7416 13.0085 32.6942 17.2503 31.8991 21.6868L30.7496 28.1015C30.5034 29.4753 32.6601 31.6513 32.9698 34.2201C33.0254 34.6773 33.022 35.1473 32.9359 35.628Z" fill="#FFDE17"/>
<path d="M32.9698 34.2201L17.491 31.4462C16.0469 31.1873 15.3625 29.5094 16.2194 28.3186C16.921 27.3434 17.5709 26.5407 17.7099 25.7646L18.8594 19.3501C19.2571 17.1316 20.1776 15.2232 21.3434 13.932C22.5108 12.6408 23.9225 11.9657 25.3049 12.2134C23.0867 11.8157 20.9165 12.3551 19.2024 13.5481C17.4883 14.7414 16.229 16.5891 15.8316 18.8076L14.6819 25.2221C14.3918 26.8413 10.5871 28.3447 10.0178 31.521L14.3362 32.2949L32.9359 35.628C33.022 35.1473 33.0254 34.6773 32.9698 34.2201V34.2201Z" fill="#FFCC00"/>
<path d="M34.2957 35.7617C33.7448 36.45 33.1322 37.0875 32.4674 37.666L10.0427 33.6468C9.58614 32.8147 9.20811 31.933 8.91934 31.0118C9.18847 30.8538 9.51384 30.7879 9.84568 30.8478L33.3317 35.0561C33.7608 35.1338 34.1065 35.4036 34.2957 35.7617V35.7617Z" fill="#FDAE2F"/>
<path d="M34.2958 35.76C33.7448 36.4482 33.1322 37.0858 32.4674 37.6642L15.2337 34.575C14.4948 34.4431 14.0023 33.7364 14.1348 32.9961C14.2009 32.6266 14.4104 32.318 14.6965 32.1198C14.9831 31.9205 15.3435 31.8308 15.7137 31.8971L33.3317 35.0543C33.7608 35.132 34.1065 35.4018 34.2958 35.76V35.76Z" fill="#FECF32"/>
<path d="M37.4997 16.8633C37.4997 19.549 35.3224 21.7264 32.6366 21.7264C29.9507 21.7264 27.7733 19.549 27.7733 16.8633C27.7733 14.1774 29.9507 12 32.6366 12C35.3224 12 37.4997 14.1774 37.4997 16.8633V16.8633Z" fill="#FB3A4A"/>
<path d="M32.4988 15.0671L32.2232 15.3427C32.1543 15.403 32.0769 15.4204 32.0164 15.4204C31.801 15.4204 31.6546 15.1963 31.6546 14.9723C31.6546 14.8172 31.7321 14.6536 31.87 14.5675L32.8865 13.7922C32.9467 13.7404 33.0244 13.7061 33.119 13.7061C33.3518 13.7061 33.6187 13.8437 33.6187 14.0678V19.6673C33.6187 19.9001 33.3344 20.0206 33.0588 20.0206C32.7744 20.0206 32.4988 19.9001 32.4988 19.6673V15.0671Z" fill="white"/>
</g>
<defs>
<clipPath id="clip0_264_690">
<rect width="29.25" height="29.25" fill="white" transform="translate(8.25 12)"/>
</clipPath>
</defs>
</svg>
