<svg xmlns="http://www.w3.org/2000/svg" width="76" height="76" fill="none" viewBox="0 0 76 76">
  <circle cx="38" cy="38" r="38" fill="#FFD166"/>
  <path fill="#A8CFF0" d="M40.456 61.075c-.075 0-.125-.05-.125-.125 0-.076.05-.126.125-.126.151 0 .327-.025.478-.05.075-.025.126.05.15.1a.17.17 0 0 1-.1.151c-.176.025-.352.05-.528.05 0 0 .026 0 0 0Zm-.728-.025c-.025 0-.025 0 0 0a3.28 3.28 0 0 1-.528-.1c-.075-.025-.1-.076-.1-.15.025-.076.075-.101.15-.101.151.05.302.075.478.1.075 0 .125.075.1.15 0 .051-.05.101-.1.101Zm1.96-.175c-.05 0-.1-.026-.126-.101-.025-.075.025-.126.076-.15l.452-.152c.075-.025.126 0 .176.076.025.075 0 .125-.075.176-.151.075-.327.125-.478.176 0-.026 0-.026-.025-.026Zm-3.166-.202c-.026 0-.05 0-.05-.025l.05-.1-.076.1-.427-.251c-.05-.025-.075-.1-.05-.176.025-.05.1-.075.175-.05l.428.251c.05.025.075.126.05.176 0 .05-.05.075-.1.075Zm4.322-.301c-.05 0-.075-.025-.1-.05a.133.133 0 0 1 .05-.176l.427-.252a.132.132 0 0 1 .176.05.133.133 0 0 1-.05.177l-.428.25h-.075Zm-5.403-.327c-.025 0-.05 0-.05-.025l-.428-.251c-.05-.025-.075-.1-.05-.176.025-.05.1-.076.176-.05l.427.25c.05.026.076.101.05.177-.05.05-.075.075-.125.075Zm6.483-.301c-.05 0-.075-.026-.1-.05a.132.132 0 0 1 .05-.177l.427-.25a.132.132 0 0 1 .176.05.132.132 0 0 1-.05.175l-.427.252h-.076Zm-7.564-.327c-.025 0-.05 0-.05-.025l-.427-.252c-.05-.025-.076-.1-.05-.175.025-.05.1-.076.175-.05l.428.25c.05.026.075.101.05.177-.05.05-.1.075-.126.075Zm8.645-.302c-.05 0-.075-.025-.1-.05a.133.133 0 0 1 .05-.176l.427-.251a.133.133 0 0 1 .176.05.133.133 0 0 1-.05.176l-.428.251h-.075Zm-9.725-.326c-.025 0-.05 0-.05-.025l-.428-.252c-.05-.025-.075-.1-.05-.176.025-.05.1-.075.176-.05l.427.251c.05.026.076.1.05.176-.05.076-.1.076-.125.076Zm10.806-.302c-.05 0-.076-.025-.1-.05a.132.132 0 0 1 .05-.176l.427-.251a.132.132 0 0 1 .175.05.132.132 0 0 1-.05.176l-.427.251h-.075Zm-11.887-.301c-.025 0-.05 0-.05-.026l-.427-.25c-.05-.026-.076-.101-.05-.177.025-.05.1-.075.175-.05l.428.251c.05.025.075.1.05.176-.05.05-.1.076-.126.076Zm12.967-.327c-.05 0-.075-.025-.1-.05a.133.133 0 0 1 .05-.176l.427-.252a.133.133 0 0 1 .176.05.133.133 0 0 1-.05.177l-.427.25h-.076Zm-14.073-.302c-.025 0-.05 0-.05-.025l-.427-.251c-.05-.025-.075-.1-.05-.176.025-.05.1-.075.176-.05l.427.251c.05.025.075.1.05.176a.138.138 0 0 1-.126.075Zm15.154-.326c-.05 0-.076-.026-.1-.05a.132.132 0 0 1 .05-.176l.427-.252a.132.132 0 0 1 .176.05.132.132 0 0 1-.05.176l-.428.252h-.075Zm-16.234-.302c-.025 0-.05 0-.05-.025l-.428-.251c-.05-.026-.075-.1-.05-.176.025-.05.1-.076.176-.05l.427.25c.05.026.076.101.05.177a.138.138 0 0 1-.125.075Zm17.314-.327c-.05 0-.075-.025-.1-.05a.133.133 0 0 1 .05-.176l.427-.251a.133.133 0 0 1 .176.05.133.133 0 0 1-.05.176l-.427.251h-.076Zm-18.395-.301c-.025 0-.05 0-.05-.025l-.427-.252c-.05-.025-.076-.1-.05-.175.025-.05.1-.076.175-.05l.428.25c.05.026.075.101.05.176a.138.138 0 0 1-.126.076Zm19.476-.302c-.05 0-.075-.025-.1-.05a.132.132 0 0 1 .05-.176l.427-.251a.133.133 0 0 1 .176.05.133.133 0 0 1-.05.176l-.428.251c-.025-.025-.05 0-.075 0Zm-20.556-.326c-.026 0-.05 0-.05-.026l-.428-.25c-.05-.026-.075-.101-.05-.177.025-.05.1-.075.176-.05l.427.251c.05.025.075.1.05.176a.138.138 0 0 1-.125.076Zm21.637-.302c-.05 0-.076-.025-.1-.05a.132.132 0 0 1 .05-.176l.426-.252a.132.132 0 0 1 .176.05.132.132 0 0 1-.05.177l-.427.251c-.025-.025-.05 0-.075 0Zm-22.718-.327c-.025 0-.05 0-.05-.025l-.427-.251c-.05-.025-.076-.1-.05-.176.024-.05.1-.075.175-.05l.427.251c.05.025.076.1.05.176-.05.05-.075.075-.125.075Zm23.823-.301c-.05 0-.075-.025-.1-.05a.133.133 0 0 1 .05-.176l.427-.252a.133.133 0 0 1 .176.05.133.133 0 0 1-.05.177l-.427.25h-.076Zm-24.904-.327c-.025 0-.05 0-.05-.025l-.427-.251c-.05-.026-.075-.1-.05-.176.025-.05.1-.076.176-.05l.427.25c.05.026.075.101.05.177-.05.05-.075.075-.126.075Zm25.985-.301c-.05 0-.075-.026-.1-.05a.132.132 0 0 1 .05-.177l.427-.251a.133.133 0 0 1 .176.05.133.133 0 0 1-.05.176l-.428.252h-.075Zm-27.065-.327c-.025 0-.05 0-.05-.025l-.428-.252c-.05-.025-.075-.1-.05-.175.025-.05.1-.076.176-.05l.427.25c.05.026.076.101.05.176-.05.05-.1.076-.125.076Zm28.145-.302c-.05 0-.075-.025-.1-.05a.132.132 0 0 1 .05-.176l.427-.251a.133.133 0 0 1 .176.05.133.133 0 0 1-.05.176l-.427.251h-.076Zm-29.226-.301c-.025 0-.05 0-.05-.025l-.427-.252c-.05-.025-.076-.1-.05-.176.025-.05.1-.075.175-.05l.428.251c.05.026.075.1.05.176-.05.05-.1.076-.126.076Zm30.307-.327c-.05 0-.075-.025-.1-.05a.132.132 0 0 1 .05-.176l.427-.252a.132.132 0 0 1 .176.05.132.132 0 0 1-.05.177l-.428.251h-.075Zm-31.387-.302c-.026 0-.05 0-.05-.025l-.428-.251c-.05-.025-.075-.1-.05-.176.025-.05.1-.075.176-.05l.427.251c.05.025.075.1.05.176-.05.05-.1.075-.125.075Zm32.468-.326c-.05 0-.076-.025-.1-.05a.132.132 0 0 1 .05-.176l.427-.252a.132.132 0 0 1 .175.05.132.132 0 0 1-.05.176l-.427.252h-.075Zm-33.574-.302c-.025 0-.05 0-.05-.025l-.427-.251c-.05-.025-.076-.1-.05-.176.024-.05.1-.075.175-.05l.427.25c.05.026.076.101.05.177a.138.138 0 0 1-.125.075Zm34.63-.352a.19.19 0 0 1-.101-.05c-.05-.05-.026-.126.025-.176.125-.1.226-.226.326-.327.05-.05.126-.075.176-.025.05.05.076.126.026.176a1.796 1.796 0 0 1-.377.377c-.026.025-.05.025-.076.025Zm-35.71-.276c-.026 0-.05 0-.05-.025l-.428-.252c-.05-.025-.076-.1-.05-.175.025-.05.1-.076.175-.05l.428.25c.05.026.075.101.05.177a.138.138 0 0 1-.126.075Zm-1.081-.628c-.025 0-.05 0-.05-.025l-.428-.252c-.05-.025-.075-.1-.05-.176.025-.05.1-.075.176-.05l.427.251c.05.026.075.1.05.176a.138.138 0 0 1-.125.076Zm37.393-.151c-.075 0-.125-.05-.125-.126a.76.76 0 0 0-.126-.402.132.132 0 0 1 .05-.176.132.132 0 0 1 .176.05c.1.176.15.352.15.528 0 .076-.075.126-.125.126Zm-38.474-.478c-.025 0-.05 0-.05-.025l-.427-.251c-.05-.025-.076-.1-.05-.176.025-.05.1-.075.175-.05l.428.251c.05.025.075.1.05.176a.138.138 0 0 1-.126.075Zm37.796-.502c-.025 0-.05 0-.076-.025l-.427-.252c-.05-.025-.075-.1-.05-.175.025-.05.1-.076.176-.05l.427.25c.05.026.075.126.05.176-.025.05-.075.076-.1.076Zm-38.876-.126c-.026 0-.05 0-.05-.025l-.428-.251c-.05-.025-.075-.1-.05-.176.025-.05.1-.075.176-.05l.427.25c.05.026.075.101.05.177-.05.05-.075.075-.125.075Zm37.795-.502c-.025 0-.05 0-.05-.025l-.427-.252c-.05-.025-.076-.1-.05-.176.025-.05.1-.075.175-.05l.428.251c.05.025.075.1.05.176-.05.05-.1.076-.126.076Zm-38.876-.126c-.025 0-.05 0-.05-.025l-.428-.252c-.05-.025-.075-.1-.05-.175.025-.05.1-.076.176-.05l.427.25c.05.026.076.101.05.177-.05.05-.075.075-.125.075Zm37.796-.503c-.026 0-.05 0-.05-.025l-.428-.251c-.05-.025-.075-.1-.05-.176.025-.05.1-.075.176-.05l.427.251c.05.025.075.1.05.176-.05.05-.1.075-.125.075Zm-38.877-.125c-.025 0-.05 0-.05-.025l-.427-.252c-.05-.025-.076-.1-.05-.176.025-.05.1-.075.176-.05l.427.251c.05.026.075.1.05.176-.05.076-.075.076-.126.076Zm37.77-.503c-.024 0-.05 0-.05-.025l-.427-.251c-.05-.026-.075-.1-.05-.176.025-.05.1-.076.176-.05l.427.25c.05.026.076.101.05.177a.138.138 0 0 1-.125.075Zm-38.85-.1c-.025 0-.05 0-.05-.026l-.428-.25c-.05-.026-.075-.101-.05-.177.025-.05.1-.075.176-.05l.427.251c.05.025.076.1.05.176-.05.05-.1.076-.125.076Zm37.77-.528c-.025 0-.05 0-.05-.025l-.427-.252c-.05-.025-.076-.1-.05-.175.025-.05.1-.076.175-.05l.428.25c.05.026.075.101.05.176a.138.138 0 0 1-.126.076Zm-38.85-.1c-.026 0-.051 0-.051-.026l-.427-.251c-.05-.025-.076-.1-.05-.176.025-.05.1-.075.175-.05l.428.251c.05.025.075.1.05.176-.05.05-.1.075-.126.075Zm37.77-.528c-.026 0-.05 0-.05-.026l-.428-.25c-.05-.026-.075-.101-.05-.177.025-.05.1-.075.176-.05l.427.251c.05.025.075.1.05.176a.138.138 0 0 1-.125.076Zm-38.877-.1c-.025 0-.05 0-.05-.026l-.427-.251c-.05-.026-.075-.1-.05-.176.025-.05.1-.076.176-.05l.427.25c.05.026.075.101.05.177a.138.138 0 0 1-.126.075Zm37.796-.529c-.025 0-.05 0-.05-.025l-.427-.251c-.05-.025-.076-.1-.05-.176.025-.05.1-.075.175-.05l.428.251c.05.025.075.1.05.176a.138.138 0 0 1-.126.075Zm-38.876-.1c-.025 0-.05 0-.05-.025l-.428-.252c-.05-.025-.075-.125-.05-.175.025-.05.126-.076.176-.05l.427.25c.05.026.076.101.05.176a.138.138 0 0 1-.125.076Zm37.795-.528c-.025 0-.05 0-.05-.025l-.427-.251c-.05-.025-.075-.1-.05-.176.025-.05.1-.076.176-.05l.427.25c.05.026.075.101.05.177-.05.05-.075.075-.126.075Zm-38.75-.251c-.05 0-.075-.025-.1-.05a1.052 1.052 0 0 1-.151-.528c0-.076.05-.126.125-.126.076 0 .126.05.126.126 0 .15.05.276.126.402a.133.133 0 0 1-.05.176h-.076Zm37.67-.377c-.025 0-.05 0-.05-.025l-.428-.252c-.05-.025-.075-.1-.05-.175.025-.05.1-.076.176-.05l.427.25c.05.026.076.101.05.176-.05.076-.075.076-.125.076Zm-1.08-.603c-.026 0-.051 0-.051-.025l-.427-.252c-.05-.025-.076-.1-.05-.176.025-.05.1-.075.175-.05l.428.251c.05.026.075.1.05.176-.05.05-.1.076-.126.076Zm-36.49-.176c-.025 0-.05 0-.075-.025-.05-.05-.075-.126-.025-.176.1-.126.226-.252.377-.377.05-.05.126-.025.176.025.05.05.025.126-.025.176-.126.1-.227.226-.327.326-.025.026-.05.05-.1.05Zm35.409-.453c-.025 0-.05 0-.05-.025l-.428-.251c-.05-.025-.075-.1-.05-.176.025-.05.1-.075.176-.05l.427.251c.05.025.076.1.05.176-.05.05-.1.075-.125.075Zm-34.428-.326c-.05 0-.076-.025-.101-.05a.133.133 0 0 1 .05-.176l.428-.252a.132.132 0 0 1 .175.05.133.133 0 0 1-.05.176l-.427.252h-.075Zm33.347-.302c-.025 0-.05 0-.05-.025l-.427-.251c-.05-.025-.076-.1-.05-.176.025-.05.1-.076.175-.05l.427.25c.05.026.076.101.05.177-.05.05-.1.075-.125.075Zm-32.267-.327c-.05 0-.075-.025-.1-.05a.133.133 0 0 1 .05-.176l.427-.251a.133.133 0 0 1 .176.05.132.132 0 0 1-.05.176l-.428.252h-.075Zm31.161-.301c-.025 0-.05 0-.05-.025l-.427-.252c-.05-.025-.075-.1-.05-.175.025-.05.1-.076.176-.05l.427.25c.05.026.075.101.05.177a.138.138 0 0 1-.126.075ZM14.8 41.7c-.05 0-.076-.025-.1-.05a.133.133 0 0 1 .05-.176l.427-.251a.133.133 0 0 1 .176.05.133.133 0 0 1-.05.176l-.428.251H14.8Zm29-.301c-.025 0-.05 0-.05-.025l-.428-.252c-.05-.025-.075-.1-.05-.176.025-.05.1-.075.176-.05l.427.251c.05.026.076.1.05.176a.138.138 0 0 1-.125.076Zm-27.92-.302c-.05 0-.075-.025-.1-.05a.132.132 0 0 1 .05-.176l.427-.251a.132.132 0 0 1 .176.05.132.132 0 0 1-.05.176l-.427.251c-.025-.025-.05 0-.076 0Zm26.84-.327c-.026 0-.051 0-.051-.025l-.427-.251c-.05-.025-.076-.1-.05-.176.025-.05.1-.075.175-.05l.428.251c.05.025.075.1.05.176a.138.138 0 0 1-.126.075Zm-25.76-.301c-.05 0-.075-.025-.1-.05a.133.133 0 0 1 .05-.176l.428-.252a.133.133 0 0 1 .176.05.133.133 0 0 1-.05.177l-.428.25c-.025-.024-.05 0-.075 0Zm24.679-.327c-.026 0-.05 0-.05-.025l-.428-.251c-.05-.025-.075-.1-.05-.176.025-.05.1-.075.176-.05l.427.25c.05.026.075.101.05.177a.138.138 0 0 1-.125.075Zm-23.572-.301c-.05 0-.076-.026-.1-.05a.132.132 0 0 1 .05-.176l.427-.252a.132.132 0 0 1 .175.05.132.132 0 0 1-.05.176l-.427.252h-.075Zm22.491-.327c-.025 0-.05 0-.05-.025l-.427-.252c-.05-.025-.076-.1-.05-.175.024-.05.1-.076.175-.05l.427.25c.05.026.076.101.05.177-.05.05-.075.075-.125.075Zm-21.41-.302c-.051 0-.076-.025-.101-.05a.133.133 0 0 1 .05-.176l.427-.251a.133.133 0 0 1 .176.05.133.133 0 0 1-.05.176l-.427.251h-.076Zm20.33-.326c-.026 0-.05 0-.05-.025L39 38.609c-.05-.025-.075-.1-.05-.176.025-.05.1-.075.176-.05l.427.251c.05.026.075.1.05.176-.05.076-.075.076-.126.076Zm-19.25-.302c-.05 0-.076-.025-.1-.05a.132.132 0 0 1 .05-.176l.427-.251a.132.132 0 0 1 .176.05.132.132 0 0 1-.05.176l-.428.251h-.075Zm18.169-.301c-.025 0-.05 0-.05-.026l-.428-.25c-.05-.026-.075-.101-.05-.177.025-.05.1-.075.176-.05l.427.251c.05.025.076.1.05.176-.05.05-.075.076-.125.076Zm-17.089-.327c-.05 0-.075-.025-.1-.05a.133.133 0 0 1 .05-.176l.427-.252a.133.133 0 0 1 .176.05.133.133 0 0 1-.05.177l-.427.25h-.076Zm16.008-.302c-.025 0-.05 0-.05-.025l-.427-.251c-.05-.025-.076-.1-.05-.176.025-.05.1-.075.175-.05l.428.251c.05.025.075.1.05.176-.05.05-.1.075-.126.075Zm-14.927-.326c-.05 0-.075-.026-.1-.05a.133.133 0 0 1 .05-.176l.427-.252a.132.132 0 0 1 .176.05.132.132 0 0 1-.05.176l-.428.252h-.075Zm13.847-.302c-.026 0-.05 0-.05-.025l-.428-.251c-.05-.026-.075-.1-.05-.176.025-.05.1-.076.176-.05l.427.25c.05.026.075.101.05.177-.05.05-.1.075-.125.075ZM23.469 36.7c-.05 0-.076-.025-.1-.05a.133.133 0 0 1 .05-.176l.427-.251a.133.133 0 0 1 .175.05.133.133 0 0 1-.05.176l-.427.251h-.075Zm11.66-.301c-.025 0-.05 0-.05-.025l-.428-.252c-.05-.025-.075-.1-.05-.175.025-.05.1-.076.176-.05l.427.25c.05.026.076.101.05.176a.138.138 0 0 1-.125.076Zm-10.58-.327c-.05 0-.075-.025-.1-.05a.132.132 0 0 1 .05-.176l.427-.251a.132.132 0 0 1 .176.05.132.132 0 0 1-.05.176l-.427.251h-.076Zm9.5-.301c-.026 0-.05 0-.05-.026l-.428-.25c-.05-.026-.075-.101-.05-.177.025-.05.1-.075.175-.05l.428.251c.05.025.075.1.05.176a.138.138 0 0 1-.126.076Zm-8.42-.302c-.05 0-.075-.025-.1-.05a.132.132 0 0 1 .05-.176l.428-.251a.132.132 0 0 1 .176.05.132.132 0 0 1-.05.176l-.428.251c-.025-.025-.05 0-.075 0Zm7.339-.327c-.025 0-.05 0-.05-.025l-.428-.251c-.05-.025-.075-.1-.05-.176.025-.05.1-.075.176-.05l.427.251c.05.025.075.1.05.176a.138.138 0 0 1-.125.075Zm-6.258-.301c-.05 0-.075-.025-.1-.05a.132.132 0 0 1 .05-.176l.427-.252a.132.132 0 0 1 .176.05.132.132 0 0 1-.05.177l-.427.25c-.025-.024-.05 0-.076 0Zm5.177-.327c-.025 0-.05 0-.05-.025l-.427-.251c-.05-.026-.076-.1-.05-.176.025-.05.1-.076.175-.05l.428.25c.05.026.075.101.05.177a.138.138 0 0 1-.126.075Zm-4.07-.276a.141.141 0 0 1-.127-.076c-.025-.075 0-.125.076-.176.15-.075.327-.125.477-.176.076-.025.126.026.151.076.025.075-.025.126-.075.15l-.453.151c-.025.05-.025.05-.05.05Zm2.94-.252h-.026a2.682 2.682 0 0 0-.477-.1c-.076 0-.126-.076-.1-.151 0-.075.075-.126.15-.1.176.025.352.05.503.1.075.025.1.075.1.15-.05.076-.1.101-.15.101Zm-1.735-.075c-.05 0-.125-.05-.125-.1a.17.17 0 0 1 .1-.151c.176-.026.352-.026.503-.05.075 0 .125.05.125.125s-.05.126-.125.126c-.126.025-.302.025-.478.05Z"/>
  <path fill="#2672AB" d="M38.547 58.99 14.12 44.892c-.427-.251-.653-.578-.653-.93v-1.206c0-.427.326.302.93-.025l13.871-8.017c1.106-.653 2.79-.703 3.77-.15l24.426 14.098c.327.175.553-.603.629-.352.025.075 0 1.18 0 1.281 0 .428-.302.88-.93 1.257L42.29 58.864c-1.08.604-2.764.679-3.744.126Z"/>
  <path fill="#D1EBFF" d="M38.547 57.81 14.12 43.685c-.955-.553-.854-1.533.277-2.161l13.871-8.017c1.106-.653 2.79-.703 3.77-.15l24.426 14.098c.955.552.855 1.532-.276 2.16l-13.872 8.017c-1.106.654-2.79.729-3.77.176Z"/>
  <path fill="#3F92D1" d="M38.546 58.99c.955.553 2.639.478 3.77-.15v-1.182c-1.106.654-2.79.704-3.77.151v1.181Z" opacity=".5"/>
  <path fill="#3F92D1" d="M38.547 57.809 14.12 43.686c-.477-.277-.678-.628-.653-1.005v1.281c0 .352.226.679.653.93L38.547 58.99v-1.18Z"/>
  <path fill="#fff" d="m56.188 49.44-13.872 8.017c-1.105.653-2.79.703-3.77.15L14.12 43.484c-.402-.226-.603-.527-.653-.854-.05.402.15.779.653 1.055l24.427 14.098c.955.553 2.638.478 3.77-.15l13.871-8.017c.653-.377.955-.854.905-1.307-.05.402-.352.804-.905 1.131Z"/>
  <path fill="#fff" d="m32.993 52.883-8.695-5.026c-.176-.1-.151-.276.05-.402l3.267-1.885a.724.724 0 0 1 .679-.025l8.695 5.026c.175.1.15.277-.05.402l-3.268 1.885c-.2.1-.502.126-.678.025Z" opacity=".3"/>
  <path fill="#A8CFF0" d="m24.348 47.656 3.267-1.884a.724.724 0 0 1 .679-.026l8.695 5.026.075.076c.075-.1.05-.201-.075-.277l-8.695-5.026c-.176-.1-.478-.075-.679.026l-3.267 1.884c-.15.1-.2.227-.125.327.025-.05.075-.075.125-.126Z"/>
  <path fill="#72B5E8" d="m30.43 35.167 1.507.854c.201.1.503.1.679 0 .201-.1.176-.276 0-.402l-1.508-.854c-.2-.1-.503-.1-.678 0-.201.126-.201.301 0 .402Zm2.563 1.483.703.402c.202.1.503.1.679 0 .201-.1.176-.277 0-.402l-.704-.402c-.2-.101-.502-.101-.678 0-.176.125-.176.301 0 .402Zm1.784 1.03.704.402c.2.1.502.1.678 0 .201-.1.176-.276 0-.402l-.703-.402c-.201-.1-.503-.1-.679 0-.2.126-.2.301 0 .402Zm1.784 1.03.704.402c.201.1.503.1.678 0 .202-.1.176-.276 0-.402l-.703-.402c-.201-.1-.503-.1-.679 0-.2.1-.2.277 0 .402Zm1.76 1.03.703.403c.201.1.503.1.679 0 .2-.1.175-.277 0-.402l-.704-.402c-.201-.101-.503-.101-.678 0-.176.1-.176.276 0 .402Zm1.784 1.006.703.402c.201.1.503.1.679 0 .2-.1.176-.277 0-.402l-.704-.402c-.2-.1-.502-.1-.678 0-.201.125-.201.301 0 .402Zm1.784 1.03.704.402c.2.1.502.1.678 0 .201-.1.176-.276 0-.402l-.704-.402c-.2-.1-.502-.1-.678 0-.201.126-.201.302 0 .402Zm1.759 1.03.704.403c.2.1.502.1.678 0 .201-.101.176-.277 0-.403l-.703-.402c-.201-.1-.503-.1-.679 0-.176.126-.176.302 0 .402Zm1.784 1.03.704.403c.2.1.502.1.678 0 .202-.1.176-.277 0-.402l-.703-.402c-.201-.1-.503-.1-.679 0-.176.1-.176.301 0 .402Zm1.785 1.031.703.402c.201.1.503.1.679 0 .2-.1.176-.276 0-.402l-.704-.402c-.201-.1-.503-.1-.678 0-.201.1-.201.276 0 .402ZM49 45.897l.703.403c.201.1.503.1.679 0 .176-.101.176-.277 0-.403l-.704-.402c-.2-.1-.502-.1-.678 0-.201.1-.201.277 0 .402Zm1.759 1.006.704.402c.2.1.502.1.678 0 .201-.1.176-.277 0-.402l-.704-.402c-.2-.101-.502-.101-.678 0-.176.125-.176.301 0 .402Zm1.834 1.055.704.402c.201.1.503.1.678 0 .202-.1.176-.276 0-.402l-.703-.402c-.201-.1-.503-.1-.679 0-.2.126-.2.302 0 .402ZM28.821 36.147l.629.352c.226.125.578.125.779 0l.603-.352c.226-.126.226-.327 0-.452l-.603-.352c-.227-.126-.578-.126-.78 0l-.603.352c-.226.125-.226.326-.025.452Zm3.192 1.382.603-.352c.226-.125.226-.326 0-.452l-.603-.352c-.226-.125-.578-.125-.78 0l-.602.352c-.227.126-.227.327 0 .452l.603.352c.2.126.553.126.779 0Zm.377.679.603.352c.226.125.578.125.779 0l.603-.352c.226-.126.226-.327 0-.453l-.603-.352c-.226-.125-.578-.125-.78 0l-.602.352c-.226.126-.226.327 0 .453Zm1.784 1.03.603.352c.226.125.578.125.78 0l.602-.352c.226-.126.226-.327 0-.452l-.603-.352c-.226-.126-.578-.126-.779 0l-.603.352c-.226.125-.226.326 0 .452Zm3.77.578-.604-.352c-.226-.125-.578-.125-.779 0l-.603.352c-.226.126-.226.327 0 .452l.603.352c.227.126.578.126.78 0l.602-.352c.227-.125.227-.326 0-.452Zm1.784 1.005-.603-.352c-.227-.125-.578-.125-.78 0l-.602.352c-.227.126-.227.327 0 .453l.603.351c.226.126.578.126.779 0l.603-.352c.226-.125.2-.326 0-.452Zm1.784 1.03-.603-.351c-.226-.126-.578-.126-.78 0l-.602.352c-.227.125-.227.326 0 .452l.603.352c.226.125.578.125.779 0l.603-.352c.201-.126.201-.327 0-.453Zm1.76 1.03-.604-.351c-.226-.126-.578-.126-.78 0l-.602.352c-.226.126-.226.327 0 .452l.603.352c.226.126.578.126.779 0l.603-.352c.226-.126.226-.327 0-.452Zm1.783 1.031-.603-.352c-.226-.125-.578-.125-.779 0l-.603.352c-.226.126-.226.327 0 .453l.603.351c.226.126.578.126.78 0l.602-.352c.227-.125.227-.326 0-.452Zm1.785 1.03-.604-.351c-.226-.126-.578-.126-.779 0l-.603.352c-.226.125-.226.326 0 .452l.603.352c.227.125.578.125.78 0l.602-.352c.202-.126.202-.327 0-.453Zm-.227 1.458.604.352c.226.125.578.125.779 0l.603-.352c.226-.126.226-.327 0-.452l-.603-.352c-.227-.126-.579-.126-.78 0l-.603.352c-.226.125-.226.326 0 .452Zm3.77.578-.603-.352c-.226-.125-.578-.125-.78 0l-.602.352c-.227.126-.227.327 0 .452l.603.352c.226.126.578.126.779 0l.603-.352c.226-.125.226-.326 0-.452Zm2.613 1.508-1.407-.804c-.226-.126-.578-.126-.779 0l-.603.351c-.226.126-.226.327 0 .453l1.407.804c.226.126.578.126.78 0l.602-.352c.201-.126.201-.327 0-.452ZM27.188 37.102l1.407.804c.226.126.578.126.78 0l.602-.352c.226-.125.226-.326 0-.452l-1.407-.804c-.226-.126-.578-.126-.779 0l-.603.352c-.226.125-.226.326 0 .452Zm2.563 1.483.603.351c.226.126.578.126.78 0l.602-.351c.227-.126.227-.327 0-.453l-.603-.352c-.226-.125-.578-.125-.779 0l-.603.352c-.226.126-.226.327 0 .453Zm2.387 1.382c.227.125.579.125.78 0l.603-.352c.226-.126.226-.327 0-.452l-.604-.352c-.226-.126-.578-.126-.779 0l-.603.352c-.226.125-.226.326 0 .452l.604.352Zm1.785 1.03c.226.126.578.126.779 0l.603-.352c.226-.125.226-.326 0-.452l-.603-.352c-.226-.126-.578-.126-.78 0l-.602.352c-.227.126-.227.327 0 .452l.603.352Zm1.759-.15-.603.351c-.227.126-.227.327 0 .453l.603.351c.226.126.578.126.779 0l.603-.352c.226-.125.226-.326 0-.452l-.603-.352c-.201-.125-.553-.125-.78 0Zm1.834 1.005-.678.402c-.201.1-.201.301 0 .402l.678.402a.704.704 0 0 0 .704 0l.678-.402c.201-.1.201-.302 0-.402l-.678-.402c-.201-.101-.528-.101-.704 0Zm1.76 1.03-.68.402c-.2.1-.2.302 0 .402l.68.402a.704.704 0 0 0 .703 0l.679-.402c.2-.1.2-.302 0-.402l-.679-.402c-.176-.1-.503-.1-.704 0Zm1.784 1.03-.679.402c-.2.1-.2.302 0 .402l.679.402a.704.704 0 0 0 .703 0l.679-.402c.2-.1.2-.301 0-.402l-.679-.402a.704.704 0 0 0-.703 0Zm1.784 1.03-.679.403c-.2.1-.2.301 0 .402l.679.402a.704.704 0 0 0 .703 0l.679-.402c.201-.1.201-.302 0-.402l-.678-.402a.704.704 0 0 0-.704 0Zm1.759 1.03-.678.403c-.202.1-.202.301 0 .402l.678.402a.704.704 0 0 0 .704 0l.678-.402c.201-.1.201-.302 0-.402l-.678-.402c-.176-.126-.503-.126-.704 0Zm2.513 2.212.678-.402c.202-.1.202-.301 0-.402l-.678-.402a.704.704 0 0 0-.704 0l-.678.402c-.201.1-.201.302 0 .402l.678.402c.176.126.503.126.704 0Zm1.76 1.03.678-.401c.2-.101.2-.302 0-.403l-.679-.402a.704.704 0 0 0-.704 0l-.678.402c-.201.101-.201.302 0 .403l.678.402c.202.125.528.125.704 0Zm2.512.252-.678-.402a.704.704 0 0 0-.704 0l-.679.402c-.2.1-.2.301 0 .402l.679.402a.704.704 0 0 0 .704 0l.678-.402c.201-.1.201-.302 0-.402ZM25.504 38.032l2.237 1.281a.704.704 0 0 0 .703 0l.679-.402c.2-.1.2-.301 0-.402l-2.237-1.281a.704.704 0 0 0-.703 0l-.679.402c-.2.1-.2.276 0 .402Zm3.317 1.91.679.402a.704.704 0 0 0 .703 0l.679-.402c.201-.1.201-.302 0-.403l-.679-.401a.704.704 0 0 0-.703 0l-.679.401c-.2.101-.2.302 0 .403Zm1.784 1.03.68.402a.704.704 0 0 0 .703 0l.678-.402c.201-.1.201-.302 0-.402l-.678-.402a.704.704 0 0 0-.704 0l-.678.402c-.202.1-.202.276 0 .402Zm1.76 1.03.678.402a.704.704 0 0 0 .704 0l.678-.402c.201-.1.201-.301 0-.402l-.678-.402a.704.704 0 0 0-.704 0l-.678.402c-.201.1-.176.277 0 .402Zm3.191 1.408.679-.402c.2-.101.2-.302 0-.403l-.679-.402a.704.704 0 0 0-.703 0l-.679.402c-.201.1-.201.302 0 .403l.678.402c.176.125.503.125.704 0Zm1.76 1.03.678-.402c.2-.1.2-.302 0-.402l-.679-.402a.704.704 0 0 0-.703 0l-.679.402c-.2.1-.2.301 0 .402l.679.402c.2.126.527.126.703 0Zm1.783 1.03.679-.402c.201-.1.201-.301 0-.402l-.678-.402a.704.704 0 0 0-.704 0l-.679.402c-.2.1-.2.302 0 .402l.679.402a.704.704 0 0 0 .703 0Zm1.785 1.03.678-.401c.201-.101.201-.302 0-.403l-.678-.402a.704.704 0 0 0-.704 0l-.678.402c-.202.1-.202.302 0 .403l.678.402c.176.1.503.1.704 0Zm1.784 1.03.678-.401c.202-.1.202-.302 0-.402l-.678-.402a.704.704 0 0 0-.704 0l-.678.402c-.201.1-.201.301 0 .402l.678.402c.176.1.503.1.704 0Zm1.76 1.031.678-.402c.2-.1.2-.301 0-.402l-.679-.402a.704.704 0 0 0-.704 0l-.678.402c-.201.1-.201.302 0 .402l.678.402c.202.1.503.1.704 0Zm.376.603.678.402a.704.704 0 0 0 .704 0l.679-.402c.2-.1.2-.301 0-.402l-.679-.402a.704.704 0 0 0-.703 0l-.679.402c-.201.126-.176.302 0 .402Zm4.925 1.257-1.759-1.005a.704.704 0 0 0-.703 0l-.679.402c-.2.1-.2.301 0 .402l1.76 1.005a.704.704 0 0 0 .703 0l.678-.402c.202-.126.202-.302 0-.402ZM23.872 39.037l3.166 1.834a.904.904 0 0 0 .804 0l.603-.351c.227-.126.227-.327 0-.453l-3.166-1.834a.905.905 0 0 0-.804 0l-.603.352c-.226.1-.226.326 0 .452Zm4.322 2.488.603.352a.904.904 0 0 0 .804 0l.603-.352c.227-.126.227-.327 0-.453l-.603-.351a.904.904 0 0 0-.804 0l-.603.352c-.201.125-.201.326 0 .452Zm1.784 1.03.603.352a.905.905 0 0 0 .805 0l.603-.352c.226-.126.226-.327 0-.452l-.603-.352a.905.905 0 0 0-.805 0l-.603.352c-.226.125-.226.326 0 .452Zm1.785 1.03.603.352a.905.905 0 0 0 .804 0l.603-.351c.226-.126.226-.327 0-.453l-.603-.352a.905.905 0 0 0-.804 0l-.604.352c-.226.126-.226.327 0 .453Zm1.784 1.03.603.353a.904.904 0 0 0 .804 0l.603-.352c.226-.126.226-.327 0-.453l-.603-.351a.904.904 0 0 0-.804 0l-.603.352c-.226.125-.226.326 0 .452Zm1.759 1.031.603.352a.905.905 0 0 0 .804 0l.603-.352c.226-.126.226-.327 0-.452l-.603-.352a.904.904 0 0 0-.804 0l-.603.352c-.226.1-.201.326 0 .452Zm1.784 1.005.603.352a.905.905 0 0 0 .804 0l.603-.352c.227-.125.227-.326 0-.452l-.603-.352a.905.905 0 0 0-.804 0l-.603.352c-.226.126-.226.327 0 .452Zm1.784 1.03.603.352a.905.905 0 0 0 .805 0l.603-.351c.226-.126.226-.327 0-.453l-.603-.352a.905.905 0 0 0-.805 0l-.603.352c-.226.126-.226.327 0 .453Zm1.76 1.031.602.352a.905.905 0 0 0 .805 0l.603-.352c.226-.126.226-.327 0-.452l-.603-.352a.905.905 0 0 0-.804 0l-.604.352c-.2.125-.2.326 0 .452Zm1.784 1.03.603.352a.905.905 0 0 0 .804 0l.603-.352c.226-.125.226-.326 0-.452l-.603-.352a.904.904 0 0 0-.804 0l-.603.352c-.227.126-.227.327 0 .452Zm1.784 1.03.603.352a.905.905 0 0 0 .804 0l.603-.351c.227-.126.227-.327 0-.453l-.603-.352a.905.905 0 0 0-.804 0l-.603.352c-.226.1-.226.327 0 .453Zm3.794.579-.603-.352a.905.905 0 0 0-.804 0l-.603.352c-.226.125-.226.326 0 .452l.603.352a.905.905 0 0 0 .804 0l.603-.352c.227-.1.227-.327 0-.452ZM25.003 39.967l-1.383-.804a.905.905 0 0 0-.804 0l-.603.351c-.226.126-.226.327 0 .453l1.382.804a.904.904 0 0 0 .804 0l.604-.352c.226-.1.226-.327 0-.452Zm1.784 1.03-.603-.352a.905.905 0 0 0-.805 0l-.603.352c-.226.126-.226.327 0 .452l.604.352a.905.905 0 0 0 .804 0l.603-.352c.2-.125.2-.326 0-.452Zm1.759 1.03-.603-.351a.905.905 0 0 0-.804 0l-.604.351c-.226.126-.226.327 0 .453l.604.352a.905.905 0 0 0 .804 0l.603-.352c.226-.126.226-.327 0-.453Zm12.44 7.188-11.259-6.51a.905.905 0 0 0-.804 0l-.603.353c-.226.125-.226.326 0 .452l11.258 6.509a.905.905 0 0 0 .804 0l.603-.352c.226-.126.226-.327 0-.452Zm1.784 1.03-.604-.352a.905.905 0 0 0-.804 0l-.603.352c-.226.126-.226.327 0 .452l.603.352a.905.905 0 0 0 .804 0l.604-.352c.226-.125.226-.326 0-.452Zm1.784 1.005-.603-.352a.905.905 0 0 0-.805 0l-.603.352c-.226.126-.226.327 0 .453l.603.351a.905.905 0 0 0 .805 0l.603-.352c.226-.1.2-.301 0-.452Zm1.81 1.056-.604-.352a.904.904 0 0 0-.804 0l-.603.352c-.226.125-.226.326 0 .452l.603.352a.905.905 0 0 0 .804 0l.603-.352c.226-.126.226-.327 0-.452Z"/>
  <path fill="#A8CFF0" d="m30.43 35.016 1.507.854c.201.1.503.1.679 0 .201-.1.176-.276 0-.402l-1.508-.855c-.2-.1-.503-.1-.678 0-.201.101-.201.277 0 .403Zm2.563 1.482.703.402c.202.1.503.1.679 0 .201-.1.176-.276 0-.402l-.704-.402c-.2-.1-.502-.1-.678 0-.176.1-.176.277 0 .402Zm1.784 1.005.704.403c.2.1.502.1.678 0 .201-.101.176-.277 0-.403l-.703-.402c-.201-.1-.503-.1-.679 0-.2.126-.2.302 0 .402Zm1.784 1.03.704.403c.201.1.503.1.678 0 .202-.1.176-.277 0-.402l-.703-.402c-.201-.1-.503-.1-.679 0-.176.1-.2.301 0 .402Zm1.76 1.031.703.402c.201.1.503.1.679 0 .2-.1.175-.276 0-.402l-.704-.402c-.201-.1-.503-.1-.678 0-.176.126-.176.302 0 .402Zm1.784 1.03.703.402c.201.101.503.101.679 0 .2-.1.176-.276 0-.402l-.704-.402c-.2-.1-.502-.1-.678 0-.201.1-.201.277 0 .402Zm1.784 1.03.704.403c.2.1.502.1.678 0 .201-.1.176-.277 0-.402l-.704-.402c-.2-.1-.502-.1-.678 0-.201.1-.201.276 0 .402Zm1.759 1.031.704.402c.2.1.502.1.678 0 .176-.1.176-.276 0-.402l-.703-.402c-.201-.1-.503-.1-.679 0-.176.1-.176.276 0 .402Zm1.784 1.005.704.402c.2.1.502.1.678 0 .202-.1.176-.276 0-.402l-.703-.402c-.201-.1-.503-.1-.679 0-.176.126-.176.302 0 .402Zm1.785 1.03.703.403c.201.1.503.1.679 0 .2-.1.176-.277 0-.402l-.704-.403c-.201-.1-.503-.1-.678 0-.201.126-.201.302 0 .403ZM49 45.72l.703.403c.201.1.503.1.679 0 .176-.1.176-.276 0-.402l-.704-.402c-.2-.1-.502-.1-.678 0-.201.125-.201.301 0 .402Zm1.759 1.031.704.402c.2.1.502.1.678 0 .201-.1.176-.276 0-.402l-.704-.402c-.2-.1-.502-.1-.678 0-.176.1-.176.277 0 .402Zm1.834 1.056.704.402c.201.1.503.1.678 0 .202-.1.176-.277 0-.402l-.703-.402c-.201-.1-.503-.1-.679 0-.2.1-.2.276 0 .402ZM28.821 35.996l.603.351c.227.126.578.126.78 0l.603-.351c.226-.126.226-.327 0-.453l-.604-.352c-.226-.125-.578-.125-.779 0l-.603.352c-.2.1-.2.327 0 .453Zm3.192 1.382.603-.352c.226-.126.226-.327 0-.452l-.603-.352c-.226-.126-.578-.126-.78 0l-.602.352c-.227.125-.227.326 0 .452l.603.352c.2.1.553.1.779 0Zm.377.653.603.352c.226.126.578.126.779 0l.603-.352c.226-.125.226-.326 0-.452l-.603-.352c-.226-.126-.578-.126-.78 0l-.602.352c-.226.126-.226.327 0 .452Zm1.784 1.03.603.352c.226.126.578.126.78 0l.602-.351c.226-.126.226-.327 0-.453l-.603-.352c-.226-.125-.578-.125-.779 0l-.603.352c-.226.126-.226.327 0 .453Zm3.77.578-.604-.351c-.226-.126-.578-.126-.779 0l-.603.352c-.226.125-.226.326 0 .452l.603.352c.227.125.578.125.78 0l.602-.352c.227-.126.227-.327 0-.453Zm1.784 1.03-.603-.351c-.227-.126-.578-.126-.78 0l-.602.352c-.227.125-.227.326 0 .452l.603.352c.226.126.578.126.779 0l.603-.352c.226-.126.2-.327 0-.452Zm1.784 1.031-.603-.352c-.226-.125-.578-.125-.78 0l-.602.352c-.227.126-.227.327 0 .453l.603.351c.226.126.578.126.779 0l.603-.351c.201-.126.201-.327 0-.453Zm1.76 1.005-.604-.352c-.226-.125-.578-.125-.78 0l-.602.352c-.226.126-.226.327 0 .453l.603.352c.226.125.578.125.779 0l.603-.352c.226-.1.226-.327 0-.453Zm1.783 1.03-.603-.351c-.226-.126-.578-.126-.779 0l-.603.352c-.226.125-.226.326 0 .452l.603.352c.226.126.578.126.78 0l.602-.352c.227-.126.227-.327 0-.452Zm1.785 1.031-.604-.352c-.226-.126-.578-.126-.779 0l-.603.352c-.226.126-.226.327 0 .452l.603.352c.227.126.578.126.78 0l.602-.352c.202-.125.202-.326 0-.452Zm-.227 1.483.604.351c.226.126.578.126.779 0l.603-.351c.226-.126.226-.327 0-.453l-.603-.352c-.227-.125-.579-.125-.78 0l-.603.352c-.226.126-.226.327 0 .453Zm3.77.578-.603-.352c-.226-.126-.578-.126-.78 0l-.602.352c-.227.125-.227.326 0 .452l.603.352c.226.126.578.126.779 0l.603-.352c.226-.126.226-.327 0-.452Zm2.613 1.508-1.407-.805c-.226-.125-.578-.125-.779 0l-.603.352c-.226.126-.226.327 0 .453l1.407.804c.226.125.578.125.78 0l.602-.352c.201-.126.201-.327 0-.453Zm-25.808-11.41 1.407.805c.226.125.578.125.78 0l.602-.352c.226-.126.226-.327 0-.453l-1.407-.804c-.226-.125-.578-.125-.779 0l-.603.352c-.226.126-.226.327 0 .452Zm2.563 1.483.603.352c.226.126.578.126.78 0l.602-.352c.227-.126.227-.327 0-.452l-.603-.352c-.226-.126-.578-.126-.779 0l-.603.352c-.226.125-.226.326 0 .452Zm2.387 1.382c.227.126.579.126.78 0l.603-.352c.226-.125.226-.326 0-.452l-.604-.352c-.226-.125-.578-.125-.779 0l-.603.352c-.226.126-.226.327 0 .452l.604.352Zm1.785 1.03c.226.126.578.126.779 0l.603-.351c.226-.126.226-.327 0-.453l-.603-.351c-.226-.126-.578-.126-.78 0l-.602.351c-.227.126-.227.327 0 .453l.603.352Zm1.759-.125-.603.352c-.227.125-.227.327 0 .452l.603.352c.226.126.578.126.779 0l.603-.352c.226-.126.226-.327 0-.452l-.603-.352c-.201-.126-.553-.126-.78 0Zm1.834 1.005-.678.402c-.201.1-.201.302 0 .402l.678.402a.704.704 0 0 0 .704 0l.678-.402c.201-.1.201-.301 0-.402l-.678-.402c-.201-.126-.528-.126-.704 0Zm1.76 1.03-.68.403c-.2.1-.2.301 0 .402l.68.402a.704.704 0 0 0 .703 0l.679-.402c.2-.1.2-.302 0-.402l-.679-.403c-.176-.125-.503-.125-.704 0Zm1.784 1.006-.679.402c-.2.1-.2.301 0 .402l.679.402a.704.704 0 0 0 .703 0l.679-.402c.2-.1.2-.302 0-.402l-.679-.402a.859.859 0 0 0-.703 0Zm1.784 1.03-.679.402c-.2.1-.2.302 0 .402l.679.402a.704.704 0 0 0 .703 0l.679-.402c.201-.1.201-.301 0-.402l-.678-.402a.859.859 0 0 0-.704 0Zm1.759 1.03-.678.402c-.202.1-.202.302 0 .402l.678.403a.704.704 0 0 0 .704 0l.678-.403c.201-.1.201-.301 0-.402l-.678-.402c-.176-.1-.503-.1-.704 0Zm2.513 2.237.678-.402c.202-.1.202-.302 0-.402l-.678-.402a.704.704 0 0 0-.704 0l-.678.402c-.201.1-.201.301 0 .402l.678.402c.176.1.503.1.704 0Zm1.76 1.03.678-.402c.2-.1.2-.301 0-.402l-.679-.402a.704.704 0 0 0-.704 0l-.678.402c-.201.1-.201.302 0 .402l.678.402c.202.1.528.1.704 0Zm2.512.226-.678-.402a.704.704 0 0 0-.704 0l-.679.402c-.2.1-.2.302 0 .402l.679.403a.704.704 0 0 0 .704 0l.678-.403c.201-.1.201-.276 0-.402ZM25.504 37.855l2.237 1.282a.704.704 0 0 0 .703 0l.679-.402c.2-.1.2-.302 0-.402l-2.237-1.282a.704.704 0 0 0-.703 0l-.679.402c-.2.1-.2.302 0 .402Zm3.317 1.91.679.402a.704.704 0 0 0 .703 0l.679-.402c.201-.1.201-.301 0-.402l-.679-.402a.704.704 0 0 0-.703 0l-.679.402c-.2.126-.2.302 0 .402Zm1.784 1.03.68.402a.704.704 0 0 0 .703 0l.678-.402c.201-.1.201-.301 0-.402l-.678-.402a.704.704 0 0 0-.704 0l-.678.402c-.202.1-.202.302 0 .402Zm1.76 1.03.678.403a.704.704 0 0 0 .704 0l.678-.402c.201-.1.201-.302 0-.402l-.678-.402a.704.704 0 0 0-.704 0l-.678.402c-.201.1-.176.301 0 .402Zm3.191 1.433.679-.402c.2-.1.2-.301 0-.402l-.679-.402a.704.704 0 0 0-.703 0l-.679.402c-.201.1-.201.302 0 .402l.678.402c.176.1.503.1.704 0Zm1.76 1.03.678-.401c.2-.101.2-.302 0-.403l-.679-.402a.704.704 0 0 0-.703 0l-.679.402c-.2.1-.2.302 0 .402l.679.402c.2.101.527.101.703 0Zm1.783 1.006.679-.402c.201-.1.201-.302 0-.402l-.678-.403a.704.704 0 0 0-.704 0l-.679.403c-.2.1-.2.301 0 .402l.679.402a.704.704 0 0 0 .703 0Zm1.785 1.03.678-.402c.201-.1.201-.302 0-.402l-.678-.402a.704.704 0 0 0-.704 0l-.678.402c-.202.1-.202.301 0 .402l.678.402c.176.126.503.126.704 0Zm1.784 1.03.678-.402c.202-.1.202-.301 0-.402l-.678-.402a.704.704 0 0 0-.704 0l-.703.402c-.201.1-.201.302 0 .402l.678.402a.751.751 0 0 0 .729 0Zm1.76 1.03.678-.401c.2-.1.2-.302 0-.402l-.679-.403a.704.704 0 0 0-.704 0l-.678.403c-.201.1-.201.301 0 .402l.678.402c.202.1.503.1.704 0Zm.376.629.678.402a.704.704 0 0 0 .704 0l.679-.402c.2-.1.2-.302 0-.402l-.679-.402a.704.704 0 0 0-.703 0l-.679.402c-.201.1-.176.276 0 .402Zm4.925 1.231L47.97 49.24a.704.704 0 0 0-.703 0l-.679.402c-.2.1-.2.302 0 .402l1.76 1.005a.704.704 0 0 0 .703 0l.678-.402c.202-.1.202-.276 0-.402ZM23.872 38.861l3.166 1.834a.904.904 0 0 0 .804 0l.603-.352c.227-.126.227-.327 0-.452l-3.166-1.835a.905.905 0 0 0-.804 0l-.603.352c-.226.126-.226.327 0 .453Zm4.322 2.513.603.351a.905.905 0 0 0 .804 0l.603-.352c.227-.125.227-.326 0-.452l-.603-.352a.904.904 0 0 0-.804 0l-.603.352c-.201.1-.201.327 0 .453Zm1.784 1.03.603.352a.905.905 0 0 0 .805 0l.603-.352c.226-.126.226-.327 0-.453l-.603-.351a.905.905 0 0 0-.805 0l-.603.351c-.226.101-.226.327 0 .453Zm1.785 1.005.603.352a.905.905 0 0 0 .804 0l.603-.352c.226-.126.226-.327 0-.452l-.603-.352a.905.905 0 0 0-.804 0l-.604.352c-.226.125-.226.326 0 .452Zm1.784 1.03.603.352a.904.904 0 0 0 .804 0l.603-.352c.226-.125.226-.326 0-.452l-.603-.352a.904.904 0 0 0-.804 0l-.603.352c-.226.126-.226.327 0 .452Zm1.759 1.03.603.352a.905.905 0 0 0 .804 0l.603-.351c.226-.126.226-.327 0-.453l-.603-.352a.904.904 0 0 0-.804 0l-.603.352c-.226.126-.201.327 0 .453ZM37.09 46.5l.603.352a.905.905 0 0 0 .804 0l.603-.352c.227-.126.227-.327 0-.452l-.603-.352a.905.905 0 0 0-.804 0l-.603.352c-.226.125-.226.326 0 .452Zm1.784 1.03.603.352a.905.905 0 0 0 .805 0l.603-.352c.226-.125.226-.326 0-.452l-.603-.352a.905.905 0 0 0-.805 0l-.603.352c-.226.1-.226.327 0 .452Zm1.76 1.03.602.352a.905.905 0 0 0 .805 0l.603-.351c.226-.126.226-.327 0-.453l-.603-.351a.905.905 0 0 0-.804 0l-.604.351c-.2.1-.2.302 0 .453Zm1.784 1.006.603.352a.905.905 0 0 0 .804 0l.603-.352c.226-.126.226-.327 0-.453l-.603-.351a.904.904 0 0 0-.804 0l-.603.352c-.227.125-.227.326 0 .452Zm1.784 1.03.603.352a.905.905 0 0 0 .804 0l.603-.352c.227-.125.227-.326 0-.452l-.603-.352a.905.905 0 0 0-.804 0l-.603.352c-.226.126-.226.327 0 .452Zm3.794.603-.603-.352a.905.905 0 0 0-.804 0l-.603.352c-.226.126-.226.327 0 .453l.603.352a.905.905 0 0 0 .804 0l.603-.352c.227-.126.227-.327 0-.453ZM25.003 39.815l-1.383-.804a.905.905 0 0 0-.804 0l-.603.352c-.226.126-.226.327 0 .452l1.382.805a.905.905 0 0 0 .804 0l.604-.352c.226-.126.226-.327 0-.453Zm1.784 1.03-.603-.351a.905.905 0 0 0-.805 0l-.603.352c-.226.125-.226.326 0 .452l.604.352a.905.905 0 0 0 .804 0l.603-.352c.2-.126.2-.327 0-.452Zm1.759 1.006-.603-.327a.905.905 0 0 0-.804 0l-.604.352c-.226.126-.226.327 0 .452l.604.352a.905.905 0 0 0 .804 0l.603-.352c.226-.125.226-.326 0-.477Zm12.44 7.187L29.725 42.53a.905.905 0 0 0-.804 0l-.603.352c-.226.126-.226.327 0 .453l11.258 6.508a.905.905 0 0 0 .804 0l.603-.352c.226-.1.226-.326 0-.452Zm1.784 1.03-.604-.351a.905.905 0 0 0-.804 0l-.603.351c-.226.126-.226.327 0 .453l.603.352a.905.905 0 0 0 .804 0l.604-.352c.226-.126.226-.327 0-.453Zm1.784 1.03-.603-.351a.905.905 0 0 0-.805 0l-.603.352c-.226.125-.226.327 0 .452l.603.352a.905.905 0 0 0 .805 0l.603-.352c.226-.126.2-.327 0-.452Zm1.81 1.056-.604-.352a.905.905 0 0 0-.804 0l-.603.352c-.226.126-.226.327 0 .453l.603.351a.905.905 0 0 0 .804 0l.603-.351c.226-.126.226-.327 0-.453Zm9.698-4.874L32.516 33.683c-.905-.528-1.66-1.935-1.66-3.141V12.047c0-1.206.73-1.784 1.66-1.256l23.546 13.595c.905.528 1.659 1.935 1.659 3.141v18.47c0 1.257-.754 1.81-1.659 1.282Z"/>
  <path fill="#084C94" d="M56.289 46.324 32.993 32.88c-.729-.478-1.181-1.407-1.181-2.362V11.972c0-.226.251-.377.452-.252.025.025.05.025.05.025l23.321 13.47c.88.503 1.181 1.407 1.181 2.362v18.521a.313.313 0 0 1-.477.277l-.05-.05Z"/>
  <path fill="#022652" d="m55.61 25.215-23.32-13.47s-.025-.025-.05-.025a.296.296 0 0 0-.453.252v18.546c0 .955.452 1.884 1.181 2.362l23.296 13.444s.025.026.05.026c.201.125.477-.026.477-.277v-18.52c0-.956-.301-1.835-1.18-2.338Zm1.006 20.858c0 .075-.076.126-.126.126-.025 0-.05 0-.076-.025l-23.32-13.47c-.654-.427-1.106-1.282-1.106-2.186V11.972c0-.076.05-.1.1-.1.026 0 .026 0 .05.024L55.51 25.391c.904.528 1.106 1.483 1.106 2.186v18.496Z"/>
  <path fill="#3F92D1" d="M56.54 24.16 32.993 10.564c-.351-.2-.703-.251-.955-.15-.025.025-.502.25-.527.276.276-.126.628-.1 1.03.126L56.088 24.41c.905.528 1.658 1.935 1.658 3.141v18.47c0 .755-.276 1.257-.728 1.408.025 0 .075 0 .15-.05.026 0 .528-.302.528-.302.302-.226.503-.678.503-1.306V27.326c-.025-1.231-.754-2.639-1.659-3.166Z"/>
  <path fill="#4F9FDB" d="M56.54 24.16 32.993 10.564c-.351-.2-.703-.251-.955-.15-.025.025-.502.25-.527.276.276-.126.628-.1 1.03.126L56.088 24.41l.452-.251Z"/>
  <path fill="#fff" d="M56.138 24.36 32.617 10.766c-.377-.226-.73-.251-1.006-.125.226-.025.503.025.805.176l23.521 13.62c.905.528 1.659 1.935 1.659 3.141v18.47c0 .73-.252 1.207-.654 1.383.503-.075.855-.603.855-1.432v-18.47c0-1.232-.729-2.64-1.659-3.167Z"/>
</svg>
