<svg width="19" height="15" viewBox="0 0 19 15" fill="none" xmlns="http://www.w3.org/2000/svg">
<path d="M0.550128 5.073C1.71338 3.1785 4.35938 0 9.00338 0C13.6474 0 16.2934 3.1785 17.4566 5.073C17.8162 5.65463 18.0067 6.32493 18.0067 7.00875C18.0067 7.69257 17.8162 8.36287 17.4566 8.9445C16.2934 10.839 13.6474 14.0175 9.00338 14.0175C4.35938 14.0175 1.71338 10.839 0.550128 8.9445C0.190524 8.36287 4.33917e-05 7.69257 4.33917e-05 7.00875C4.33917e-05 6.32493 0.190524 5.65463 0.550128 5.073V5.073ZM1.82888 8.15925C2.82788 9.78375 5.08913 12.5175 9.00338 12.5175C12.9176 12.5175 15.1789 9.78375 16.1779 8.15925C16.3915 7.81353 16.5047 7.41516 16.5047 7.00875C16.5047 6.60235 16.3915 6.20397 16.1779 5.85825C15.1789 4.23375 12.9176 1.5 9.00338 1.5C5.08913 1.5 2.82788 4.23075 1.82888 5.85825C1.61523 6.20397 1.50207 6.60235 1.50207 7.00875C1.50207 7.41516 1.61523 7.81353 1.82888 8.15925V8.15925Z" fill="#06506B"/>
<path d="M9.00329 3.25879C9.74497 3.25879 10.47 3.47872 11.0867 3.89078C11.7034 4.30283 12.184 4.8885 12.4678 5.57373C12.7517 6.25895 12.8259 7.01295 12.6812 7.74038C12.5365 8.46781 12.1794 9.13599 11.6549 9.66044C11.1305 10.1849 10.4623 10.542 9.73488 10.6867C9.00745 10.8314 8.25345 10.7572 7.56823 10.4733C6.88301 10.1895 6.29734 9.70886 5.88528 9.09218C5.47323 8.47549 5.2533 7.75047 5.2533 7.00879C5.25449 6.01459 5.64996 5.06146 6.35296 4.35845C7.05596 3.65545 8.0091 3.25998 9.00329 3.25879V3.25879ZM9.00329 9.25879C9.4483 9.25879 9.88332 9.12683 10.2533 8.8796C10.6233 8.63236 10.9117 8.28096 11.082 7.86983C11.2523 7.45869 11.2969 7.00629 11.2101 6.56984C11.1232 6.13338 10.909 5.73247 10.5943 5.4178C10.2796 5.10313 9.8787 4.88884 9.44225 4.80202C9.00579 4.71521 8.55339 4.75976 8.14226 4.93006C7.73112 5.10036 7.37972 5.38875 7.13249 5.75876C6.88525 6.12877 6.75329 6.56378 6.75329 7.00879C6.75329 7.60553 6.99035 8.17782 7.4123 8.59978C7.83426 9.02174 8.40656 9.25879 9.00329 9.25879Z" fill="#06506B"/>
</svg>
