<svg width="44" height="44" viewBox="0 0 44 44" fill="none" xmlns="http://www.w3.org/2000/svg">
<path d="M44 22C44 34.1503 34.1503 44 22 44C9.84973 44 0 34.1503 0 22C0 9.84973 9.84973 0 22 0C34.1503 0 44 9.84973 44 22Z" fill="#80D9EB"/>
<path d="M21.75 22.4113V8.87502C21.75 8.53002 21.47 8.25 21.125 8.25C13.8875 8.25 8 14.6988 8 22.625C8 30.5512 14.4488 37 22.375 37C25.9212 37 27.84 36.3575 30.2725 34.3575C30.5338 34.1425 30.5762 33.7587 30.3688 33.4912L21.75 22.4113ZM22.375 35.75C15.1375 35.75 9.24998 29.8625 9.24998 22.625C9.24998 15.62 14.2412 9.87879 20.5 9.51756V22.625C20.5 22.7638 20.5462 22.8988 20.6325 23.0088L29.0025 33.77C27.0287 35.2775 25.3825 35.75 22.375 35.75Z" fill="#0084C8"/>
<path d="M20.5002 23V9.5C17.3546 9.96305 15.6711 10.7154 13.0002 13C10.3293 15.2846 10.0002 18.5 10.0002 18.5C9.47199 21.3256 8.76435 23.6945 10.5002 28C12.4774 31.8483 14.415 33.4469 19.5002 35.5C24.4626 35.979 26.8028 35.6409 29.0002 33.5L20.5002 23Z" fill="white"/>
<path d="M23.625 22H37.375C37.72 22 38.0001 21.72 38.0001 21.375C38 13.4488 31.5512 7 23.625 7C23.28 7 23 7.28002 23 7.62502V21.375C23 21.72 23.28 22 23.625 22ZM24.25 8.26498C30.9913 8.5825 36.4175 14.0088 36.735 20.75H24.25V8.26498Z" fill="#0084C8"/>
<path d="M24.2002 20.8002V8.2002C25.4405 8.49301 26.2488 8.35931 27.5002 8.8002C29.7922 9.60769 31.1288 10.3288 32.9002 12.1002C34.7659 13.9659 35.4139 15.0636 36.2002 17.5002C36.5686 18.6419 36.5774 19.6785 36.8002 20.8002H24.2002Z" fill="#FFB727"/>
<path d="M37.3752 23.25H24.8752C24.6352 23.25 24.414 23.3887 24.3102 23.6062C24.2064 23.8237 24.2377 24.0813 24.3889 24.2675L32.514 34.3262C32.6227 34.4624 32.7827 34.5449 32.9565 34.5575C32.9715 34.5587 32.9852 34.5587 33.0002 34.5587C33.1577 34.5587 33.3103 34.4987 33.4265 34.3912C36.3327 31.68 38.0002 27.8475 38.0002 23.875C38.0002 23.53 37.7202 23.25 37.3752 23.25ZM33.054 33.005L26.184 24.5H36.7352C36.5815 27.6775 35.2665 30.7162 33.054 33.005Z" fill="#0084C8"/>
</svg>
