<svg width="48" height="52" viewBox="0 0 48 52" fill="none" xmlns="http://www.w3.org/2000/svg">
<path d="M29.4565 51.076C29.3811 51.076 29.3309 51.0258 29.3309 50.9504C29.3309 50.875 29.3811 50.8247 29.4565 50.8247C29.6073 50.8247 29.7832 50.7996 29.934 50.7745C30.0094 50.7493 30.0596 50.8247 30.0848 50.875C30.0848 50.9504 30.0345 51.0006 29.9842 51.0258C29.8083 51.0509 29.6324 51.076 29.4565 51.076C29.4565 51.076 29.4816 51.076 29.4565 51.076ZM28.7277 51.0509C28.7026 51.0509 28.7026 51.0509 28.7277 51.0509C28.5267 51.0257 28.3759 51.0006 28.2 50.9504C28.1246 50.9252 28.0995 50.875 28.0995 50.7996C28.1246 50.7242 28.1749 50.6991 28.2503 50.6991C28.401 50.7493 28.5518 50.7744 28.7277 50.7996C28.8031 50.7996 28.8534 50.875 28.8283 50.9504C28.8283 51.0006 28.778 51.0509 28.7277 51.0509ZM30.6879 50.875C30.6376 50.875 30.5874 50.8498 30.5622 50.7745C30.5371 50.6991 30.5874 50.6488 30.6376 50.6237C30.7884 50.5734 30.9392 50.5231 31.09 50.4729C31.1653 50.4478 31.2156 50.4729 31.2659 50.5483C31.291 50.6237 31.2659 50.6739 31.1905 50.7242C31.0397 50.7996 30.8638 50.8498 30.713 50.9001C30.713 50.875 30.713 50.875 30.6879 50.875ZM27.5215 50.6739C27.4964 50.6739 27.4712 50.6739 27.4712 50.6488L27.5215 50.5483L27.4461 50.6488L27.0189 50.3975C26.9686 50.3724 26.9435 50.297 26.9686 50.2216C26.9938 50.1713 27.0691 50.1462 27.1445 50.1713L27.5718 50.4226C27.622 50.4478 27.6471 50.5483 27.622 50.5985C27.622 50.6488 27.5717 50.6739 27.5215 50.6739ZM31.8439 50.3724C31.7936 50.3724 31.7685 50.3472 31.7433 50.3221C31.7182 50.2718 31.7182 50.1965 31.7936 50.1462L32.2208 49.8949C32.2711 49.8698 32.3465 49.8698 32.3967 49.9452C32.4218 49.9954 32.4218 50.0708 32.3465 50.1211L31.9192 50.3724C31.869 50.3724 31.8439 50.3724 31.8439 50.3724ZM26.4409 50.0457C26.4158 50.0457 26.3906 50.0457 26.3906 50.0206L25.9634 49.7693C25.9132 49.7441 25.888 49.6687 25.9132 49.5933C25.9383 49.5431 26.0137 49.5179 26.0891 49.5431L26.5163 49.7944C26.5665 49.8195 26.5917 49.8949 26.5665 49.9703C26.5163 50.0205 26.4912 50.0457 26.4409 50.0457ZM32.9244 49.7441C32.8742 49.7441 32.8491 49.719 32.8239 49.6939C32.7988 49.6436 32.7988 49.5682 32.8742 49.5179L33.3014 49.2666C33.3517 49.2415 33.427 49.2415 33.4773 49.3169C33.5024 49.3672 33.5024 49.4426 33.427 49.4928L32.9998 49.7441C32.9496 49.7441 32.9496 49.7441 32.9244 49.7441ZM25.3603 49.4174C25.3352 49.4174 25.31 49.4174 25.31 49.3923L24.8828 49.141C24.8326 49.1159 24.8074 49.0405 24.8326 48.9651C24.8577 48.9148 24.9331 48.8897 25.0085 48.9148L25.4357 49.1661C25.486 49.1913 25.5111 49.2666 25.486 49.342C25.4357 49.3923 25.3854 49.4174 25.3603 49.4174ZM34.005 49.1159C33.9548 49.1159 33.9296 49.0907 33.9045 49.0656C33.8794 49.0153 33.8794 48.94 33.9548 48.8897L34.382 48.6384C34.4322 48.6133 34.5076 48.6133 34.5579 48.6887C34.583 48.7389 34.583 48.8143 34.5076 48.8646L34.0804 49.1159C34.0553 49.1159 34.0302 49.1159 34.005 49.1159ZM24.2797 48.7892C24.2546 48.7892 24.2295 48.7892 24.2295 48.764L23.8022 48.5127C23.752 48.4876 23.7269 48.4122 23.752 48.3368C23.7771 48.2866 23.8525 48.2614 23.9279 48.2866L24.3551 48.5379C24.4054 48.563 24.4305 48.6384 24.4054 48.7138C24.3551 48.7892 24.3048 48.7892 24.2797 48.7892ZM35.0856 48.4876C35.0354 48.4876 35.0102 48.4625 34.9851 48.4374C34.96 48.3871 34.96 48.3117 35.0354 48.2614L35.4626 48.0101C35.5128 47.985 35.5882 47.985 35.6385 48.0604C35.6636 48.1107 35.6636 48.1861 35.5882 48.2363L35.161 48.4876C35.1359 48.4876 35.1108 48.4876 35.0856 48.4876ZM23.1991 48.1861C23.174 48.1861 23.1489 48.1861 23.1489 48.1609L22.7217 47.9096C22.6714 47.8845 22.6463 47.8091 22.6714 47.7337C22.6965 47.6835 22.7719 47.6583 22.8473 47.6835L23.2745 47.9348C23.3248 47.9599 23.3499 48.0353 23.3248 48.1107C23.2745 48.1609 23.2243 48.1861 23.1991 48.1861ZM36.1662 47.8594C36.116 47.8594 36.0908 47.8342 36.0657 47.8091C36.0406 47.7588 36.0406 47.6835 36.116 47.6332L36.5432 47.3819C36.5934 47.3568 36.6688 47.3568 36.7191 47.4322C36.7442 47.4824 36.7442 47.5578 36.6688 47.6081L36.2416 47.8594C36.2165 47.8594 36.1914 47.8594 36.1662 47.8594ZM22.0934 47.5578C22.0683 47.5578 22.0431 47.5578 22.0431 47.5327L21.6159 47.2814C21.5657 47.2562 21.5405 47.1809 21.5657 47.1055C21.5908 47.0552 21.6662 47.0301 21.7416 47.0552L22.1688 47.3065C22.2191 47.3316 22.2442 47.407 22.2191 47.4824C22.1939 47.5327 22.1437 47.5578 22.0934 47.5578ZM37.2468 47.2311C37.1966 47.2311 37.1714 47.206 37.1463 47.1809C37.1212 47.1306 37.1212 47.0552 37.1966 47.0049L37.6238 46.7536C37.674 46.7285 37.7494 46.7285 37.7997 46.8039C37.8248 46.8542 37.8248 46.9296 37.7494 46.9798L37.3222 47.2311C37.2971 47.2311 37.2719 47.2311 37.2468 47.2311ZM21.0128 46.9296C20.9877 46.9296 20.9626 46.9296 20.9626 46.9044L20.5353 46.6531C20.4851 46.628 20.4599 46.5526 20.4851 46.4772C20.5102 46.427 20.5856 46.4018 20.661 46.427L21.0882 46.6783C21.1385 46.7034 21.1636 46.7788 21.1385 46.8542C21.1133 46.9044 21.0631 46.9296 21.0128 46.9296ZM38.3274 46.6029C38.2771 46.6029 38.252 46.5777 38.2269 46.5526C38.2018 46.5023 38.2018 46.427 38.2771 46.3767L38.7044 46.1254C38.7546 46.1003 38.83 46.1003 38.8803 46.1757C38.9054 46.2259 38.9054 46.3013 38.83 46.3516L38.4028 46.6029C38.3777 46.6029 38.3525 46.6029 38.3274 46.6029ZM19.9322 46.3013C19.9071 46.3013 19.882 46.3013 19.882 46.2762L19.4547 46.0249C19.4045 45.9997 19.3794 45.9244 19.4045 45.849C19.4296 45.7987 19.505 45.7736 19.5804 45.7987L20.0076 46.05C20.0579 46.0751 20.083 46.1505 20.0579 46.2259C20.0327 46.2762 19.9825 46.3013 19.9322 46.3013ZM39.408 45.9997C39.3577 45.9997 39.3326 45.9746 39.3075 45.9495C39.2823 45.8992 39.2823 45.8238 39.3577 45.7736L39.7849 45.5223C39.8352 45.4971 39.9106 45.4971 39.9609 45.5725C39.986 45.6228 39.986 45.6982 39.9106 45.7484L39.4834 45.9997C39.4583 45.9746 39.4331 45.9997 39.408 45.9997ZM18.8516 45.6731C18.8265 45.6731 18.8014 45.6731 18.8014 45.6479L18.3742 45.3966C18.3239 45.3715 18.2988 45.2961 18.3239 45.2207C18.349 45.1705 18.4244 45.1453 18.4998 45.1705L18.927 45.4218C18.9773 45.4469 19.0024 45.5223 18.9773 45.5977C18.9521 45.6479 18.9019 45.6731 18.8516 45.6731ZM40.4886 45.3715C40.4383 45.3715 40.4132 45.3464 40.3881 45.3212C40.3629 45.271 40.3629 45.1956 40.4383 45.1453L40.8655 44.894C40.9158 44.8689 40.9912 44.8689 41.0414 44.9443C41.0666 44.9945 41.0666 45.0699 40.9912 45.1202L40.564 45.3715C40.5388 45.3464 40.5137 45.3715 40.4886 45.3715ZM17.771 45.0448C17.7459 45.0448 17.7208 45.0448 17.7208 45.0197L17.2936 44.7684C17.2433 44.7432 17.2182 44.6679 17.2433 44.5925C17.2684 44.5422 17.3438 44.5171 17.4192 44.5422L17.8464 44.7935C17.8967 44.8186 17.9218 44.894 17.8967 44.9694C17.8464 45.0197 17.8213 45.0448 17.771 45.0448ZM41.5943 44.7432C41.544 44.7432 41.5189 44.7181 41.4938 44.693C41.4687 44.6427 41.4687 44.5673 41.544 44.5171L41.9713 44.2658C42.0215 44.2406 42.0969 44.2406 42.1472 44.316C42.1723 44.3663 42.1723 44.4417 42.0969 44.4919L41.6697 44.7432C41.6194 44.7432 41.5943 44.7432 41.5943 44.7432ZM16.6904 44.4166C16.6653 44.4166 16.6402 44.4166 16.6402 44.3914L16.213 44.1401C16.1627 44.115 16.1376 44.0396 16.1627 43.9642C16.1878 43.914 16.2632 43.8888 16.3386 43.914L16.7658 44.1653C16.8161 44.1904 16.8412 44.2658 16.8161 44.3412C16.7658 44.3914 16.7407 44.4166 16.6904 44.4166ZM42.6749 44.115C42.6246 44.115 42.5995 44.0899 42.5744 44.0647C42.5492 44.0145 42.5492 43.9391 42.6246 43.8888L43.0518 43.6375C43.1021 43.6124 43.1775 43.6124 43.2278 43.6878C43.2529 43.738 43.2529 43.8134 43.1775 43.8637L42.7503 44.115C42.7 44.115 42.7 44.115 42.6749 44.115ZM15.6099 43.7883C15.5847 43.7883 15.5596 43.7883 15.5596 43.7632L15.1324 43.5119C15.0821 43.4867 15.057 43.4114 15.0821 43.336C15.1073 43.2857 15.1826 43.2606 15.258 43.2857L15.6852 43.537C15.7355 43.5621 15.7606 43.6375 15.7355 43.7129C15.6852 43.7632 15.635 43.7883 15.6099 43.7883ZM43.7555 43.4867C43.7052 43.4867 43.6801 43.4616 43.655 43.4365C43.6298 43.3862 43.6298 43.3108 43.7052 43.2606L44.1324 43.0093C44.1827 42.9841 44.2581 42.9841 44.3084 43.0595C44.3335 43.1098 44.3335 43.1852 44.2581 43.2354L43.8309 43.4867C43.7806 43.4867 43.7806 43.4867 43.7555 43.4867ZM14.5293 43.1852C14.5041 43.1852 14.479 43.1852 14.479 43.1601L14.0518 42.9088C14.0015 42.8836 13.9764 42.8082 14.0015 42.7328C14.0267 42.6826 14.1021 42.6574 14.1774 42.6826L14.6047 42.9339C14.6549 42.959 14.68 43.0344 14.6549 43.1098C14.6047 43.1601 14.5544 43.1852 14.5293 43.1852ZM44.8361 42.8585C44.7858 42.8585 44.7607 42.8334 44.7356 42.8082C44.7104 42.758 44.7104 42.6826 44.7858 42.6323L45.213 42.381C45.2633 42.3559 45.3387 42.3559 45.3889 42.4313C45.4141 42.4815 45.4141 42.5569 45.3387 42.6072L44.9115 42.8585C44.8863 42.8585 44.8612 42.8585 44.8361 42.8585ZM13.4487 42.5569C13.4235 42.5569 13.3984 42.5569 13.3984 42.5318L12.9712 42.2805C12.9209 42.2554 12.8958 42.18 12.9209 42.1046C12.9461 42.0543 13.0215 42.0292 13.0969 42.0543L13.5241 42.3056C13.5743 42.3308 13.5995 42.4062 13.5743 42.4815C13.5241 42.5318 13.4738 42.5569 13.4487 42.5569ZM45.9167 42.2302C45.8664 42.2302 45.8413 42.2051 45.8162 42.18C45.791 42.1297 45.791 42.0543 45.8664 42.0041L46.2936 41.7528C46.3439 41.7276 46.4193 41.7276 46.4695 41.803C46.4947 41.8533 46.4947 41.9287 46.4193 41.9789L45.9921 42.2302C45.9669 42.2302 45.9418 42.2302 45.9167 42.2302ZM12.343 41.9287C12.3178 41.9287 12.2927 41.9287 12.2927 41.9035L11.8655 41.6522C11.8152 41.6271 11.7901 41.5517 11.8152 41.4763C11.8403 41.4261 11.9157 41.4009 11.9911 41.4261L12.4183 41.6774C12.4686 41.7025 12.4937 41.7779 12.4686 41.8533C12.4435 41.9036 12.3932 41.9287 12.343 41.9287ZM46.9721 41.5769C46.947 41.5769 46.8967 41.5517 46.8716 41.5266C46.8214 41.4763 46.8465 41.4009 46.8967 41.3507C47.0224 41.2502 47.1229 41.1245 47.2234 41.024C47.2737 40.9737 47.3491 40.9486 47.3993 40.9989C47.4496 41.0491 47.4747 41.1245 47.4245 41.1748C47.324 41.3004 47.1983 41.4512 47.0475 41.5517C47.0224 41.5769 46.9973 41.5769 46.9721 41.5769ZM11.2624 41.3004C11.2372 41.3004 11.2121 41.3004 11.2121 41.2753L10.7849 41.024C10.7346 40.9989 10.7095 40.9235 10.7346 40.8481C10.7598 40.7978 10.8351 40.7727 10.9105 40.7978L11.3377 41.0491C11.388 41.0743 11.4131 41.1496 11.388 41.225C11.3629 41.2753 11.3126 41.3004 11.2624 41.3004ZM10.1818 40.6722C10.1566 40.6722 10.1315 40.6722 10.1315 40.647L9.7043 40.3957C9.65404 40.3706 9.62891 40.2952 9.65404 40.2198C9.67917 40.1696 9.75456 40.1444 9.82995 40.1696L10.2572 40.4209C10.3074 40.446 10.3325 40.5214 10.3074 40.5968C10.2823 40.647 10.232 40.6722 10.1818 40.6722ZM47.5753 40.5214C47.4999 40.5214 47.4496 40.4711 47.4496 40.3957C47.4496 40.245 47.3993 40.1193 47.324 39.9937C47.2988 39.9434 47.2988 39.868 47.3742 39.8178C47.4245 39.7926 47.4999 39.7926 47.5501 39.868C47.6506 40.0439 47.7009 40.2198 47.7009 40.3957C47.7009 40.4711 47.6255 40.5214 47.5753 40.5214ZM9.10118 40.0439C9.07605 40.0439 9.05092 40.0439 9.05092 40.0188L8.62371 39.7675C8.57345 39.7424 8.54832 39.667 8.57345 39.5916C8.59858 39.5413 8.67397 39.5162 8.74936 39.5413L9.17657 39.7926C9.22683 39.8178 9.25196 39.8931 9.22683 39.9685C9.2017 40.0188 9.15144 40.0439 9.10118 40.0439ZM46.8967 39.5413C46.8716 39.5413 46.8465 39.5413 46.8214 39.5162L46.3941 39.2649C46.3439 39.2398 46.3188 39.1644 46.3439 39.089C46.369 39.0387 46.4444 39.0136 46.5198 39.0387L46.947 39.29C46.9973 39.3152 47.0224 39.4157 46.9973 39.4659C46.9721 39.5162 46.9219 39.5413 46.8967 39.5413ZM8.02058 39.4157C7.99545 39.4157 7.97032 39.4157 7.97032 39.3905L7.54311 39.1392C7.49285 39.1141 7.46772 39.0387 7.49285 38.9633C7.51798 38.9131 7.59337 38.8879 7.66876 38.9131L8.09597 39.1644C8.14623 39.1895 8.17136 39.2649 8.14623 39.3403C8.09597 39.3905 8.07084 39.4157 8.02058 39.4157ZM45.8162 38.9131C45.791 38.9131 45.7659 38.9131 45.7659 38.8879L45.3387 38.6366C45.2884 38.6115 45.2633 38.5361 45.2884 38.4607C45.3136 38.4105 45.3889 38.3853 45.4643 38.4105L45.8915 38.6618C45.9418 38.6869 45.9669 38.7623 45.9418 38.8377C45.8915 38.8879 45.8413 38.9131 45.8162 38.9131ZM6.93999 38.7874C6.91486 38.7874 6.88973 38.7874 6.88973 38.7623L6.46252 38.511C6.41226 38.4859 6.38713 38.4105 6.41226 38.3351C6.43739 38.2848 6.51278 38.2597 6.58817 38.2848L7.01538 38.5361C7.06564 38.5613 7.09077 38.6366 7.06564 38.712C7.01538 38.7623 6.99025 38.7874 6.93999 38.7874ZM44.7356 38.2848C44.7104 38.2848 44.6853 38.2848 44.6853 38.2597L44.2581 38.0084C44.2078 37.9833 44.1827 37.9079 44.2078 37.8325C44.233 37.7822 44.3084 37.7571 44.3837 37.7822L44.811 38.0335C44.8612 38.0587 44.8863 38.134 44.8612 38.2094C44.811 38.2597 44.7607 38.2848 44.7356 38.2848ZM5.8594 38.1592C5.83427 38.1592 5.80914 38.1592 5.80914 38.134L5.38193 37.8827C5.33167 37.8576 5.30654 37.7822 5.33167 37.7068C5.3568 37.6566 5.43219 37.6314 5.50758 37.6566L5.93479 37.9079C5.98505 37.933 6.01018 38.0084 5.98505 38.0838C5.93479 38.1592 5.90966 38.1592 5.8594 38.1592ZM43.6298 37.6566C43.6047 37.6566 43.5796 37.6566 43.5796 37.6314L43.1524 37.3801C43.1021 37.355 43.077 37.2796 43.1021 37.2042C43.1272 37.154 43.2026 37.1288 43.278 37.154L43.7052 37.4053C43.7555 37.4304 43.7806 37.5058 43.7555 37.5812C43.7304 37.6314 43.6801 37.6566 43.6298 37.6566ZM4.77881 37.5561C4.75368 37.5561 4.72855 37.5561 4.72855 37.5309L4.30134 37.2796C4.25108 37.2545 4.22595 37.1791 4.25108 37.1037C4.27621 37.0535 4.3516 37.0283 4.42699 37.0535L4.8542 37.3048C4.90446 37.3299 4.92959 37.4053 4.90446 37.4807C4.8542 37.5309 4.80394 37.5561 4.77881 37.5561ZM42.5492 37.0283C42.5241 37.0283 42.499 37.0283 42.499 37.0032L42.0718 36.7519C42.0215 36.7268 41.9964 36.6514 42.0215 36.576C42.0466 36.5257 42.122 36.5006 42.1974 36.5257L42.6246 36.777C42.6749 36.8022 42.7 36.8775 42.6749 36.9529C42.6498 37.0032 42.5995 37.0283 42.5492 37.0283ZM3.69822 36.9278C3.67309 36.9278 3.64796 36.9278 3.64796 36.9027L3.22075 36.6514C3.17049 36.6262 3.14536 36.5509 3.17049 36.4755C3.19562 36.4252 3.27101 36.4001 3.3464 36.4252L3.77361 36.6765C3.82387 36.7016 3.849 36.777 3.82387 36.8524C3.77361 36.9027 3.72335 36.9278 3.69822 36.9278ZM41.4687 36.4001C41.4435 36.4001 41.4184 36.4001 41.4184 36.3749L40.9912 36.1236C40.9409 36.0985 40.9158 36.0231 40.9409 35.9477C40.9661 35.8975 41.0414 35.8723 41.1168 35.8975L41.544 36.1488C41.5943 36.1739 41.6194 36.2493 41.5943 36.3247C41.5692 36.3749 41.5189 36.4001 41.4687 36.4001ZM2.5925 36.2996C2.56737 36.2996 2.54224 36.2996 2.54224 36.2744L2.11503 36.0231C2.06477 35.998 2.03964 35.9226 2.06477 35.8472C2.0899 35.797 2.16529 35.7718 2.24068 35.797L2.66789 36.0483C2.71815 36.0734 2.74328 36.1488 2.71815 36.2242C2.69302 36.2744 2.64276 36.2996 2.5925 36.2996ZM40.3881 35.7718C40.3629 35.7718 40.3378 35.7718 40.3378 35.7467L39.9106 35.4954C39.8603 35.4703 39.8352 35.3949 39.8603 35.3195C39.8855 35.2692 39.9609 35.2441 40.0362 35.2692L40.4635 35.5205C40.5137 35.5456 40.5388 35.621 40.5137 35.6964C40.4886 35.7467 40.4383 35.7718 40.3881 35.7718ZM1.51191 35.6713C1.48678 35.6713 1.46165 35.6713 1.46165 35.6462L1.03443 35.3949C0.984175 35.3697 0.959045 35.2692 0.984175 35.219C1.00931 35.1687 1.10983 35.1436 1.16009 35.1687L1.5873 35.42C1.63756 35.4451 1.66269 35.5205 1.63756 35.5959C1.61243 35.6462 1.56217 35.6713 1.51191 35.6713ZM39.3075 35.1436C39.2823 35.1436 39.2572 35.1436 39.2572 35.1184L38.83 34.8671C38.7797 34.842 38.7546 34.7666 38.7797 34.6912C38.8049 34.641 38.8803 34.6158 38.9557 34.641L39.3829 34.8923C39.4331 34.9174 39.4583 34.9928 39.4331 35.0682C39.3829 35.1184 39.3577 35.1436 39.3075 35.1436ZM0.556964 34.8923C0.506704 34.8923 0.481574 34.8671 0.456444 34.842C0.355924 34.6661 0.305664 34.4902 0.305664 34.3143C0.305664 34.2389 0.355924 34.1886 0.431314 34.1886C0.506704 34.1886 0.556964 34.2389 0.556964 34.3143C0.556964 34.4651 0.607224 34.5907 0.682615 34.7164C0.707745 34.7666 0.707745 34.842 0.632354 34.8923C0.607224 34.8923 0.582094 34.8923 0.556964 34.8923ZM38.2269 34.5153C38.2018 34.5153 38.1766 34.5153 38.1766 34.4902L37.7494 34.2389C37.6992 34.2138 37.674 34.1384 37.6992 34.063C37.7243 34.0127 37.7997 33.9876 37.8751 34.0127L38.3023 34.264C38.3525 34.2891 38.3777 34.3645 38.3525 34.4399C38.3023 34.5153 38.2771 34.5153 38.2269 34.5153ZM37.1463 33.9122C37.1212 33.9122 37.096 33.9122 37.096 33.8871L36.6688 33.6358C36.6186 33.6106 36.5934 33.5352 36.6186 33.4599C36.6437 33.4096 36.7191 33.3845 36.7945 33.4096L37.2217 33.6609C37.2719 33.686 37.2971 33.7614 37.2719 33.8368C37.2217 33.8871 37.1714 33.9122 37.1463 33.9122ZM0.657485 33.7363C0.632355 33.7363 0.607225 33.7363 0.582094 33.7112C0.531834 33.6609 0.506704 33.5855 0.556964 33.5352C0.657485 33.4096 0.783135 33.2839 0.933915 33.1583C0.984175 33.108 1.05957 33.1332 1.10983 33.1834C1.16009 33.2337 1.13496 33.3091 1.0847 33.3593C0.959045 33.4599 0.858525 33.5855 0.758005 33.686C0.732875 33.7112 0.707745 33.7363 0.657485 33.7363ZM36.0657 33.2839C36.0406 33.2839 36.0154 33.2839 36.0154 33.2588L35.5882 33.0075C35.538 32.9824 35.5128 32.907 35.538 32.8316C35.5631 32.7813 35.6385 32.7562 35.7139 32.7813L36.1411 33.0326C36.1913 33.0578 36.2165 33.1332 36.1914 33.2086C36.1411 33.2588 36.0908 33.2839 36.0657 33.2839ZM1.63756 32.9573C1.5873 32.9573 1.56217 32.9321 1.53704 32.907C1.51191 32.8567 1.51191 32.7813 1.5873 32.7311L2.01451 32.4798C2.06477 32.4547 2.14016 32.4547 2.19042 32.53C2.21555 32.5803 2.21555 32.6557 2.14016 32.706L1.71295 32.9573C1.68782 32.9573 1.66269 32.9573 1.63756 32.9573ZM34.9851 32.6557C34.96 32.6557 34.9349 32.6557 34.9349 32.6306L34.5076 32.3793C34.4574 32.3541 34.4322 32.2787 34.4574 32.2034C34.4825 32.1531 34.5579 32.128 34.6333 32.1531L35.0605 32.4044C35.1108 32.4295 35.1359 32.5049 35.1108 32.5803C35.0605 32.6306 35.0102 32.6557 34.9851 32.6557ZM2.71815 32.329C2.66789 32.329 2.64276 32.3039 2.61763 32.2787C2.5925 32.2285 2.5925 32.1531 2.66789 32.1028L3.0951 31.8515C3.14536 31.8264 3.22075 31.8264 3.27101 31.9018C3.29614 31.9521 3.29614 32.0274 3.22075 32.0777L2.79354 32.329C2.76841 32.329 2.74328 32.329 2.71815 32.329ZM33.8794 32.0274C33.8543 32.0274 33.8291 32.0274 33.8291 32.0023L33.4019 31.751C33.3517 31.7259 33.3265 31.6505 33.3517 31.5751C33.3768 31.5248 33.4522 31.4997 33.5276 31.5248L33.9548 31.7761C34.005 31.8013 34.0302 31.8767 34.005 31.9521C33.9799 32.0023 33.9296 32.0274 33.8794 32.0274ZM3.79874 31.7008C3.74848 31.7008 3.72335 31.6756 3.69822 31.6505C3.67309 31.6002 3.67309 31.5248 3.74848 31.4746L4.17569 31.2233C4.22595 31.1982 4.30134 31.1982 4.3516 31.2735C4.37673 31.3238 4.37673 31.3992 4.30134 31.4495L3.87413 31.7008C3.849 31.7008 3.82387 31.7008 3.79874 31.7008ZM32.7988 31.3992C32.7737 31.3992 32.7485 31.3992 32.7485 31.3741L32.3213 31.1228C32.2711 31.0976 32.2459 31.0222 32.2711 30.9469C32.2962 30.8966 32.3716 30.8715 32.447 30.8966L32.8742 31.1479C32.9244 31.173 32.9496 31.2484 32.9244 31.3238C32.8993 31.3741 32.8491 31.3992 32.7988 31.3992ZM4.87933 31.0976C4.82907 31.0976 4.80394 31.0725 4.77881 31.0474C4.75368 30.9971 4.75368 30.9217 4.82907 30.8715L5.25628 30.6202C5.30654 30.595 5.38193 30.595 5.43219 30.6704C5.45732 30.7207 5.45732 30.7961 5.38193 30.8463L4.95472 31.0976C4.92959 31.0725 4.90446 31.0976 4.87933 31.0976ZM31.7182 30.7709C31.6931 30.7709 31.6679 30.7709 31.6679 30.7458L31.2407 30.4945C31.1905 30.4694 31.1653 30.394 31.1905 30.3186C31.2156 30.2683 31.291 30.2432 31.3664 30.2683L31.7936 30.5196C31.8439 30.5448 31.869 30.6202 31.8439 30.6956C31.8187 30.7458 31.7685 30.7709 31.7182 30.7709ZM5.95992 30.4694C5.90966 30.4694 5.88453 30.4443 5.8594 30.4191C5.83427 30.3689 5.83427 30.2935 5.90966 30.2432L6.33687 29.9919C6.38713 29.9668 6.46252 29.9668 6.51278 30.0422C6.53791 30.0924 6.53791 30.1678 6.46252 30.2181L6.03531 30.4694C6.01018 30.4443 5.98505 30.4694 5.95992 30.4694ZM30.6376 30.1427C30.6125 30.1427 30.5874 30.1427 30.5874 30.1176L30.1601 29.8663C30.1099 29.8411 30.0848 29.7657 30.1099 29.6904C30.135 29.6401 30.2104 29.615 30.2858 29.6401L30.713 29.8914C30.7633 29.9165 30.7884 29.9919 30.7633 30.0673C30.7381 30.1176 30.6879 30.1427 30.6376 30.1427ZM7.06564 29.8411C7.01538 29.8411 6.99025 29.816 6.96512 29.7909C6.93999 29.7406 6.93999 29.6652 7.01538 29.615L7.44259 29.3637C7.49285 29.3385 7.56824 29.3385 7.6185 29.4139C7.64363 29.4642 7.64363 29.5396 7.56824 29.5898L7.14103 29.8411C7.09077 29.8411 7.06564 29.8411 7.06564 29.8411ZM29.557 29.5144C29.5319 29.5144 29.5068 29.5144 29.5068 29.4893L29.0796 29.238C29.0293 29.2129 29.0042 29.1375 29.0293 29.0621C29.0544 29.0118 29.1298 28.9867 29.2052 29.0118L29.6324 29.2631C29.6827 29.2883 29.7078 29.3637 29.6827 29.4391C29.6324 29.4893 29.6073 29.5144 29.557 29.5144ZM8.14623 29.2129C8.09597 29.2129 8.07084 29.1878 8.04571 29.1626C8.02058 29.1124 8.02058 29.037 8.09597 28.9867L8.52319 28.7354C8.57345 28.7103 8.64884 28.7103 8.6991 28.7857C8.72423 28.8359 8.72423 28.9113 8.64884 28.9616L8.22162 29.2129C8.17136 29.2129 8.17136 29.2129 8.14623 29.2129ZM28.4764 28.8862C28.4513 28.8862 28.4262 28.8862 28.4262 28.8611L27.999 28.6098C27.9487 28.5846 27.9236 28.5092 27.9487 28.4339C27.9738 28.3836 28.0492 28.3585 28.1246 28.3836L28.5518 28.6349C28.6021 28.66 28.6272 28.7354 28.6021 28.8108C28.5518 28.8862 28.5267 28.8862 28.4764 28.8862ZM9.22683 28.5846C9.17657 28.5846 9.15144 28.5595 9.12631 28.5344C9.10118 28.4841 9.10118 28.4087 9.17657 28.3585L9.60378 28.1072C9.65404 28.082 9.72943 28.082 9.77969 28.1574C9.80482 28.2077 9.80482 28.2831 9.72943 28.3333L9.30222 28.5846C9.25196 28.5846 9.25196 28.5846 9.22683 28.5846ZM27.3958 28.2831C27.3707 28.2831 27.3456 28.2831 27.3456 28.2579L26.9184 28.0066C26.8681 27.9815 26.843 27.9061 26.8681 27.8307C26.8932 27.7805 26.9686 27.7553 27.044 27.7805L27.4712 28.0318C27.5215 28.0569 27.5466 28.1323 27.5215 28.2077C27.4712 28.2579 27.4461 28.2831 27.3958 28.2831ZM10.3074 27.9564C10.2572 27.9564 10.232 27.9313 10.2069 27.9061C10.1818 27.8559 10.1818 27.7805 10.2572 27.7302L10.6844 27.4789C10.7346 27.4538 10.81 27.4538 10.8603 27.5292C10.8854 27.5794 10.8854 27.6548 10.81 27.7051L10.3828 27.9564C10.3577 27.9564 10.3325 27.9564 10.3074 27.9564ZM26.3152 27.6548C26.2901 27.6548 26.265 27.6548 26.265 27.6297L25.8378 27.3784C25.7875 27.3533 25.7624 27.2779 25.7875 27.2025C25.8126 27.1522 25.888 27.1271 25.9634 27.1522L26.3906 27.4035C26.4409 27.4287 26.466 27.504 26.4409 27.5794C26.3906 27.6297 26.3404 27.6548 26.3152 27.6548ZM11.388 27.3281C11.3377 27.3281 11.3126 27.303 11.2875 27.2779C11.2624 27.2276 11.2624 27.1522 11.3377 27.102L11.765 26.8507C11.8152 26.8255 11.8906 26.8255 11.9409 26.9009C11.966 26.9512 11.966 27.0266 11.8906 27.0768L11.4634 27.3281C11.4383 27.3281 11.4131 27.3281 11.388 27.3281ZM25.2347 27.0266C25.2095 27.0266 25.1844 27.0266 25.1844 27.0014L24.7572 26.7501C24.7069 26.725 24.6818 26.6496 24.7069 26.5742C24.7321 26.524 24.8074 26.4988 24.8828 26.524L25.31 26.7753C25.3603 26.8004 25.3854 26.8758 25.3603 26.9512C25.31 27.0014 25.2598 27.0266 25.2347 27.0266ZM12.4686 26.6999C12.4183 26.6999 12.3932 26.6748 12.3681 26.6496C12.343 26.5994 12.343 26.524 12.4183 26.4737L12.8456 26.2224C12.8958 26.1973 12.9712 26.1973 13.0215 26.2727C13.0466 26.3229 13.0466 26.3983 12.9712 26.4486L12.544 26.6999C12.5189 26.6999 12.4937 26.6999 12.4686 26.6999ZM24.1289 26.3983C24.1038 26.3983 24.0787 26.3983 24.0787 26.3732L23.6515 26.1219C23.6012 26.0968 23.5761 26.0214 23.6012 25.946C23.6263 25.8957 23.7017 25.8706 23.7771 25.8957L24.2043 26.147C24.2546 26.1721 24.2797 26.2475 24.2546 26.3229C24.2295 26.3732 24.1792 26.3983 24.1289 26.3983ZM13.5492 26.0716C13.4989 26.0716 13.4738 26.0465 13.4487 26.0214C13.4235 25.9711 13.4235 25.8957 13.4989 25.8455L13.9261 25.5942C13.9764 25.569 14.0518 25.569 14.1021 25.6444C14.1272 25.6947 14.1272 25.7701 14.0518 25.8203L13.6246 26.0716C13.5995 26.0716 13.5743 26.0716 13.5492 26.0716ZM23.0483 25.7701C23.0232 25.7701 22.9981 25.7701 22.9981 25.7449L22.5709 25.4936C22.5206 25.4685 22.4955 25.3931 22.5206 25.3177C22.5457 25.2675 22.6211 25.2423 22.6965 25.2675L23.1237 25.5188C23.174 25.5439 23.1991 25.6193 23.174 25.6947C23.1489 25.7449 23.0986 25.7701 23.0483 25.7701ZM14.6298 25.4685C14.5795 25.4685 14.5544 25.4434 14.5293 25.4182C14.5041 25.368 14.5041 25.2926 14.5795 25.2423L15.0067 24.991C15.057 24.9659 15.1324 24.9659 15.1826 25.0413C15.2078 25.0916 15.2078 25.1669 15.1324 25.2172L14.7052 25.4685C14.68 25.4434 14.6549 25.4685 14.6298 25.4685ZM21.9678 25.1418C21.9426 25.1418 21.9175 25.1418 21.9175 25.1167L21.4903 24.8654C21.44 24.8403 21.4149 24.7649 21.44 24.6895C21.4652 24.6392 21.5405 24.6141 21.6159 24.6392L22.0431 24.8905C22.0934 24.9156 22.1185 24.991 22.0934 25.0664C22.0683 25.1167 22.018 25.1418 21.9678 25.1418ZM15.7104 24.8403C15.6601 24.8403 15.635 24.8151 15.6099 24.79C15.5847 24.7397 15.5847 24.6643 15.6601 24.6141L16.0873 24.3628C16.1376 24.3377 16.213 24.3377 16.2632 24.413C16.2884 24.4633 16.2884 24.5387 16.213 24.589L15.7858 24.8403C15.7606 24.8151 15.7355 24.8403 15.7104 24.8403ZM20.8872 24.5136C20.862 24.5136 20.8369 24.5136 20.8369 24.4884L20.4097 24.2371C20.3594 24.212 20.3343 24.1366 20.3594 24.0612C20.3846 24.011 20.46 23.9858 20.5353 24.011L20.9626 24.2623C21.0128 24.2874 21.0379 24.3628 21.0128 24.4382C20.9877 24.4884 20.9374 24.5136 20.8872 24.5136ZM16.8161 24.2371C16.7658 24.2371 16.7156 24.212 16.6904 24.1617C16.6653 24.0864 16.6904 24.0361 16.7658 23.9858C16.9166 23.9104 17.0925 23.8602 17.2433 23.8099C17.3187 23.7848 17.369 23.8351 17.3941 23.8853C17.4192 23.9607 17.369 24.011 17.3187 24.0361C17.1679 24.0864 17.0171 24.1366 16.8664 24.1869C16.8412 24.2371 16.8412 24.2371 16.8161 24.2371ZM19.7563 23.9858H19.7312C19.5804 23.9356 19.4296 23.9104 19.2537 23.8853C19.1783 23.8853 19.1281 23.8099 19.1532 23.7345C19.1532 23.6591 19.2286 23.6089 19.304 23.634C19.4799 23.6591 19.6558 23.6843 19.8066 23.7345C19.882 23.7597 19.9071 23.8099 19.9071 23.8853C19.8568 23.9607 19.8066 23.9858 19.7563 23.9858ZM18.0223 23.9104C17.9721 23.9104 17.8967 23.8602 17.8967 23.8099C17.8967 23.7345 17.9469 23.6843 17.9972 23.6591C18.1731 23.634 18.349 23.634 18.4998 23.6089C18.5752 23.6089 18.6255 23.6591 18.6255 23.7345C18.6255 23.8099 18.5752 23.8602 18.4998 23.8602C18.3742 23.8853 18.1982 23.8853 18.0223 23.9104Z" fill="#A8CFF0"/>
<path d="M27.5466 48.9906L3.12018 34.8926C2.69297 34.6413 2.4668 34.3146 2.4668 33.9628V32.7566C2.4668 32.3294 2.79349 33.0581 3.39661 32.7314L17.2684 24.715C18.3741 24.0616 20.0578 24.0113 21.0379 24.5642L45.4643 38.6621C45.791 38.838 46.0171 38.059 46.0925 38.3103C46.1177 38.3857 46.0925 39.4914 46.0925 39.5919C46.0925 40.0191 45.791 40.4715 45.1627 40.8484L31.2909 48.8649C30.2103 49.468 28.5266 49.5434 27.5466 48.9906Z" fill="#2672AB"/>
<path d="M27.5465 47.8092L3.12007 33.6861C2.16513 33.1332 2.26565 32.1531 3.3965 31.5249L17.2683 23.5084C18.374 22.855 20.0577 22.8048 21.0378 23.3576L45.4642 37.4556C46.4191 38.0084 46.3186 38.9885 45.1877 39.6168L31.316 47.6332C30.2102 48.2866 28.5265 48.362 27.5465 47.8092Z" fill="#D1EBFF"/>
<path opacity="0.5" d="M27.5464 48.9906C28.5013 49.5434 30.185 49.4681 31.3159 48.8398V47.6587C30.2102 48.3121 28.5265 48.3623 27.5464 47.8095V48.9906Z" fill="#3F92D1"/>
<path d="M27.5467 47.8094L3.12031 33.6864C2.64284 33.4099 2.4418 33.0581 2.46693 32.6812C2.46693 32.7063 2.46693 32.7314 2.46693 32.7565V33.9628C2.46693 34.3146 2.6931 34.6413 3.12031 34.8926L27.5467 48.9905V47.8094Z" fill="#3F92D1"/>
<path d="M45.188 39.4411L31.3162 47.4576C30.2105 48.111 28.5268 48.1612 27.5467 47.6084L3.12034 33.4853C2.71826 33.2591 2.51722 32.9575 2.46696 32.6309C2.4167 33.0329 2.61774 33.4099 3.12034 33.6863L27.5467 47.7843C28.5017 48.3371 30.1854 48.2617 31.3162 47.6335L45.188 39.617C45.8414 39.2401 46.143 38.7626 46.0927 38.3102C46.0424 38.7123 45.7409 39.1144 45.188 39.4411Z" fill="white"/>
<path opacity="0.3" d="M21.9928 42.8841L13.2978 37.8581C13.1219 37.7576 13.147 37.5817 13.3481 37.456L16.615 35.5713C16.816 35.4456 17.1176 35.4456 17.2935 35.5461L25.9885 40.5722C26.1644 40.6727 26.1393 40.8486 25.9382 40.9742L22.6713 42.859C22.4703 42.9595 22.1687 42.9846 21.9928 42.8841Z" fill="white"/>
<path d="M13.3483 37.6568L16.6152 35.7721C16.8162 35.6464 17.1178 35.6464 17.2937 35.747L25.9887 40.773C26.0138 40.7981 26.0389 40.8232 26.0641 40.8484C26.1395 40.7478 26.1143 40.6473 25.9887 40.5719L17.2937 35.5459C17.1178 35.4454 16.8162 35.4705 16.6152 35.5711L13.3483 37.4558C13.1975 37.5563 13.1472 37.682 13.2226 37.7825C13.2478 37.7322 13.298 37.7071 13.3483 37.6568Z" fill="#A8CFF0"/>
<path d="M19.4296 25.1669L20.9374 26.0213C21.1385 26.1219 21.44 26.1219 21.6159 26.0213C21.817 25.9208 21.7919 25.7449 21.6159 25.6193L20.1081 24.7648C19.9071 24.6643 19.6055 24.6643 19.4296 24.7648C19.2286 24.8905 19.2286 25.0664 19.4296 25.1669ZM21.9929 26.6496L22.6965 27.0517C22.8976 27.1522 23.1991 27.1522 23.375 27.0517C23.5761 26.9512 23.551 26.7752 23.375 26.6496L22.6714 26.2475C22.4704 26.147 22.1688 26.147 21.9929 26.2475C21.817 26.3732 21.817 26.5491 21.9929 26.6496ZM23.7771 27.6799L24.4808 28.082C24.6818 28.1825 24.9834 28.1825 25.1593 28.082C25.3603 27.9815 25.3352 27.8056 25.1593 27.6799L24.4556 27.2778C24.2546 27.1773 23.953 27.1773 23.7771 27.2778C23.5761 27.4035 23.5761 27.5794 23.7771 27.6799ZM25.5614 28.7103L26.265 29.1123C26.466 29.2129 26.7676 29.2129 26.9435 29.1123C27.1445 29.0118 27.1194 28.8359 26.9435 28.7103L26.2399 28.3082C26.0388 28.2077 25.7373 28.2077 25.5614 28.3082C25.3603 28.4087 25.3603 28.5846 25.5614 28.7103ZM27.3205 29.7406L28.0241 30.1427C28.2251 30.2432 28.5267 30.2432 28.7026 30.1427C28.9037 30.0421 28.8785 29.8662 28.7026 29.7406L27.999 29.3385C27.7979 29.238 27.4964 29.238 27.3205 29.3385C27.1445 29.439 27.1445 29.6149 27.3205 29.7406ZM29.1047 30.7458L29.8083 31.1479C30.0094 31.2484 30.3109 31.2484 30.4868 31.1479C30.6879 31.0474 30.6628 30.8714 30.4868 30.7458L29.7832 30.3437C29.5822 30.2432 29.2806 30.2432 29.1047 30.3437C28.9037 30.4694 28.9037 30.6453 29.1047 30.7458ZM30.8889 31.7761L31.5926 32.1782C31.7936 32.2787 32.0952 32.2787 32.2711 32.1782C32.4721 32.0777 32.447 31.9018 32.2711 31.7761L31.5674 31.374C31.3664 31.2735 31.0648 31.2735 30.8889 31.374C30.6879 31.4997 30.6879 31.6756 30.8889 31.7761ZM32.648 32.8065L33.3517 33.2085C33.5527 33.3091 33.8543 33.3091 34.0302 33.2085C34.2312 33.108 34.2061 32.9321 34.0302 32.8065L33.3265 32.4044C33.1255 32.3039 32.8239 32.3039 32.648 32.4044C32.4721 32.53 32.4721 32.7059 32.648 32.8065ZM34.4323 33.8368L35.1359 34.2389C35.3369 34.3394 35.6385 34.3394 35.8144 34.2389C36.0155 34.1383 35.9903 33.9624 35.8144 33.8368L35.1108 33.4347C34.9097 33.3342 34.6082 33.3342 34.4323 33.4347C34.2564 33.5352 34.2564 33.7363 34.4323 33.8368ZM36.2165 34.8671L36.9201 35.2692C37.1212 35.3697 37.4227 35.3697 37.5986 35.2692C37.7997 35.1687 37.7746 34.9928 37.5986 34.8671L36.895 34.465C36.694 34.3645 36.3924 34.3645 36.2165 34.465C36.0155 34.5656 36.0155 34.7415 36.2165 34.8671ZM38.0007 35.8974L38.7044 36.2995C38.9054 36.4 39.207 36.4 39.3829 36.2995C39.5588 36.199 39.5588 36.0231 39.3829 35.8974L38.6792 35.4954C38.4782 35.3948 38.1766 35.3948 38.0007 35.4954C37.7997 35.5959 37.7997 35.7718 38.0007 35.8974ZM39.7598 36.9026L40.4635 37.3047C40.6645 37.4052 40.9661 37.4052 41.142 37.3047C41.343 37.2042 41.3179 37.0283 41.142 36.9026L40.4383 36.5006C40.2373 36.4 39.9357 36.4 39.7598 36.5006C39.5839 36.6262 39.5839 36.8021 39.7598 36.9026ZM41.5943 37.9581L42.298 38.3602C42.499 38.4607 42.8006 38.4607 42.9765 38.3602C43.1775 38.2597 43.1524 38.0838 42.9765 37.9581L42.2728 37.556C42.0718 37.4555 41.7702 37.4555 41.5943 37.556C41.3933 37.6817 41.3933 37.8576 41.5943 37.9581ZM17.8213 26.147L18.4496 26.4988C18.6757 26.6245 19.0275 26.6245 19.2286 26.4988L19.8317 26.147C20.0579 26.0213 20.0579 25.8203 19.8317 25.6947L19.2286 25.3428C19.0024 25.2172 18.6506 25.2172 18.4496 25.3428L17.8464 25.6947C17.6203 25.8203 17.6203 26.0213 17.8213 26.147ZM21.0128 27.5291L21.6159 27.1773C21.8421 27.0517 21.8421 26.8506 21.6159 26.725L21.0128 26.3732C20.7866 26.2475 20.4348 26.2475 20.2338 26.3732L19.6307 26.725C19.4045 26.8506 19.4045 27.0517 19.6307 27.1773L20.2338 27.5291C20.4348 27.6548 20.7866 27.6548 21.0128 27.5291ZM21.3898 28.2077L21.9929 28.5595C22.2191 28.6851 22.5709 28.6851 22.7719 28.5595L23.375 28.2077C23.6012 28.082 23.6012 27.881 23.375 27.7553L22.7719 27.4035C22.5458 27.2778 22.1939 27.2778 21.9929 27.4035L21.3898 27.7553C21.1636 27.881 21.1636 28.082 21.3898 28.2077ZM23.174 29.238L23.7771 29.5898C24.0033 29.7155 24.3551 29.7155 24.5562 29.5898L25.1593 29.238C25.3854 29.1123 25.3854 28.9113 25.1593 28.7856L24.5562 28.4338C24.33 28.3082 23.9782 28.3082 23.7771 28.4338L23.174 28.7856C22.9478 28.9113 22.9478 29.1123 23.174 29.238ZM26.9435 29.816L26.3404 29.4642C26.1142 29.3385 25.7624 29.3385 25.5614 29.4642L24.9582 29.816C24.7321 29.9416 24.7321 30.1427 24.9582 30.2683L25.5614 30.6201C25.7875 30.7458 26.1393 30.7458 26.3404 30.6201L26.9435 30.2683C27.1697 30.1427 27.1697 29.9416 26.9435 29.816ZM28.7277 30.8212L28.1246 30.4694C27.8985 30.3437 27.5466 30.3437 27.3456 30.4694L26.7425 30.8212C26.5163 30.9468 26.5163 31.1479 26.7425 31.2735L27.3456 31.6253C27.5718 31.751 27.9236 31.751 28.1246 31.6253L28.7277 31.2735C28.9539 31.1479 28.9288 30.9468 28.7277 30.8212ZM30.512 31.8515L29.9089 31.4997C29.6827 31.374 29.3309 31.374 29.1298 31.4997L28.5267 31.8515C28.3005 31.9772 28.3005 32.1782 28.5267 32.3039L29.1298 32.6557C29.356 32.7813 29.7078 32.7813 29.9089 32.6557L30.512 32.3039C30.713 32.1782 30.713 31.9772 30.512 31.8515ZM32.2711 32.8818L31.668 32.53C31.4418 32.4044 31.09 32.4044 30.8889 32.53L30.2858 32.8818C30.0596 33.0075 30.0596 33.2085 30.2858 33.3342L30.8889 33.686C31.1151 33.8117 31.4669 33.8117 31.668 33.686L32.2711 33.3342C32.4972 33.2085 32.4972 33.0075 32.2711 32.8818ZM34.0553 33.9122L33.4522 33.5604C33.226 33.4347 32.8742 33.4347 32.6732 33.5604L32.07 33.9122C31.8439 34.0378 31.8439 34.2389 32.07 34.3645L32.6732 34.7163C32.8993 34.842 33.2511 34.842 33.4522 34.7163L34.0553 34.3645C34.2815 34.2389 34.2815 34.0378 34.0553 33.9122ZM35.8395 34.9425L35.2364 34.5907C35.0103 34.465 34.6584 34.465 34.4574 34.5907L33.8543 34.9425C33.6281 35.0682 33.6281 35.2692 33.8543 35.3948L34.4574 35.7467C34.6836 35.8723 35.0354 35.8723 35.2364 35.7467L35.8395 35.3948C36.0406 35.2692 36.0406 35.0682 35.8395 34.9425ZM35.6134 36.4L36.2165 36.7519C36.4427 36.8775 36.7945 36.8775 36.9955 36.7519L37.5986 36.4C37.8248 36.2744 37.8248 36.0734 37.5986 35.9477L36.9955 35.5959C36.7694 35.4702 36.4175 35.4702 36.2165 35.5959L35.6134 35.9477C35.3872 36.0734 35.3872 36.2744 35.6134 36.4ZM39.3829 36.978L38.7798 36.6262C38.5536 36.5006 38.2018 36.5006 38.0007 36.6262L37.3976 36.978C37.1714 37.1037 37.1714 37.3047 37.3976 37.4304L38.0007 37.7822C38.2269 37.9078 38.5787 37.9078 38.7798 37.7822L39.3829 37.4304C39.609 37.3047 39.609 37.1037 39.3829 36.978ZM41.9964 38.4858L40.5891 37.6817C40.3629 37.556 40.0111 37.556 39.8101 37.6817L39.207 38.0335C38.9808 38.1591 38.9808 38.3602 39.207 38.4858L40.6142 39.29C40.8404 39.4156 41.1922 39.4156 41.3933 39.29L41.9964 38.9382C42.1974 38.8125 42.1974 38.6115 41.9964 38.4858ZM16.1879 27.1019L17.5951 27.9061C17.8213 28.0317 18.1731 28.0317 18.3742 27.9061L18.9773 27.5543C19.2035 27.4286 19.2035 27.2276 18.9773 27.1019L17.57 26.2978C17.3438 26.1721 16.992 26.1721 16.791 26.2978L16.1879 26.6496C15.9617 26.7752 15.9617 26.9763 16.1879 27.1019ZM18.7511 28.5846L19.3542 28.9364C19.5804 29.0621 19.9322 29.0621 20.1333 28.9364L20.7364 28.5846C20.9626 28.459 20.9626 28.2579 20.7364 28.1323L20.1333 27.7804C19.9071 27.6548 19.5553 27.6548 19.3542 27.7804L18.7511 28.1323C18.5249 28.2579 18.5249 28.459 18.7511 28.5846ZM21.1385 29.9668C21.3646 30.0924 21.7165 30.0924 21.9175 29.9668L22.5206 29.6149C22.7468 29.4893 22.7468 29.2882 22.5206 29.1626L21.9175 28.8108C21.6913 28.6851 21.3395 28.6851 21.1385 28.8108L20.5354 29.1626C20.3092 29.2882 20.3092 29.4893 20.5354 29.6149L21.1385 29.9668ZM22.9227 30.9971C23.1489 31.1227 23.5007 31.1227 23.7017 30.9971L24.3049 30.6453C24.531 30.5196 24.531 30.3186 24.3049 30.1929L23.7017 29.8411C23.4756 29.7155 23.1237 29.7155 22.9227 29.8411L22.3196 30.1929C22.0934 30.3186 22.0934 30.5196 22.3196 30.6453L22.9227 30.9971ZM24.6818 30.8463L24.0787 31.1981C23.8525 31.3238 23.8525 31.5248 24.0787 31.6505L24.6818 32.0023C24.908 32.1279 25.2598 32.1279 25.4608 32.0023L26.064 31.6505C26.2901 31.5248 26.2901 31.3238 26.064 31.1981L25.4608 30.8463C25.2598 30.7207 24.908 30.7207 24.6818 30.8463ZM26.5163 31.8515L25.8378 32.2536C25.6367 32.3541 25.6367 32.5552 25.8378 32.6557L26.5163 33.0578C26.7173 33.1834 27.0189 33.1834 27.2199 33.0578L27.8984 32.6557C28.0995 32.5552 28.0995 32.3541 27.8984 32.2536L27.2199 31.8515C27.0189 31.751 26.6922 31.751 26.5163 31.8515ZM28.2754 32.8818L27.5969 33.2839C27.3958 33.3844 27.3958 33.5855 27.5969 33.686L28.2754 34.0881C28.4764 34.2137 28.778 34.2137 28.979 34.0881L29.6576 33.686C29.8586 33.5855 29.8586 33.3844 29.6576 33.2839L28.979 32.8818C28.8031 32.7813 28.4764 32.7813 28.2754 32.8818ZM30.0596 33.9122L29.3811 34.3143C29.1801 34.4148 29.1801 34.6158 29.3811 34.7163L30.0596 35.1184C30.2607 35.2441 30.5622 35.2441 30.7633 35.1184L31.4418 34.7163C31.6428 34.6158 31.6428 34.4148 31.4418 34.3143L30.7633 33.9122C30.5622 33.7865 30.2607 33.7865 30.0596 33.9122ZM31.8439 34.9425L31.1654 35.3446C30.9643 35.4451 30.9643 35.6461 31.1654 35.7467L31.8439 36.1487C32.0449 36.2744 32.3465 36.2744 32.5475 36.1487L33.226 35.7467C33.4271 35.6461 33.4271 35.4451 33.226 35.3446L32.5475 34.9425C32.3465 34.8169 32.0449 34.8169 31.8439 34.9425ZM33.603 35.9728L32.9245 36.3749C32.7234 36.4754 32.7234 36.6765 32.9245 36.777L33.603 37.1791C33.804 37.3047 34.1056 37.3047 34.3066 37.1791L34.9851 36.777C35.1862 36.6765 35.1862 36.4754 34.9851 36.3749L34.3066 35.9728C34.1307 35.8472 33.804 35.8472 33.603 35.9728ZM36.116 38.1843L36.7945 37.7822C36.9955 37.6817 36.9955 37.4806 36.7945 37.3801L36.116 36.978C35.9149 36.8524 35.6134 36.8524 35.4123 36.978L34.7338 37.3801C34.5328 37.4806 34.5328 37.6817 34.7338 37.7822L35.4123 38.1843C35.5882 38.3099 35.9149 38.3099 36.116 38.1843ZM37.8751 39.2146L38.5536 38.8125C38.7546 38.712 38.7546 38.511 38.5536 38.4104L37.8751 38.0084C37.674 37.8827 37.3725 37.8827 37.1714 38.0084L36.4929 38.4104C36.2919 38.511 36.2919 38.712 36.4929 38.8125L37.1714 39.2146C37.3725 39.3403 37.6992 39.3403 37.8751 39.2146ZM40.3881 39.4659L39.7096 39.0638C39.5085 38.9382 39.207 38.9382 39.0059 39.0638L38.3274 39.4659C38.1264 39.5664 38.1264 39.7675 38.3274 39.868L39.0059 40.2701C39.207 40.3957 39.5085 40.3957 39.7096 40.2701L40.3881 39.868C40.5891 39.7675 40.5891 39.5664 40.3881 39.4659ZM14.5041 28.0317L16.7407 29.3134C16.9418 29.439 17.2433 29.439 17.4444 29.3134L18.1229 28.9113C18.3239 28.8108 18.3239 28.6097 18.1229 28.5092L15.8863 27.2276C15.6853 27.1019 15.3837 27.1019 15.1827 27.2276L14.5041 27.6297C14.3031 27.7302 14.3031 27.9061 14.5041 28.0317ZM17.8213 29.9416L18.4998 30.3437C18.7009 30.4694 19.0024 30.4694 19.2035 30.3437L19.882 29.9416C20.083 29.8411 20.083 29.6401 19.882 29.5395L19.2035 29.1375C19.0024 29.0118 18.7009 29.0118 18.4998 29.1375L17.8213 29.5395C17.6203 29.6401 17.6203 29.8411 17.8213 29.9416ZM19.6055 30.972L20.2841 31.374C20.4851 31.4997 20.7867 31.4997 20.9877 31.374L21.6662 30.972C21.8672 30.8714 21.8672 30.6704 21.6662 30.5699L20.9877 30.1678C20.7867 30.0421 20.4851 30.0421 20.2841 30.1678L19.6055 30.5699C19.4045 30.6704 19.4045 30.8463 19.6055 30.972ZM21.3646 32.0023L22.0432 32.4044C22.2442 32.53 22.5458 32.53 22.7468 32.4044L23.4253 32.0023C23.6263 31.9018 23.6263 31.7007 23.4253 31.6002L22.7468 31.1981C22.5458 31.0725 22.2442 31.0725 22.0432 31.1981L21.3646 31.6002C21.1636 31.7007 21.1887 31.8766 21.3646 32.0023ZM24.5562 33.4096L25.2347 33.0075C25.4357 32.907 25.4357 32.7059 25.2347 32.6054L24.5562 32.2033C24.3551 32.0777 24.0536 32.0777 23.8525 32.2033L23.174 32.6054C22.973 32.7059 22.973 32.907 23.174 33.0075L23.8525 33.4096C24.0284 33.5352 24.3551 33.5352 24.5562 33.4096ZM26.3153 34.4399L26.9938 34.0378C27.1948 33.9373 27.1948 33.7363 26.9938 33.6357L26.3153 33.2337C26.1142 33.108 25.8127 33.108 25.6116 33.2337L24.9331 33.6357C24.7321 33.7363 24.7321 33.9373 24.9331 34.0378L25.6116 34.4399C25.8127 34.5656 26.1393 34.5656 26.3153 34.4399ZM28.0995 35.4702L28.778 35.0682C28.979 34.9676 28.979 34.7666 28.778 34.6661L28.0995 34.264C27.8985 34.1383 27.5969 34.1383 27.3958 34.264L26.7173 34.6661C26.5163 34.7666 26.5163 34.9676 26.7173 35.0682L27.3958 35.4702C27.5969 35.5959 27.8985 35.5959 28.0995 35.4702ZM29.8837 36.5006L30.5622 36.0985C30.7633 35.998 30.7633 35.7969 30.5622 35.6964L29.8837 35.2943C29.6827 35.1687 29.3811 35.1687 29.1801 35.2943L28.5016 35.6964C28.3005 35.7969 28.3005 35.998 28.5016 36.0985L29.1801 36.5006C29.356 36.6011 29.6827 36.6011 29.8837 36.5006ZM31.668 37.5309L32.3465 37.1288C32.5475 37.0283 32.5475 36.8273 32.3465 36.7267L31.668 36.3247C31.4669 36.199 31.1654 36.199 30.9643 36.3247L30.2858 36.7267C30.0848 36.8273 30.0848 37.0283 30.2858 37.1288L30.9643 37.5309C31.1402 37.6314 31.4669 37.6314 31.668 37.5309ZM33.4271 38.5612L34.1056 38.1591C34.3066 38.0586 34.3066 37.8576 34.1056 37.7571L33.4271 37.355C33.226 37.2293 32.9245 37.2293 32.7234 37.355L32.0449 37.7571C31.8439 37.8576 31.8439 38.0586 32.0449 38.1591L32.7234 38.5612C32.9245 38.6617 33.226 38.6617 33.4271 38.5612ZM33.804 39.1643L34.4825 39.5664C34.6836 39.6921 34.9851 39.6921 35.1862 39.5664L35.8647 39.1643C36.0657 39.0638 36.0657 38.8628 35.8647 38.7623L35.1862 38.3602C34.9851 38.2345 34.6836 38.2345 34.4825 38.3602L33.804 38.7623C33.603 38.8879 33.6281 39.0638 33.804 39.1643ZM38.7295 40.4208L36.9704 39.4156C36.7694 39.29 36.4678 39.29 36.2667 39.4156L35.5882 39.8177C35.3872 39.9183 35.3872 40.1193 35.5882 40.2198L37.3473 41.225C37.5484 41.3507 37.8499 41.3507 38.051 41.225L38.7295 40.8229C38.9305 40.6973 38.9305 40.5214 38.7295 40.4208ZM12.8707 29.0369L16.0371 30.8714C16.2632 30.9971 16.6151 30.9971 16.8412 30.8714L17.4444 30.5196C17.6705 30.394 17.6705 30.1929 17.4444 30.0673L14.278 28.2328C14.0518 28.1071 13.7 28.1071 13.4738 28.2328L12.8707 28.5846C12.6445 28.6851 12.6445 28.9113 12.8707 29.0369ZM17.1931 31.5248L17.7962 31.8766C18.0223 32.0023 18.3742 32.0023 18.6003 31.8766L19.2035 31.5248C19.4296 31.3992 19.4296 31.1981 19.2035 31.0725L18.6003 30.7207C18.3742 30.595 18.0223 30.595 17.7962 30.7207L17.1931 31.0725C16.992 31.1981 16.992 31.3992 17.1931 31.5248ZM18.9773 32.5552L19.5804 32.907C19.8066 33.0326 20.1584 33.0326 20.3846 32.907L20.9877 32.5552C21.2139 32.4295 21.2139 32.2285 20.9877 32.1028L20.3846 31.751C20.1584 31.6253 19.8066 31.6253 19.5804 31.751L18.9773 32.1028C18.7511 32.2285 18.7511 32.4295 18.9773 32.5552ZM20.7615 33.5855L21.3646 33.9373C21.5908 34.063 21.9426 34.063 22.1688 33.9373L22.7719 33.5855C22.9981 33.4598 22.9981 33.2588 22.7719 33.1331L22.1688 32.7813C21.9426 32.6557 21.5908 32.6557 21.3646 32.7813L20.7615 33.1331C20.5353 33.2588 20.5353 33.4598 20.7615 33.5855ZM22.5458 34.6158L23.1489 34.9676C23.375 35.0933 23.7269 35.0933 23.953 34.9676L24.5562 34.6158C24.7823 34.4902 24.7823 34.2891 24.5562 34.1635L23.953 33.8117C23.7269 33.686 23.375 33.686 23.1489 33.8117L22.5458 34.1635C22.3196 34.2891 22.3196 34.4902 22.5458 34.6158ZM24.3049 35.6461L24.908 35.998C25.1341 36.1236 25.486 36.1236 25.7121 35.998L26.3153 35.6461C26.5414 35.5205 26.5414 35.3195 26.3153 35.1938L25.7121 34.842C25.486 34.7163 25.1341 34.7163 24.908 34.842L24.3049 35.1938C24.0787 35.2943 24.1038 35.5205 24.3049 35.6461ZM26.0891 36.6513L26.6922 37.0032C26.9184 37.1288 27.2702 37.1288 27.4964 37.0032L28.0995 36.6513C28.3257 36.5257 28.3257 36.3247 28.0995 36.199L27.4964 35.8472C27.2702 35.7215 26.9184 35.7215 26.6922 35.8472L26.0891 36.199C25.8629 36.3247 25.8629 36.5257 26.0891 36.6513ZM27.8733 37.6817L28.4764 38.0335C28.7026 38.1591 29.0544 38.1591 29.2806 38.0335L29.8837 37.6817C30.1099 37.556 30.1099 37.355 29.8837 37.2293L29.2806 36.8775C29.0544 36.7519 28.7026 36.7519 28.4764 36.8775L27.8733 37.2293C27.6471 37.355 27.6471 37.556 27.8733 37.6817ZM29.6324 38.712L30.2355 39.0638C30.4617 39.1895 30.8135 39.1895 31.0397 39.0638L31.6428 38.712C31.869 38.5864 31.869 38.3853 31.6428 38.2597L31.0397 37.9078C30.8135 37.7822 30.4617 37.7822 30.2355 37.9078L29.6324 38.2597C29.4314 38.3853 29.4314 38.5864 29.6324 38.712ZM31.4167 39.7423L32.0198 40.0942C32.2459 40.2198 32.5978 40.2198 32.8239 40.0942L33.4271 39.7423C33.6532 39.6167 33.6532 39.4156 33.4271 39.29L32.8239 38.9382C32.5978 38.8125 32.2459 38.8125 32.0198 38.9382L31.4167 39.29C31.1905 39.4156 31.1905 39.6167 31.4167 39.7423ZM33.2009 40.7727L33.804 41.1245C34.0302 41.2501 34.382 41.2501 34.6082 41.1245L35.2113 40.7727C35.4375 40.647 35.4375 40.446 35.2113 40.3203L34.6082 39.9685C34.382 39.8429 34.0302 39.8429 33.804 39.9685L33.2009 40.3203C32.9747 40.4209 32.9747 40.647 33.2009 40.7727ZM36.9955 41.3507L36.3924 40.9988C36.1662 40.8732 35.8144 40.8732 35.5882 40.9988L34.9851 41.3507C34.7589 41.4763 34.7589 41.6774 34.9851 41.803L35.5882 42.1548C35.8144 42.2805 36.1662 42.2805 36.3924 42.1548L36.9955 41.803C37.2217 41.7025 37.2217 41.4763 36.9955 41.3507ZM14.0015 29.9668L12.6194 29.1626C12.3932 29.0369 12.0414 29.0369 11.8152 29.1626L11.2121 29.5144C10.9859 29.6401 10.9859 29.8411 11.2121 29.9668L12.5943 30.7709C12.8204 30.8966 13.1723 30.8966 13.3984 30.7709L14.0015 30.4191C14.2277 30.3186 14.2277 30.0924 14.0015 29.9668ZM15.7858 30.9971L15.1827 30.6453C14.9565 30.5196 14.6047 30.5196 14.3785 30.6453L13.7754 30.9971C13.5492 31.1227 13.5492 31.3238 13.7754 31.4494L14.3785 31.8013C14.6047 31.9269 14.9565 31.9269 15.1827 31.8013L15.7858 31.4494C15.9868 31.3238 15.9868 31.1227 15.7858 30.9971ZM17.5449 32.0274L16.9418 31.6756C16.7156 31.55 16.3638 31.55 16.1376 31.6756L15.5345 32.0274C15.3083 32.1531 15.3083 32.3541 15.5345 32.4798L16.1376 32.8316C16.3638 32.9572 16.7156 32.9572 16.9418 32.8316L17.5449 32.4798C17.771 32.3541 17.771 32.1531 17.5449 32.0274ZM29.9842 39.2146L18.726 32.7059C18.4998 32.5803 18.148 32.5803 17.9218 32.7059L17.3187 33.0578C17.0925 33.1834 17.0925 33.3844 17.3187 33.5101L28.577 40.0188C28.8031 40.1444 29.155 40.1444 29.3811 40.0188L29.9842 39.6669C30.2104 39.5413 30.2104 39.3403 29.9842 39.2146ZM31.7685 40.2449L31.1654 39.8931C30.9392 39.7675 30.5874 39.7675 30.3612 39.8931L29.7581 40.2449C29.5319 40.3706 29.5319 40.5716 29.7581 40.6973L30.3612 41.0491C30.5874 41.1748 30.9392 41.1748 31.1654 41.0491L31.7685 40.6973C31.9946 40.5716 31.9946 40.3706 31.7685 40.2449ZM33.5527 41.2501L32.9496 40.8983C32.7234 40.7727 32.3716 40.7727 32.1454 40.8983L31.5423 41.2501C31.3161 41.3758 31.3161 41.5768 31.5423 41.7025L32.1454 42.0543C32.3716 42.18 32.7234 42.18 32.9496 42.0543L33.5527 41.7025C33.7789 41.602 33.7537 41.4009 33.5527 41.2501ZM35.3621 42.3056L34.7589 41.9538C34.5328 41.8281 34.181 41.8281 33.9548 41.9538L33.3517 42.3056C33.1255 42.4313 33.1255 42.6323 33.3517 42.7579L33.9548 43.1098C34.181 43.2354 34.5328 43.2354 34.7589 43.1098L35.3621 42.7579C35.5882 42.6323 35.5882 42.4313 35.3621 42.3056Z" fill="#72B5E8"/>
<path d="M19.4296 25.016L20.9374 25.8705C21.1385 25.971 21.44 25.971 21.6159 25.8705C21.817 25.7699 21.7919 25.594 21.6159 25.4684L20.1081 24.614C19.9071 24.5134 19.6055 24.5134 19.4296 24.614C19.2286 24.7145 19.2286 24.8904 19.4296 25.016ZM21.9929 26.4987L22.6965 26.9008C22.8976 27.0013 23.1991 27.0013 23.375 26.9008C23.5761 26.8003 23.551 26.6244 23.375 26.4987L22.6714 26.0966C22.4704 25.9961 22.1688 25.9961 21.9929 26.0966C21.817 26.1972 21.817 26.3731 21.9929 26.4987ZM23.7771 27.5039L24.4808 27.906C24.6818 28.0065 24.9834 28.0065 25.1593 27.906C25.3603 27.8055 25.3352 27.6296 25.1593 27.5039L24.4556 27.1018C24.2546 27.0013 23.953 27.0013 23.7771 27.1018C23.5761 27.2275 23.5761 27.4034 23.7771 27.5039ZM25.5614 28.5342L26.265 28.9363C26.466 29.0368 26.7676 29.0368 26.9435 28.9363C27.1445 28.8358 27.1194 28.6599 26.9435 28.5342L26.2399 28.1322C26.0388 28.0316 25.7373 28.0316 25.5614 28.1322C25.3854 28.2327 25.3603 28.4337 25.5614 28.5342ZM27.3205 29.5646L28.0241 29.9667C28.2251 30.0672 28.5267 30.0672 28.7026 29.9667C28.9037 29.8661 28.8785 29.6902 28.7026 29.5646L27.999 29.1625C27.7979 29.062 27.4964 29.062 27.3205 29.1625C27.1445 29.2881 27.1445 29.4641 27.3205 29.5646ZM29.1047 30.5949L29.8083 30.997C30.0094 31.0975 30.3109 31.0975 30.4868 30.997C30.6879 30.8965 30.6628 30.7206 30.4868 30.5949L29.7832 30.1928C29.5822 30.0923 29.2806 30.0923 29.1047 30.1928C28.9037 30.2934 28.9037 30.4693 29.1047 30.5949ZM30.8889 31.6252L31.5926 32.0273C31.7936 32.1278 32.0952 32.1278 32.2711 32.0273C32.4721 31.9268 32.447 31.7509 32.2711 31.6252L31.5674 31.2232C31.3664 31.1226 31.0648 31.1226 30.8889 31.2232C30.6879 31.3237 30.6879 31.4996 30.8889 31.6252ZM32.648 32.6556L33.3517 33.0577C33.5527 33.1582 33.8543 33.1582 34.0302 33.0577C34.2061 32.9571 34.2061 32.7812 34.0302 32.6556L33.3265 32.2535C33.1255 32.153 32.8239 32.153 32.648 32.2535C32.4721 32.354 32.4721 32.5299 32.648 32.6556ZM34.4323 33.6608L35.1359 34.0629C35.3369 34.1634 35.6385 34.1634 35.8144 34.0629C36.0155 33.9623 35.9903 33.7864 35.8144 33.6608L35.1108 33.2587C34.9097 33.1582 34.6082 33.1582 34.4323 33.2587C34.2564 33.3843 34.2564 33.5603 34.4323 33.6608ZM36.2165 34.6911L36.9201 35.0932C37.1212 35.1937 37.4227 35.1937 37.5986 35.0932C37.7997 34.9927 37.7746 34.8168 37.5986 34.6911L36.895 34.289C36.694 34.1885 36.3924 34.1885 36.2165 34.289C36.0155 34.4147 36.0155 34.5906 36.2165 34.6911ZM38.0007 35.7214L38.7044 36.1235C38.9054 36.224 39.207 36.224 39.3829 36.1235C39.5588 36.023 39.5588 35.8471 39.3829 35.7214L38.6792 35.3194C38.4782 35.2188 38.1766 35.2188 38.0007 35.3194C37.7997 35.445 37.7997 35.6209 38.0007 35.7214ZM39.7598 36.7518L40.4635 37.1538C40.6645 37.2544 40.9661 37.2544 41.142 37.1538C41.343 37.0533 41.3179 36.8774 41.142 36.7518L40.4383 36.3497C40.2373 36.2492 39.9357 36.2492 39.7598 36.3497C39.5839 36.4502 39.5839 36.6261 39.7598 36.7518ZM41.5943 37.8072L42.298 38.2093C42.499 38.3098 42.8006 38.3098 42.9765 38.2093C43.1775 38.1088 43.1524 37.9329 42.9765 37.8072L42.2728 37.4051C42.0718 37.3046 41.7702 37.3046 41.5943 37.4051C41.3933 37.5057 41.3933 37.6816 41.5943 37.8072ZM17.8213 25.9961L18.4244 26.3479C18.6506 26.4736 19.0024 26.4736 19.2035 26.3479L19.8066 25.9961C20.0327 25.8705 20.0327 25.6694 19.8066 25.5438L19.2035 25.192C18.9773 25.0663 18.6255 25.0663 18.4244 25.192L17.8213 25.5438C17.6203 25.6443 17.6203 25.8705 17.8213 25.9961ZM21.0128 27.3783L21.6159 27.0264C21.8421 26.9008 21.8421 26.6998 21.6159 26.5741L21.0128 26.2223C20.7866 26.0966 20.4348 26.0966 20.2338 26.2223L19.6307 26.5741C19.4045 26.6998 19.4045 26.9008 19.6307 27.0264L20.2338 27.3783C20.4348 27.4788 20.7866 27.4788 21.0128 27.3783ZM21.3898 28.0316L21.9929 28.3835C22.2191 28.5091 22.5709 28.5091 22.7719 28.3835L23.375 28.0316C23.6012 27.906 23.6012 27.705 23.375 27.5793L22.7719 27.2275C22.5458 27.1018 22.1939 27.1018 21.9929 27.2275L21.3898 27.5793C21.1636 27.705 21.1636 27.906 21.3898 28.0316ZM23.174 29.062L23.7771 29.4138C24.0033 29.5394 24.3551 29.5394 24.5562 29.4138L25.1593 29.062C25.3854 28.9363 25.3854 28.7353 25.1593 28.6096L24.5562 28.2578C24.33 28.1322 23.9782 28.1322 23.7771 28.2578L23.174 28.6096C22.9478 28.7353 22.9478 28.9363 23.174 29.062ZM26.9435 29.64L26.3404 29.2881C26.1142 29.1625 25.7624 29.1625 25.5614 29.2881L24.9582 29.64C24.7321 29.7656 24.7321 29.9667 24.9582 30.0923L25.5614 30.4441C25.7875 30.5698 26.1393 30.5698 26.3404 30.4441L26.9435 30.0923C27.1697 29.9667 27.1697 29.7656 26.9435 29.64ZM28.7277 30.6703L28.1246 30.3185C27.8985 30.1928 27.5466 30.1928 27.3456 30.3185L26.7425 30.6703C26.5163 30.796 26.5163 30.997 26.7425 31.1226L27.3456 31.4745C27.5718 31.6001 27.9236 31.6001 28.1246 31.4745L28.7277 31.1226C28.9539 30.997 28.9288 30.796 28.7277 30.6703ZM30.512 31.7006L29.9089 31.3488C29.6827 31.2232 29.3309 31.2232 29.1298 31.3488L28.5267 31.7006C28.3005 31.8263 28.3005 32.0273 28.5267 32.153L29.1298 32.5048C29.356 32.6304 29.7078 32.6304 29.9089 32.5048L30.512 32.153C30.713 32.0273 30.713 31.8263 30.512 31.7006ZM32.2711 32.7058L31.668 32.354C31.4418 32.2284 31.09 32.2284 30.8889 32.354L30.2858 32.7058C30.0596 32.8315 30.0596 33.0325 30.2858 33.1582L30.8889 33.51C31.1151 33.6356 31.4669 33.6356 31.668 33.51L32.2711 33.1582C32.4972 33.0577 32.4972 32.8315 32.2711 32.7058ZM34.0553 33.7362L33.4522 33.3843C33.226 33.2587 32.8742 33.2587 32.6732 33.3843L32.07 33.7362C31.8439 33.8618 31.8439 34.0629 32.07 34.1885L32.6732 34.5403C32.8993 34.666 33.2511 34.666 33.4522 34.5403L34.0553 34.1885C34.2815 34.0629 34.2815 33.8618 34.0553 33.7362ZM35.8395 34.7665L35.2364 34.4147C35.0103 34.289 34.6584 34.289 34.4574 34.4147L33.8543 34.7665C33.6281 34.8921 33.6281 35.0932 33.8543 35.2188L34.4574 35.5707C34.6836 35.6963 35.0354 35.6963 35.2364 35.5707L35.8395 35.2188C36.0406 35.0932 36.0406 34.8921 35.8395 34.7665ZM35.6134 36.2492L36.2165 36.601C36.4427 36.7266 36.7945 36.7266 36.9955 36.601L37.5986 36.2492C37.8248 36.1235 37.8248 35.9225 37.5986 35.7968L36.9955 35.445C36.7694 35.3194 36.4175 35.3194 36.2165 35.445L35.6134 35.7968C35.3872 35.9225 35.3872 36.1235 35.6134 36.2492ZM39.3829 36.8272L38.7798 36.4753C38.5536 36.3497 38.2018 36.3497 38.0007 36.4753L37.3976 36.8272C37.1714 36.9528 37.1714 37.1538 37.3976 37.2795L38.0007 37.6313C38.2269 37.757 38.5787 37.757 38.7798 37.6313L39.3829 37.2795C39.609 37.1538 39.609 36.9528 39.3829 36.8272ZM41.9964 38.335L40.5891 37.5308C40.3629 37.4051 40.0111 37.4051 39.8101 37.5308L39.207 37.8826C38.9808 38.0083 38.9808 38.2093 39.207 38.335L40.6142 39.1391C40.8404 39.2648 41.1922 39.2648 41.3933 39.1391L41.9964 38.7873C42.1974 38.6616 42.1974 38.4606 41.9964 38.335ZM16.1879 26.9259L17.5951 27.7301C17.8213 27.8557 18.1731 27.8557 18.3742 27.7301L18.9773 27.3783C19.2035 27.2526 19.2035 27.0516 18.9773 26.9259L17.57 26.1218C17.3438 25.9961 16.992 25.9961 16.791 26.1218L16.1879 26.4736C15.9617 26.5992 15.9617 26.8003 16.1879 26.9259ZM18.7511 28.4086L19.3542 28.7604C19.5804 28.8861 19.9322 28.8861 20.1333 28.7604L20.7364 28.4086C20.9626 28.2829 20.9626 28.0819 20.7364 27.9563L20.1333 27.6044C19.9071 27.4788 19.5553 27.4788 19.3542 27.6044L18.7511 27.9563C18.5249 28.0819 18.5249 28.2829 18.7511 28.4086ZM21.1385 29.7908C21.3646 29.9164 21.7165 29.9164 21.9175 29.7908L22.5206 29.4389C22.7468 29.3133 22.7468 29.1122 22.5206 28.9866L21.9175 28.6348C21.6913 28.5091 21.3395 28.5091 21.1385 28.6348L20.5354 28.9866C20.3092 29.1122 20.3092 29.3133 20.5354 29.4389L21.1385 29.7908ZM22.9227 30.8211C23.1489 30.9467 23.5007 30.9467 23.7017 30.8211L24.3049 30.4693C24.531 30.3436 24.531 30.1426 24.3049 30.0169L23.7017 29.6651C23.4756 29.5394 23.1237 29.5394 22.9227 29.6651L22.3196 30.0169C22.0934 30.1426 22.0934 30.3436 22.3196 30.4693L22.9227 30.8211ZM24.6818 30.6954L24.0787 31.0473C23.8525 31.1729 23.8525 31.3739 24.0787 31.4996L24.6818 31.8514C24.908 31.9771 25.2598 31.9771 25.4608 31.8514L26.064 31.4996C26.2901 31.3739 26.2901 31.1729 26.064 31.0473L25.4608 30.6954C25.2598 30.5698 24.908 30.5698 24.6818 30.6954ZM26.5163 31.7006L25.8378 32.1027C25.6367 32.2032 25.6367 32.4043 25.8378 32.5048L26.5163 32.9069C26.7173 33.0325 27.0189 33.0325 27.2199 32.9069L27.8984 32.5048C28.0995 32.4043 28.0995 32.2032 27.8984 32.1027L27.2199 31.7006C27.0189 31.575 26.6922 31.575 26.5163 31.7006ZM28.2754 32.731L27.5969 33.133C27.3958 33.2336 27.3958 33.4346 27.5969 33.5351L28.2754 33.9372C28.4764 34.0629 28.778 34.0629 28.979 33.9372L29.6576 33.5351C29.8586 33.4346 29.8586 33.2336 29.6576 33.133L28.979 32.731C28.8031 32.6053 28.4764 32.6053 28.2754 32.731ZM30.0596 33.7362L29.3811 34.1382C29.1801 34.2388 29.1801 34.4398 29.3811 34.5403L30.0596 34.9424C30.2607 35.0681 30.5622 35.0681 30.7633 34.9424L31.4418 34.5403C31.6428 34.4398 31.6428 34.2388 31.4418 34.1382L30.7633 33.7362C30.5622 33.6356 30.2607 33.6356 30.0596 33.7362ZM31.8439 34.7665L31.1654 35.1686C30.9643 35.2691 30.9643 35.4701 31.1654 35.5707L31.8439 35.9727C32.0449 36.0984 32.3465 36.0984 32.5475 35.9727L33.226 35.5707C33.4271 35.4701 33.4271 35.2691 33.226 35.1686L32.5475 34.7665C32.3465 34.666 32.0449 34.666 31.8439 34.7665ZM33.603 35.7968L32.9245 36.1989C32.7234 36.2994 32.7234 36.5005 32.9245 36.601L33.603 37.0031C33.804 37.1287 34.1056 37.1287 34.3066 37.0031L34.9851 36.601C35.1862 36.5005 35.1862 36.2994 34.9851 36.1989L34.3066 35.7968C34.1307 35.6963 33.804 35.6963 33.603 35.7968ZM36.116 38.0334L36.7945 37.6313C36.9955 37.5308 36.9955 37.3298 36.7945 37.2292L36.116 36.8272C35.9149 36.7015 35.6134 36.7015 35.4123 36.8272L34.7338 37.2292C34.5328 37.3298 34.5328 37.5308 34.7338 37.6313L35.4123 38.0334C35.5882 38.1339 35.9149 38.1339 36.116 38.0334ZM37.8751 39.0637L38.5536 38.6616C38.7546 38.5611 38.7546 38.3601 38.5536 38.2596L37.8751 37.8575C37.674 37.7318 37.3725 37.7318 37.1714 37.8575L36.4929 38.2596C36.2919 38.3601 36.2919 38.5611 36.4929 38.6616L37.1714 39.0637C37.3725 39.1643 37.6992 39.1643 37.8751 39.0637ZM40.3881 39.2899L39.7096 38.8878C39.5085 38.7622 39.207 38.7622 39.0059 38.8878L38.3274 39.2899C38.1264 39.3904 38.1264 39.5915 38.3274 39.692L39.0059 40.0941C39.207 40.2197 39.5085 40.2197 39.7096 40.0941L40.3881 39.692C40.5891 39.5915 40.5891 39.4156 40.3881 39.2899ZM14.5041 27.8557L16.7407 29.1374C16.9418 29.263 17.2433 29.263 17.4444 29.1374L18.1229 28.7353C18.3239 28.6348 18.3239 28.4337 18.1229 28.3332L15.8863 27.0516C15.6853 26.9259 15.3837 26.9259 15.1827 27.0516L14.5041 27.4537C14.3031 27.5542 14.3031 27.7552 14.5041 27.8557ZM17.8213 29.7656L18.4998 30.1677C18.7009 30.2934 19.0024 30.2934 19.2035 30.1677L19.882 29.7656C20.083 29.6651 20.083 29.4641 19.882 29.3635L19.2035 28.9615C19.0024 28.8358 18.7009 28.8358 18.4998 28.9615L17.8213 29.3635C17.6203 29.4892 17.6203 29.6651 17.8213 29.7656ZM19.6055 30.796L20.2841 31.198C20.4851 31.3237 20.7867 31.3237 20.9877 31.198L21.6662 30.796C21.8672 30.6954 21.8672 30.4944 21.6662 30.3939L20.9877 29.9918C20.7867 29.8661 20.4851 29.8661 20.2841 29.9918L19.6055 30.3939C19.4045 30.4944 19.4045 30.6954 19.6055 30.796ZM21.3646 31.8263L22.0432 32.2284C22.2442 32.354 22.5458 32.354 22.7468 32.2284L23.4253 31.8263C23.6263 31.7258 23.6263 31.5247 23.4253 31.4242L22.7468 31.0221C22.5458 30.8965 22.2442 30.8965 22.0432 31.0221L21.3646 31.4242C21.1636 31.5247 21.1887 31.7258 21.3646 31.8263ZM24.5562 33.2587L25.2347 32.8566C25.4357 32.7561 25.4357 32.5551 25.2347 32.4545L24.5562 32.0525C24.3551 31.9268 24.0536 31.9268 23.8525 32.0525L23.174 32.4545C22.973 32.5551 22.973 32.7561 23.174 32.8566L23.8525 33.2587C24.0284 33.3592 24.3551 33.3592 24.5562 33.2587ZM26.3153 34.289L26.9938 33.8869C27.1948 33.7864 27.1948 33.5854 26.9938 33.4849L26.3153 33.0828C26.1142 32.9571 25.8127 32.9571 25.6116 33.0828L24.9331 33.4849C24.7321 33.5854 24.7321 33.7864 24.9331 33.8869L25.6116 34.289C25.8127 34.3895 26.1393 34.3895 26.3153 34.289ZM28.0995 35.2942L28.778 34.8921C28.979 34.7916 28.979 34.5906 28.778 34.4901L28.0995 34.088C27.8985 33.9623 27.5969 33.9623 27.3958 34.088L26.7173 34.4901C26.5163 34.5906 26.5163 34.7916 26.7173 34.8921L27.3958 35.2942C27.5969 35.4199 27.8985 35.4199 28.0995 35.2942ZM29.8837 36.3246L30.5622 35.9225C30.7633 35.822 30.7633 35.6209 30.5622 35.5204L29.8837 35.1183C29.6827 34.9927 29.3811 34.9927 29.1801 35.1183L28.5016 35.5204C28.3005 35.6209 28.3005 35.822 28.5016 35.9225L29.1801 36.3246C29.356 36.4502 29.6827 36.4502 29.8837 36.3246ZM31.668 37.3549L32.3465 36.9528C32.5475 36.8523 32.5475 36.6512 32.3465 36.5507L31.668 36.1486C31.4669 36.023 31.1654 36.023 30.9643 36.1486L30.2607 36.5507C30.0596 36.6512 30.0596 36.8523 30.2607 36.9528L30.9392 37.3549C31.1402 37.4805 31.4669 37.4805 31.668 37.3549ZM33.4271 38.3852L34.1056 37.9831C34.3066 37.8826 34.3066 37.6816 34.1056 37.5811L33.4271 37.179C33.226 37.0533 32.9245 37.0533 32.7234 37.179L32.0449 37.5811C31.8439 37.6816 31.8439 37.8826 32.0449 37.9831L32.7234 38.3852C32.9245 38.4857 33.226 38.4857 33.4271 38.3852ZM33.804 39.0135L34.4825 39.4156C34.6836 39.5412 34.9851 39.5412 35.1862 39.4156L35.8647 39.0135C36.0657 38.913 36.0657 38.7119 35.8647 38.6114L35.1862 38.2093C34.9851 38.0837 34.6836 38.0837 34.4825 38.2093L33.804 38.6114C33.603 38.7119 33.6281 38.8878 33.804 39.0135ZM38.7295 40.2448L36.9704 39.2396C36.7694 39.114 36.4678 39.114 36.2667 39.2396L35.5882 39.6417C35.3872 39.7422 35.3872 39.9433 35.5882 40.0438L37.3473 41.049C37.5484 41.1747 37.8499 41.1747 38.051 41.049L38.7295 40.6469C38.9305 40.5464 38.9305 40.3705 38.7295 40.2448ZM12.8707 28.8609L16.0371 30.6954C16.2632 30.8211 16.6151 30.8211 16.8412 30.6954L17.4444 30.3436C17.6705 30.218 17.6705 30.0169 17.4444 29.8913L14.278 28.0568C14.0518 27.9311 13.7 27.9311 13.4738 28.0568L12.8707 28.4086C12.6445 28.5342 12.6445 28.7353 12.8707 28.8609ZM17.1931 31.3739L17.7962 31.7258C18.0223 31.8514 18.3742 31.8514 18.6003 31.7258L19.2035 31.3739C19.4296 31.2483 19.4296 31.0473 19.2035 30.9216L18.6003 30.5698C18.3742 30.4441 18.0223 30.4441 17.7962 30.5698L17.1931 30.9216C16.992 31.0221 16.992 31.2483 17.1931 31.3739ZM18.9773 32.4043L19.5804 32.7561C19.8066 32.8817 20.1584 32.8817 20.3846 32.7561L20.9877 32.4043C21.2139 32.2786 21.2139 32.0776 20.9877 31.9519L20.3846 31.6001C20.1584 31.4745 19.8066 31.4745 19.5804 31.6001L18.9773 31.9519C18.7511 32.0525 18.7511 32.2786 18.9773 32.4043ZM20.7615 33.4095L21.3646 33.7613C21.5908 33.8869 21.9426 33.8869 22.1688 33.7613L22.7719 33.4095C22.9981 33.2838 22.9981 33.0828 22.7719 32.9571L22.1688 32.6053C21.9426 32.4797 21.5908 32.4797 21.3646 32.6053L20.7615 32.9571C20.5353 33.0828 20.5353 33.2838 20.7615 33.4095ZM22.5458 34.4398L23.1489 34.7916C23.375 34.9173 23.7269 34.9173 23.953 34.7916L24.5562 34.4398C24.7823 34.3142 24.7823 34.1131 24.5562 33.9875L23.953 33.6356C23.7269 33.51 23.375 33.51 23.1489 33.6356L22.5458 33.9875C22.3196 34.1131 22.3196 34.3142 22.5458 34.4398ZM24.3049 35.4701L24.908 35.822C25.1341 35.9476 25.486 35.9476 25.7121 35.822L26.3153 35.4701C26.5414 35.3445 26.5414 35.1434 26.3153 35.0178L25.7121 34.666C25.486 34.5403 25.1341 34.5403 24.908 34.666L24.3049 35.0178C24.0787 35.1434 24.1038 35.3445 24.3049 35.4701ZM26.0891 36.5005L26.6922 36.8523C26.9184 36.9779 27.2702 36.9779 27.4964 36.8523L28.0995 36.5005C28.3257 36.3748 28.3257 36.1738 28.0995 36.0481L27.4964 35.6963C27.2702 35.5707 26.9184 35.5707 26.6922 35.6963L26.0891 36.0481C25.8629 36.1738 25.8629 36.3748 26.0891 36.5005ZM27.8733 37.5308L28.4764 37.8826C28.7026 38.0083 29.0544 38.0083 29.2806 37.8826L29.8837 37.5308C30.1099 37.4051 30.1099 37.2041 29.8837 37.0785L29.2806 36.7266C29.0544 36.601 28.7026 36.601 28.4764 36.7266L27.8733 37.0785C27.6471 37.179 27.6471 37.4051 27.8733 37.5308ZM29.6324 38.5611L30.2355 38.9129C30.4617 39.0386 30.8135 39.0386 31.0397 38.9129L31.6428 38.5611C31.869 38.4355 31.869 38.2344 31.6428 38.1088L31.0397 37.757C30.8135 37.6313 30.4617 37.6313 30.2355 37.757L29.6324 38.1088C29.4314 38.2093 29.4314 38.4104 29.6324 38.5611ZM31.4167 39.5663L32.0198 39.9182C32.2459 40.0438 32.5978 40.0438 32.8239 39.9182L33.4271 39.5663C33.6532 39.4407 33.6532 39.2396 33.4271 39.114L32.8239 38.7622C32.5978 38.6365 32.2459 38.6365 32.0198 38.7622L31.4167 39.114C31.1905 39.2396 31.1905 39.4407 31.4167 39.5663ZM33.2009 40.5967L33.804 40.9485C34.0302 41.0741 34.382 41.0741 34.6082 40.9485L35.2113 40.5967C35.4375 40.471 35.4375 40.27 35.2113 40.1443L34.6082 39.7925C34.382 39.6669 34.0302 39.6669 33.804 39.7925L33.2009 40.1443C32.9747 40.27 32.9747 40.471 33.2009 40.5967ZM36.9955 41.1998L36.3924 40.848C36.1662 40.7223 35.8144 40.7223 35.5882 40.848L34.9851 41.1998C34.7589 41.3254 34.7589 41.5265 34.9851 41.6521L35.5882 42.0039C35.8144 42.1296 36.1662 42.1296 36.3924 42.0039L36.9955 41.6521C37.2217 41.5265 37.2217 41.3254 36.9955 41.1998ZM14.0015 29.8159L12.6194 29.0117C12.3932 28.8861 12.0414 28.8861 11.8152 29.0117L11.2121 29.3635C10.9859 29.4892 10.9859 29.6902 11.2121 29.8159L12.5943 30.62C12.8204 30.7457 13.1723 30.7457 13.3984 30.62L14.0015 30.2682C14.2277 30.1426 14.2277 29.9415 14.0015 29.8159ZM15.7858 30.8462L15.1827 30.4944C14.9565 30.3687 14.6047 30.3687 14.3785 30.4944L13.7754 30.8462C13.5492 30.9719 13.5492 31.1729 13.7754 31.2986L14.3785 31.6504C14.6047 31.776 14.9565 31.776 15.1827 31.6504L15.7858 31.2986C15.9868 31.1729 15.9868 30.9719 15.7858 30.8462ZM17.5449 31.8514L16.9418 31.5247C16.7156 31.3991 16.3638 31.3991 16.1376 31.5247L15.5345 31.8765C15.3083 32.0022 15.3083 32.2032 15.5345 32.3289L16.1376 32.6807C16.3638 32.8064 16.7156 32.8064 16.9418 32.6807L17.5449 32.3289C17.771 32.2032 17.771 32.0022 17.5449 31.8514ZM29.9842 39.0386L18.726 32.5299C18.4998 32.4043 18.148 32.4043 17.9218 32.5299L17.3187 32.8817C17.0925 33.0074 17.0925 33.2084 17.3187 33.3341L28.577 39.8428C28.8031 39.9684 29.155 39.9684 29.3811 39.8428L29.9842 39.4909C30.2104 39.3904 30.2104 39.1643 29.9842 39.0386ZM31.7685 40.0689L31.1654 39.7171C30.9392 39.5915 30.5874 39.5915 30.3612 39.7171L29.7581 40.0689C29.5319 40.1946 29.5319 40.3956 29.7581 40.5213L30.3612 40.8731C30.5874 40.9987 30.9392 40.9987 31.1654 40.8731L31.7685 40.5213C31.9946 40.3956 31.9946 40.1946 31.7685 40.0689ZM33.5527 41.0993L32.9496 40.7474C32.7234 40.6218 32.3716 40.6218 32.1454 40.7474L31.5423 41.0993C31.3161 41.2249 31.3161 41.426 31.5423 41.5516L32.1454 41.9034C32.3716 42.0291 32.7234 42.0291 32.9496 41.9034L33.5527 41.5516C33.7789 41.426 33.7537 41.2249 33.5527 41.0993ZM35.3621 42.1547L34.7589 41.8029C34.5328 41.6773 34.181 41.6773 33.9548 41.8029L33.3517 42.1547C33.1255 42.2804 33.1255 42.4814 33.3517 42.6071L33.9548 42.9589C34.181 43.0845 34.5328 43.0845 34.7589 42.9589L35.3621 42.6071C35.5882 42.4814 35.5882 42.2804 35.3621 42.1547Z" fill="#A8CFF0"/>
<path d="M45.0624 37.2795L21.5155 23.6841C20.6108 23.1564 19.8569 21.7491 19.8569 20.5429V2.04718C19.8569 0.840939 20.5857 0.262949 21.5155 0.790679L45.0624 14.386C45.967 14.9138 46.7209 16.321 46.7209 17.5273V35.9979C46.7209 37.2544 45.967 37.8072 45.0624 37.2795Z" fill="#A8CFF0"/>
<path d="M45.2887 36.3249L21.9931 22.8803C21.2644 22.4029 20.812 21.473 20.812 20.5181V1.97214C20.812 1.74597 21.0633 1.59519 21.2644 1.72084C21.2895 1.74597 21.3146 1.74597 21.3146 1.74597L44.6353 15.2157C45.5148 15.7183 45.8164 16.623 45.8164 17.5779V36.0987C45.8164 36.35 45.5651 36.5008 45.3389 36.3752C45.3138 36.35 45.2887 36.3249 45.2887 36.3249Z" fill="#084C94"/>
<path d="M44.6104 15.2157L21.2897 1.74597C21.2897 1.74597 21.2646 1.72084 21.2394 1.72084C21.0384 1.59519 20.7871 1.74597 20.7871 1.97214V20.5181C20.7871 21.473 21.2394 22.4029 21.9682 22.8803L45.2638 36.3249C45.2638 36.3249 45.2889 36.35 45.314 36.35C45.5151 36.4757 45.7915 36.3249 45.7915 36.0736V17.5528C45.7915 16.5978 45.4899 15.7183 44.6104 15.2157ZM45.6156 36.0736C45.6156 36.149 45.5402 36.1992 45.4899 36.1992C45.4648 36.1992 45.4397 36.1992 45.4145 36.1741L22.0939 22.7044C21.4405 22.2772 20.9881 21.4228 20.9881 20.5181V1.97214C20.9881 1.89675 21.0384 1.87162 21.0887 1.87162C21.1138 1.87162 21.1138 1.87162 21.1389 1.89675L44.5099 15.3916C45.4145 15.9193 45.6156 16.8743 45.6156 17.5779V36.0736Z" fill="#022652"/>
<path d="M45.5403 14.1602L21.9934 0.56481C21.6416 0.36377 21.2898 0.313509 21.0385 0.41403C21.0133 0.43916 20.5359 0.66533 20.5107 0.69046C20.7872 0.56481 21.139 0.58994 21.5411 0.81611L45.0879 14.4115C45.9926 14.9392 46.7465 16.3465 46.7465 17.5527V36.0233C46.7465 36.7772 46.4701 37.2798 46.0177 37.4306C46.0429 37.4306 46.0931 37.4306 46.1685 37.3803C46.1936 37.3803 46.6962 37.0787 46.6962 37.0787C46.9978 36.8526 47.1988 36.4002 47.1988 35.772V17.3265C47.1737 16.0952 46.4449 14.6879 45.5403 14.1602Z" fill="#3F92D1"/>
<path d="M45.5403 14.1602L21.9934 0.56481C21.6416 0.36377 21.2898 0.313509 21.0385 0.41403C21.0133 0.43916 20.5359 0.66533 20.5107 0.69046C20.7872 0.56481 21.139 0.58994 21.5411 0.81611L45.0879 14.4115L45.5403 14.1602Z" fill="#4F9FDB"/>
<path d="M45.1382 14.3612L21.6165 0.765821C21.2396 0.53965 20.8878 0.51452 20.6113 0.64017C20.8375 0.61504 21.1139 0.6653 21.4155 0.816081L44.9372 14.4366C45.8419 14.9643 46.5958 16.3716 46.5958 17.5778V36.0484C46.5958 36.7772 46.3445 37.2546 45.9424 37.4305C46.445 37.3551 46.7968 36.8274 46.7968 35.9981V17.5276C46.7968 16.2962 46.0681 14.8889 45.1382 14.3612Z" fill="white"/>
</svg>
