<svg width="26" height="26" viewBox="0 0 26 26" fill="none" xmlns="http://www.w3.org/2000/svg">
<circle cx="13" cy="13" r="13" fill="#ED0F87"/>
<path d="M14.0994 13L18.772 8.32726C19.076 8.02332 19.076 7.53189 18.772 7.22795C18.468 6.92402 17.9766 6.92402 17.6726 7.22795L12.9999 11.9007L8.32737 7.22795C8.02329 6.92402 7.532 6.92402 7.22806 7.22795C6.92398 7.53189 6.92398 8.02332 7.22806 8.32726L11.9006 13L7.22806 17.6727C6.92398 17.9766 6.92398 18.468 7.22806 18.772C7.37953 18.9236 7.5787 18.9998 7.77772 18.9998C7.97674 18.9998 8.17576 18.9236 8.32737 18.772L12.9999 14.0993L17.6726 18.772C17.8243 18.9236 18.0233 18.9998 18.2223 18.9998C18.4213 18.9998 18.6203 18.9236 18.772 18.772C19.076 18.468 19.076 17.9766 18.772 17.6727L14.0994 13Z" fill="white"/>
</svg>
