<svg width="26" height="26" viewBox="0 0 26 26" fill="none" xmlns="http://www.w3.org/2000/svg">
<circle cx="13" cy="13" r="13" fill="#15BF8C"/>
<path fill-rule="evenodd" clip-rule="evenodd" d="M17.0449 9.31742C17.2491 9.11482 17.5247 9.0008 17.8123 9C18.0998 8.99921 18.376 9.11171 18.5813 9.31318C18.7866 9.51465 18.9045 9.7889 18.9094 10.0766C18.9143 10.3644 18.8058 10.6425 18.6075 10.8509L12.7831 18.1383C12.683 18.2462 12.5622 18.3328 12.4279 18.3929C12.2936 18.4531 12.1486 18.4855 12.0015 18.4882C11.8544 18.4909 11.7082 18.4639 11.5718 18.4088C11.4353 18.3537 11.3114 18.2716 11.2074 18.1675L7.34828 14.3033C7.24077 14.203 7.15454 14.0821 7.09473 13.9477C7.03492 13.8134 7.00276 13.6683 7.00017 13.5212C6.99758 13.3742 7.02461 13.2281 7.07964 13.0917C7.13468 12.9553 7.21659 12.8314 7.3205 12.7274C7.42441 12.6234 7.54819 12.5414 7.68444 12.4863C7.8207 12.4312 7.96664 12.4042 8.11357 12.4068C8.26049 12.4094 8.40539 12.4416 8.53962 12.5014C8.67385 12.5613 8.79466 12.6476 8.89484 12.7552L11.95 15.8119L17.0172 9.34955C17.0262 9.33824 17.036 9.32751 17.0464 9.31742H17.0449Z" fill="white"/>
</svg>
