<svg width="44" height="44" viewBox="0 0 44 44" fill="none" xmlns="http://www.w3.org/2000/svg">
<path d="M44 22C44 34.1503 34.1503 44 22 44C9.84973 44 0 34.1503 0 22C0 9.84973 9.84973 0 22 0C34.1503 0 44 9.84973 44 22Z" fill="#80D9EB"/>
<path d="M30.2587 8.90283H12.3945V36.5605H30.2587V8.90283Z" fill="white"/>
<path d="M30.2581 8.90289V18.6632C27.0024 18.5815 24.3794 15.9076 24.3794 12.6328C24.3794 11.2258 24.8637 9.93027 25.6738 8.90283H30.2581V8.90289Z" fill="#E4EAF8"/>
<path d="M21.4863 16.6343C21.4863 16.3926 21.6841 16.1948 21.9258 16.1948H26.9635C27.2052 16.1948 27.403 16.3926 27.403 16.6343C27.403 16.876 27.2052 17.0737 26.9635 17.0737H21.9258C21.6841 17.0737 21.4863 16.876 21.4863 16.6343Z" fill="#C1C8D2"/>
<path d="M21.4863 15.4414C21.4863 15.1997 21.6841 15.002 21.9258 15.002H26.9635C27.2052 15.002 27.403 15.1997 27.403 15.4414C27.403 15.6831 27.2052 15.8809 26.9635 15.8809H21.9258C21.6841 15.8809 21.4863 15.6831 21.4863 15.4414Z" fill="#C1C8D2"/>
<path d="M21.4863 14.2485C21.4863 14.0068 21.6841 13.8091 21.9258 13.8091H26.9635C27.2052 13.8091 27.403 14.0068 27.403 14.2485C27.403 14.4902 27.2052 14.688 26.9635 14.688H21.9258C21.6841 14.688 21.4863 14.4902 21.4863 14.2485Z" fill="#C1C8D2"/>
<path d="M13.2898 8.90283H12.394V36.5605H13.2898V8.90283Z" fill="#E4EAF8"/>
<path d="M30.2586 8.90283H29.3628V36.5605H30.2586V8.90283Z" fill="#E4EAF8"/>
<path d="M30.4124 17.8259C33.2806 17.8259 35.6057 15.5008 35.6057 12.6327C35.6057 9.76453 33.2806 7.43945 30.4124 7.43945C27.5443 7.43945 25.2192 9.76453 25.2192 12.6327C25.2192 15.5008 27.5443 17.8259 30.4124 17.8259Z" fill="#56B3F7"/>
<path d="M33.7407 11.1705L32.394 9.82373L29.4699 12.7479L28.1231 11.4012L26.7764 12.7479L29.4699 15.4413L33.7407 11.1705Z" fill="#FFF4EB"/>
<path d="M15.3076 20.7129H16.9032C17.146 20.7129 17.3427 20.5162 17.3427 20.2734C17.3427 20.0307 17.146 19.834 16.9032 19.834H15.3076C15.0649 19.834 14.8682 20.0307 14.8682 20.2734C14.8682 20.5162 15.0648 20.7129 15.3076 20.7129Z" fill="#C1C8D2"/>
<path d="M19.5563 21.4492C19.5563 21.2065 19.3596 21.0098 19.1168 21.0098H15.3076C15.0649 21.0098 14.8682 21.2065 14.8682 21.4492C14.8682 21.692 15.0649 21.8887 15.3076 21.8887H19.1169C19.3595 21.8887 19.5563 21.6919 19.5563 21.4492Z" fill="#C1C8D2"/>
<path d="M18.8052 29.2344C18.5624 29.2344 18.3657 29.4311 18.3657 29.6738C18.3657 29.9166 18.5624 30.1133 18.8052 30.1133H23.8475C24.0903 30.1133 24.287 29.9166 24.287 29.6738C24.287 29.4311 24.0903 29.2344 23.8475 29.2344H18.8052Z" fill="#C1C8D2"/>
<path d="M27.7844 30.8496C27.7844 30.6069 27.5877 30.4102 27.3449 30.4102H15.3076C15.0649 30.4102 14.8682 30.6069 14.8682 30.8496C14.8682 31.0924 15.0649 31.2891 15.3076 31.2891H27.345C27.5877 31.2891 27.7844 31.0924 27.7844 30.8496Z" fill="#C1C8D2"/>
<path d="M16.4004 23.0195H15.3076C15.0649 23.0195 14.8682 23.2162 14.8682 23.459C14.8682 23.7017 15.0649 23.8984 15.3076 23.8984H16.4004C16.6431 23.8984 16.8398 23.7017 16.8398 23.459C16.8398 23.2162 16.6431 23.0195 16.4004 23.0195Z" fill="#C1C8D2"/>
<path d="M16.4004 24.3076H15.3076C15.0649 24.3076 14.8682 24.5043 14.8682 24.7471C14.8682 24.9898 15.0649 25.1865 15.3076 25.1865H16.4004C16.6431 25.1865 16.8398 24.9898 16.8398 24.7471C16.8398 24.5043 16.6431 24.3076 16.4004 24.3076Z" fill="#C1C8D2"/>
<path d="M16.4004 25.5952H15.3076C15.0649 25.5952 14.8682 25.7919 14.8682 26.0347C14.8682 26.2774 15.0649 26.4741 15.3076 26.4741H16.4004C16.6431 26.4741 16.8398 26.2774 16.8398 26.0347C16.8398 25.7919 16.6431 25.5952 16.4004 25.5952Z" fill="#C1C8D2"/>
<path d="M16.4004 26.8828H15.3076C15.0649 26.8828 14.8682 27.0795 14.8682 27.3223C14.8682 27.565 15.0649 27.7617 15.3076 27.7617H16.4004C16.6431 27.7617 16.8398 27.565 16.8398 27.3223C16.8398 27.0795 16.6431 26.8828 16.4004 26.8828Z" fill="#C1C8D2"/>
<path d="M17.6001 23.459C17.6001 23.7017 17.7968 23.8984 18.0395 23.8984H27.3449C27.5877 23.8984 27.7844 23.7017 27.7844 23.459C27.7844 23.2162 27.5877 23.0195 27.3449 23.0195H18.0395C17.7968 23.0195 17.6001 23.2163 17.6001 23.459Z" fill="#C1C8D2"/>
<path d="M20.5424 24.3076H18.0395C17.7968 24.3076 17.6001 24.5043 17.6001 24.7471C17.6001 24.9898 17.7968 25.1865 18.0395 25.1865H20.5424C20.7851 25.1865 20.9818 24.9898 20.9818 24.7471C20.9818 24.5043 20.7851 24.3076 20.5424 24.3076Z" fill="#C1C8D2"/>
<path d="M17.6001 26.0347C17.6001 26.2774 17.7968 26.4741 18.0395 26.4741H24.5735C24.8163 26.4741 25.013 26.2774 25.013 26.0347C25.013 25.7919 24.8163 25.5952 24.5735 25.5952H18.0395C17.7968 25.5952 17.6001 25.792 17.6001 26.0347Z" fill="#C1C8D2"/>
<path d="M26.9165 27.3223C26.9165 27.0795 26.7198 26.8828 26.477 26.8828H18.0395C17.7968 26.8828 17.6001 27.0795 17.6001 27.3223C17.6001 27.565 17.7968 27.7617 18.0395 27.7617H26.477C26.7198 27.7617 26.9165 27.565 26.9165 27.3223Z" fill="#C1C8D2"/>
<path d="M17.6674 33.5235C17.6674 33.6671 17.5506 33.7839 17.4071 33.7839C17.2635 33.7839 17.1467 33.6671 17.1467 33.5235C17.1467 32.8953 16.6356 32.3843 16.0075 32.3843C15.3792 32.3843 14.8682 32.8954 14.8682 33.5235C14.8682 33.7663 15.0649 33.963 15.3076 33.963C15.5504 33.963 15.7471 33.7663 15.7471 33.5235C15.7471 33.38 15.8639 33.2632 16.0075 33.2632C16.151 33.2632 16.2678 33.38 16.2678 33.5235C16.2678 34.1518 16.7789 34.6628 17.4071 34.6628C18.0353 34.6628 18.5463 34.1517 18.5463 33.5235C18.5463 33.2808 18.3496 33.0841 18.1069 33.0841C17.8641 33.0841 17.6674 33.2808 17.6674 33.5235Z" fill="#C1C8D2"/>
<path d="M27.373 33.0841C27.1303 33.0841 26.9336 33.2808 26.9336 33.5235C26.9336 33.6671 26.8168 33.7839 26.6732 33.7839C26.5296 33.7839 26.4128 33.6671 26.4128 33.5235C26.4128 32.8953 25.9017 32.3843 25.2736 32.3843C24.6453 32.3843 24.1343 32.8954 24.1343 33.5235C24.1343 33.7663 24.331 33.963 24.5737 33.963C24.8165 33.963 25.0132 33.7663 25.0132 33.5235C25.0132 33.38 25.13 33.2632 25.2736 33.2632C25.4171 33.2632 25.5339 33.38 25.5339 33.5235C25.5339 34.1518 26.045 34.6628 26.6732 34.6628C27.3014 34.6628 27.8125 34.1517 27.8125 33.5235C27.8125 33.2808 27.6158 33.0841 27.373 33.0841Z" fill="#C1C8D2"/>
<path d="M20.2841 10.9189H14.7974V18.5707H20.2841V10.9189Z" fill="#56B3F7"/>
<path d="M17.5677 16.1951C18.2125 16.1951 18.7351 15.6724 18.7351 15.0277C18.7351 14.383 18.2125 13.8604 17.5677 13.8604C16.923 13.8604 16.4004 14.383 16.4004 15.0277C16.4004 15.6724 16.923 16.1951 17.5677 16.1951Z" fill="white"/>
<path d="M15.1924 18.5706C15.1924 17.2588 16.2559 16.1953 17.5677 16.1953C18.8796 16.1953 19.943 17.2588 19.943 18.5706H15.1924V18.5706Z" fill="#FFC843"/>
<path d="M18.2337 12.7041C18.4765 12.7041 18.6732 12.5074 18.6732 12.2646C18.6732 12.0219 18.4765 11.8252 18.2337 11.8252H16.9014C16.6586 11.8252 16.4619 12.0219 16.4619 12.2646C16.4619 12.5074 16.6586 12.7041 16.9014 12.7041H18.2337Z" fill="#00C395"/>
<path d="M21.9258 12.0317H23.9787C24.2214 12.0317 24.4181 11.835 24.4181 11.5923C24.4181 11.3495 24.2214 11.1528 23.9787 11.1528H21.9258C21.683 11.1528 21.4863 11.3495 21.4863 11.5923C21.4863 11.835 21.683 12.0317 21.9258 12.0317Z" fill="#C1C8D2"/>
<path d="M22.6921 18.2651C22.9348 18.2651 23.1315 18.0684 23.1315 17.8257C23.1315 17.5829 22.9348 17.3862 22.6921 17.3862H21.9258C21.683 17.3862 21.4863 17.5829 21.4863 17.8257C21.4863 18.0684 21.683 18.2651 21.9258 18.2651H22.6921Z" fill="#C1C8D2"/>
<path d="M30.4124 7C28.9574 7 27.6296 7.55459 26.6289 8.46343H12.394C12.1513 8.46343 11.9546 8.66013 11.9546 8.90289V36.5605C11.9546 36.8033 12.1513 37 12.394 37H20.6154C20.8582 37 21.0549 36.8033 21.0549 36.5605C21.0549 36.3178 20.8582 36.1211 20.6154 36.1211H12.8335V9.34234H25.8436C25.1747 10.2686 24.7798 11.4053 24.7798 12.6326C24.7798 13.0339 24.8223 13.4253 24.9024 13.803C24.9024 13.803 25.0929 14.9714 25.995 16.1217C26.0008 16.1291 26.0066 16.1366 26.0125 16.1439C26.2656 16.4633 26.5735 16.7807 26.948 17.0707C27.7573 17.7038 28.7434 18.1206 29.8187 18.2338V36.121H22.2473C22.0045 36.121 21.8078 36.3177 21.8078 36.5605C21.8078 36.8032 22.0045 36.9999 22.2473 36.9999H30.2583C30.5011 36.9999 30.6978 36.8032 30.6978 36.5605V18.2571C31.1126 18.2363 31.5232 18.1708 31.922 18.0601C32.1558 17.9953 32.2928 17.753 32.2279 17.5192C32.163 17.2854 31.9207 17.1484 31.6869 17.2133C31.2734 17.328 30.8447 17.3862 30.4125 17.3862C27.7913 17.3862 25.6588 15.2537 25.6588 12.6326C25.6588 10.0115 27.7913 7.8789 30.4125 7.8789C33.0336 7.8789 35.1661 10.0114 35.1661 12.6326C35.1661 14.2315 34.3689 15.7141 33.0335 16.5986C32.8312 16.7326 32.7758 17.0053 32.9098 17.2077C33.0438 17.4101 33.3165 17.4654 33.5189 17.3314C35.1007 16.2837 36.0451 14.5272 36.0451 12.6327C36.045 9.52673 33.5182 7 30.4124 7Z" fill="#0084C8"/>
</svg>
