<svg width="44" height="44" viewBox="0 0 44 44" fill="none" xmlns="http://www.w3.org/2000/svg">
<path d="M44 22C44 34.1503 34.1503 44 22 44C9.84973 44 0 34.1503 0 22C0 9.84973 9.84973 0 22 0C34.1503 0 44 9.84973 44 22Z" fill="#80D9EB"/>
<path d="M30.2585 8.90283H12.3943V36.5605H30.2585V8.90283Z" fill="white"/>
<path d="M30.2583 8.90289V18.6632C27.0026 18.5815 24.3796 15.9076 24.3796 12.6328C24.3796 11.2258 24.8639 9.93027 25.674 8.90283H30.2583V8.90289Z" fill="#E4EAF8"/>
<path d="M21.4865 16.6343C21.4865 16.3926 21.6843 16.1948 21.926 16.1948H26.9637C27.2054 16.1948 27.4032 16.3926 27.4032 16.6343C27.4032 16.876 27.2054 17.0737 26.9637 17.0737H21.926C21.6843 17.0737 21.4865 16.876 21.4865 16.6343Z" fill="#C1C8D2"/>
<path d="M21.4865 15.4414C21.4865 15.1997 21.6843 15.002 21.926 15.002H26.9637C27.2054 15.002 27.4032 15.1997 27.4032 15.4414C27.4032 15.6831 27.2054 15.8809 26.9637 15.8809H21.926C21.6843 15.8809 21.4865 15.6831 21.4865 15.4414Z" fill="#C1C8D2"/>
<path d="M21.4865 14.2485C21.4865 14.0068 21.6843 13.8091 21.926 13.8091H26.9637C27.2054 13.8091 27.4032 14.0068 27.4032 14.2485C27.4032 14.4902 27.2054 14.688 26.9637 14.688H21.926C21.6843 14.688 21.4865 14.4902 21.4865 14.2485Z" fill="#C1C8D2"/>
<path d="M13.2898 8.90283H12.394V36.5605H13.2898V8.90283Z" fill="#E4EAF8"/>
<path d="M30.2583 8.90283H29.3625V36.5605H30.2583V8.90283Z" fill="#E4EAF8"/>
<path d="M30.4126 17.8259C33.2808 17.8259 35.6058 15.5008 35.6058 12.6327C35.6058 9.76453 33.2808 7.43945 30.4126 7.43945C27.5445 7.43945 25.2194 9.76453 25.2194 12.6327C25.2194 15.5008 27.5445 17.8259 30.4126 17.8259Z" fill="#56B3F7"/>
<path d="M33.7406 11.1705L32.3939 9.82373L29.4697 12.7479L28.123 11.4012L26.7762 12.7479L29.4697 15.4413L33.7406 11.1705Z" fill="#FFF4EB"/>
<path d="M15.3076 20.7129H16.9032C17.1459 20.7129 17.3426 20.5162 17.3426 20.2734C17.3426 20.0307 17.1459 19.834 16.9032 19.834H15.3076C15.0648 19.834 14.8681 20.0307 14.8681 20.2734C14.8681 20.5162 15.0647 20.7129 15.3076 20.7129Z" fill="#C1C8D2"/>
<path d="M19.5562 21.4492C19.5562 21.2065 19.3595 21.0098 19.1168 21.0098H15.3076C15.0648 21.0098 14.8681 21.2065 14.8681 21.4492C14.8681 21.692 15.0648 21.8887 15.3076 21.8887H19.1168C19.3595 21.8887 19.5562 21.6919 19.5562 21.4492Z" fill="#C1C8D2"/>
<path d="M18.8051 29.2344C18.5623 29.2344 18.3656 29.4311 18.3656 29.6738C18.3656 29.9166 18.5623 30.1133 18.8051 30.1133H23.8474C24.0901 30.1133 24.2868 29.9166 24.2868 29.6738C24.2868 29.4311 24.0901 29.2344 23.8474 29.2344H18.8051Z" fill="#C1C8D2"/>
<path d="M27.7843 30.8496C27.7843 30.6069 27.5876 30.4102 27.3449 30.4102H15.3076C15.0648 30.4102 14.8681 30.6069 14.8681 30.8496C14.8681 31.0924 15.0648 31.2891 15.3076 31.2891H27.3449C27.5876 31.2891 27.7843 31.0924 27.7843 30.8496Z" fill="#C1C8D2"/>
<path d="M16.4003 23.0195H15.3076C15.0648 23.0195 14.8681 23.2162 14.8681 23.459C14.8681 23.7017 15.0648 23.8984 15.3076 23.8984H16.4003C16.6431 23.8984 16.8398 23.7017 16.8398 23.459C16.8398 23.2162 16.6431 23.0195 16.4003 23.0195Z" fill="#C1C8D2"/>
<path d="M16.4003 24.3076H15.3076C15.0648 24.3076 14.8681 24.5043 14.8681 24.7471C14.8681 24.9898 15.0648 25.1865 15.3076 25.1865H16.4003C16.6431 25.1865 16.8398 24.9898 16.8398 24.7471C16.8398 24.5043 16.6431 24.3076 16.4003 24.3076Z" fill="#C1C8D2"/>
<path d="M16.4003 25.5952H15.3076C15.0648 25.5952 14.8681 25.7919 14.8681 26.0347C14.8681 26.2774 15.0648 26.4741 15.3076 26.4741H16.4003C16.6431 26.4741 16.8398 26.2774 16.8398 26.0347C16.8398 25.7919 16.6431 25.5952 16.4003 25.5952Z" fill="#C1C8D2"/>
<path d="M16.4003 26.8828H15.3076C15.0648 26.8828 14.8681 27.0795 14.8681 27.3223C14.8681 27.565 15.0648 27.7617 15.3076 27.7617H16.4003C16.6431 27.7617 16.8398 27.565 16.8398 27.3223C16.8398 27.0795 16.6431 26.8828 16.4003 26.8828Z" fill="#C1C8D2"/>
<path d="M17.6001 23.459C17.6001 23.7017 17.7968 23.8984 18.0395 23.8984H27.3449C27.5877 23.8984 27.7844 23.7017 27.7844 23.459C27.7844 23.2162 27.5877 23.0195 27.3449 23.0195H18.0395C17.7968 23.0195 17.6001 23.2163 17.6001 23.459Z" fill="#C1C8D2"/>
<path d="M20.5424 24.3076H18.0395C17.7968 24.3076 17.6001 24.5043 17.6001 24.7471C17.6001 24.9898 17.7968 25.1865 18.0395 25.1865H20.5424C20.7851 25.1865 20.9818 24.9898 20.9818 24.7471C20.9818 24.5043 20.7851 24.3076 20.5424 24.3076Z" fill="#C1C8D2"/>
<path d="M17.6001 26.0347C17.6001 26.2774 17.7968 26.4741 18.0395 26.4741H24.5735C24.8163 26.4741 25.013 26.2774 25.013 26.0347C25.013 25.7919 24.8163 25.5952 24.5735 25.5952H18.0395C17.7968 25.5952 17.6001 25.792 17.6001 26.0347Z" fill="#C1C8D2"/>
<path d="M26.9165 27.3223C26.9165 27.0795 26.7198 26.8828 26.477 26.8828H18.0395C17.7968 26.8828 17.6001 27.0795 17.6001 27.3223C17.6001 27.565 17.7968 27.7617 18.0395 27.7617H26.477C26.7198 27.7617 26.9165 27.565 26.9165 27.3223Z" fill="#C1C8D2"/>
<path d="M17.6674 33.5235C17.6674 33.6671 17.5506 33.7839 17.4071 33.7839C17.2635 33.7839 17.1467 33.6671 17.1467 33.5235C17.1467 32.8953 16.6356 32.3843 16.0075 32.3843C15.3792 32.3843 14.8682 32.8954 14.8682 33.5235C14.8682 33.7663 15.0649 33.963 15.3076 33.963C15.5504 33.963 15.7471 33.7663 15.7471 33.5235C15.7471 33.38 15.8639 33.2632 16.0075 33.2632C16.151 33.2632 16.2678 33.38 16.2678 33.5235C16.2678 34.1518 16.7789 34.6628 17.4071 34.6628C18.0353 34.6628 18.5463 34.1517 18.5463 33.5235C18.5463 33.2808 18.3496 33.0841 18.1069 33.0841C17.8641 33.0841 17.6674 33.2808 17.6674 33.5235Z" fill="#C1C8D2"/>
<path d="M27.3729 33.0841C27.1302 33.0841 26.9335 33.2808 26.9335 33.5235C26.9335 33.6671 26.8166 33.7839 26.6731 33.7839C26.5295 33.7839 26.4127 33.6671 26.4127 33.5235C26.4127 32.8953 25.9016 32.3843 25.2734 32.3843C24.6452 32.3843 24.1342 32.8954 24.1342 33.5235C24.1342 33.7663 24.3309 33.963 24.5736 33.963C24.8164 33.963 25.0131 33.7663 25.0131 33.5235C25.0131 33.38 25.1299 33.2632 25.2734 33.2632C25.417 33.2632 25.5338 33.38 25.5338 33.5235C25.5338 34.1518 26.0449 34.6628 26.6731 34.6628C27.3013 34.6628 27.8124 34.1517 27.8124 33.5235C27.8124 33.2808 27.6157 33.0841 27.3729 33.0841Z" fill="#C1C8D2"/>
<path d="M20.2841 10.9189H14.7974V18.5707H20.2841V10.9189Z" fill="#56B3F7"/>
<path d="M17.5676 16.1951C18.2123 16.1951 18.735 15.6724 18.735 15.0277C18.735 14.383 18.2123 13.8604 17.5676 13.8604C16.9229 13.8604 16.4003 14.383 16.4003 15.0277C16.4003 15.6724 16.9229 16.1951 17.5676 16.1951Z" fill="white"/>
<path d="M15.1925 18.5706C15.1925 17.2588 16.256 16.1953 17.5678 16.1953C18.8797 16.1953 19.9432 17.2588 19.9432 18.5706H15.1925V18.5706Z" fill="#FFC843"/>
<path d="M18.234 12.7041C18.4767 12.7041 18.6734 12.5074 18.6734 12.2646C18.6734 12.0219 18.4767 11.8252 18.234 11.8252H16.9016C16.6589 11.8252 16.4622 12.0219 16.4622 12.2646C16.4622 12.5074 16.6589 12.7041 16.9016 12.7041H18.234Z" fill="#00C395"/>
<path d="M21.926 12.0317H23.9789C24.2216 12.0317 24.4183 11.835 24.4183 11.5923C24.4183 11.3495 24.2216 11.1528 23.9789 11.1528H21.926C21.6832 11.1528 21.4865 11.3495 21.4865 11.5923C21.4865 11.835 21.6832 12.0317 21.926 12.0317Z" fill="#C1C8D2"/>
<path d="M22.6923 18.2651C22.935 18.2651 23.1317 18.0684 23.1317 17.8257C23.1317 17.5829 22.935 17.3862 22.6923 17.3862H21.926C21.6832 17.3862 21.4865 17.5829 21.4865 17.8257C21.4865 18.0684 21.6832 18.2651 21.926 18.2651H22.6923Z" fill="#C1C8D2"/>
<path d="M30.4126 7C28.9576 7 27.6297 7.55459 26.6291 8.46343H12.3942C12.1515 8.46343 11.9548 8.66013 11.9548 8.90289V36.5605C11.9548 36.8033 12.1515 37 12.3942 37H20.6156C20.8584 37 21.0551 36.8033 21.0551 36.5605C21.0551 36.3178 20.8584 36.1211 20.6156 36.1211H12.8337V9.34234H25.8437C25.1748 10.2686 24.78 11.4053 24.78 12.6326C24.78 13.0339 24.8225 13.4253 24.9026 13.803C24.9026 13.803 25.093 14.9714 25.9952 16.1217C26.001 16.1291 26.0068 16.1366 26.0127 16.1439C26.2657 16.4633 26.5737 16.7807 26.9482 17.0707C27.7575 17.7038 28.7435 18.1206 29.8189 18.2338V36.121H22.2474C22.0047 36.121 21.808 36.3177 21.808 36.5605C21.808 36.8032 22.0047 36.9999 22.2474 36.9999H30.2585C30.5012 36.9999 30.6979 36.8032 30.6979 36.5605V18.2571C31.1128 18.2363 31.5234 18.1708 31.9221 18.0601C32.156 17.9953 32.293 17.753 32.2281 17.5192C32.1632 17.2854 31.9208 17.1484 31.6871 17.2133C31.2736 17.328 30.8449 17.3862 30.4126 17.3862C27.7915 17.3862 25.659 15.2537 25.659 12.6326C25.659 10.0115 27.7915 7.8789 30.4126 7.8789C33.0338 7.8789 35.1663 10.0114 35.1663 12.6326C35.1663 14.2315 34.3691 15.7141 33.0337 16.5986C32.8314 16.7326 32.776 17.0053 32.91 17.2077C33.044 17.4101 33.3167 17.4654 33.5191 17.3314C35.1009 16.2837 36.0453 14.5272 36.0453 12.6327C36.0451 9.52673 33.5184 7 30.4126 7Z" fill="#0084C8"/>
</svg>
