<svg width="302" height="323" viewBox="0 0 302 323" fill="none" xmlns="http://www.w3.org/2000/svg">
<path d="M185.645 322.958C185.165 322.958 184.845 322.638 184.845 322.158C184.845 321.678 185.165 321.357 185.645 321.357C186.605 321.357 187.725 321.197 188.686 321.037C189.166 320.877 189.486 321.357 189.646 321.678C189.646 322.158 189.326 322.478 189.006 322.638C187.885 322.798 186.765 322.958 185.645 322.958C185.645 322.958 185.805 322.958 185.645 322.958ZM181.004 322.798C180.844 322.798 180.844 322.798 181.004 322.798C179.723 322.638 178.763 322.478 177.643 322.158C177.163 321.998 177.003 321.678 177.003 321.197C177.163 320.717 177.483 320.557 177.963 320.557C178.923 320.877 179.883 321.037 181.004 321.197C181.484 321.197 181.804 321.678 181.644 322.158C181.644 322.478 181.324 322.798 181.004 322.798ZM193.487 321.678C193.167 321.678 192.847 321.518 192.687 321.037C192.526 320.557 192.847 320.237 193.167 320.077C194.127 319.757 195.087 319.437 196.047 319.117C196.527 318.957 196.848 319.117 197.168 319.597C197.328 320.077 197.168 320.397 196.687 320.717C195.727 321.197 194.607 321.518 193.647 321.838C193.647 321.678 193.647 321.678 193.487 321.678ZM173.322 320.397C173.162 320.397 173.002 320.397 173.002 320.237L173.322 319.597L172.842 320.237L170.121 318.637C169.801 318.477 169.641 317.997 169.801 317.517C169.961 317.196 170.441 317.036 170.921 317.196L173.642 318.797C173.962 318.957 174.122 319.597 173.962 319.917C173.962 320.237 173.642 320.397 173.322 320.397ZM200.848 318.477C200.528 318.477 200.368 318.317 200.208 318.157C200.048 317.837 200.048 317.357 200.528 317.036L203.249 315.436C203.569 315.276 204.049 315.276 204.369 315.756C204.529 316.076 204.529 316.556 204.049 316.876L201.329 318.477C201.009 318.477 200.848 318.477 200.848 318.477ZM166.44 316.396C166.28 316.396 166.12 316.396 166.12 316.236L163.399 314.636C163.079 314.476 162.919 313.996 163.079 313.516C163.239 313.195 163.72 313.035 164.2 313.195L166.92 314.796C167.24 314.956 167.4 315.436 167.24 315.916C166.92 316.236 166.76 316.396 166.44 316.396ZM207.73 314.476C207.41 314.476 207.25 314.316 207.09 314.156C206.93 313.836 206.93 313.356 207.41 313.035L210.131 311.435C210.451 311.275 210.931 311.275 211.251 311.755C211.411 312.075 211.411 312.555 210.931 312.875L208.21 314.476C207.89 314.476 207.89 314.476 207.73 314.476ZM159.559 312.395C159.398 312.395 159.238 312.395 159.238 312.235L156.518 310.635C156.198 310.475 156.038 309.995 156.198 309.515C156.358 309.195 156.838 309.034 157.318 309.195L160.039 310.795C160.359 310.955 160.519 311.435 160.359 311.915C160.039 312.235 159.719 312.395 159.559 312.395ZM214.612 310.475C214.292 310.475 214.132 310.315 213.972 310.155C213.812 309.835 213.812 309.355 214.292 309.035L217.012 307.434C217.332 307.274 217.813 307.274 218.133 307.754C218.293 308.074 218.293 308.554 217.813 308.874L215.092 310.475C214.932 310.475 214.772 310.475 214.612 310.475ZM152.677 308.394C152.517 308.394 152.357 308.394 152.357 308.234L149.636 306.634C149.316 306.474 149.156 305.994 149.316 305.514C149.476 305.194 149.956 305.034 150.436 305.194L153.157 306.794C153.477 306.954 153.637 307.434 153.477 307.914C153.157 308.394 152.837 308.394 152.677 308.394ZM221.493 306.474C221.173 306.474 221.013 306.314 220.853 306.154C220.693 305.834 220.693 305.354 221.173 305.034L223.894 303.433C224.214 303.273 224.694 303.273 225.014 303.753C225.174 304.073 225.174 304.553 224.694 304.873L221.974 306.474C221.814 306.474 221.654 306.474 221.493 306.474ZM145.795 304.553C145.635 304.553 145.475 304.553 145.475 304.393L142.754 302.793C142.434 302.633 142.274 302.153 142.434 301.673C142.594 301.353 143.075 301.193 143.555 301.353L146.275 302.953C146.595 303.113 146.755 303.593 146.595 304.073C146.275 304.393 145.955 304.553 145.795 304.553ZM228.375 302.473C228.055 302.473 227.895 302.313 227.735 302.153C227.575 301.833 227.575 301.353 228.055 301.033L230.776 299.432C231.096 299.272 231.576 299.272 231.896 299.752C232.056 300.072 232.056 300.552 231.576 300.873L228.855 302.473C228.695 302.473 228.535 302.473 228.375 302.473ZM138.753 300.552C138.593 300.552 138.433 300.552 138.433 300.392L135.713 298.792C135.393 298.632 135.233 298.152 135.393 297.672C135.553 297.352 136.033 297.192 136.513 297.352L139.234 298.952C139.554 299.112 139.714 299.592 139.554 300.072C139.394 300.392 139.074 300.552 138.753 300.552ZM235.257 298.472C234.937 298.472 234.777 298.312 234.617 298.152C234.457 297.832 234.457 297.352 234.937 297.032L237.657 295.431C237.977 295.271 238.458 295.271 238.778 295.751C238.938 296.071 238.938 296.551 238.458 296.872L235.737 298.472C235.577 298.472 235.417 298.472 235.257 298.472ZM131.872 296.551C131.712 296.551 131.552 296.551 131.552 296.391L128.831 294.791C128.511 294.631 128.351 294.151 128.511 293.671C128.671 293.351 129.151 293.191 129.631 293.351L132.352 294.951C132.672 295.111 132.832 295.591 132.672 296.071C132.512 296.391 132.192 296.551 131.872 296.551ZM242.138 294.471C241.818 294.471 241.658 294.311 241.498 294.151C241.338 293.831 241.338 293.351 241.818 293.031L244.539 291.43C244.859 291.27 245.339 291.27 245.659 291.75C245.819 292.07 245.819 292.551 245.339 292.871L242.619 294.471C242.459 294.471 242.299 294.471 242.138 294.471ZM124.99 292.551C124.83 292.551 124.67 292.551 124.67 292.39L121.949 290.79C121.629 290.63 121.469 290.15 121.629 289.67C121.789 289.35 122.27 289.19 122.75 289.35L125.47 290.95C125.79 291.11 125.95 291.59 125.79 292.07C125.63 292.39 125.31 292.551 124.99 292.551ZM249.02 290.63C248.7 290.63 248.54 290.47 248.38 290.31C248.22 289.99 248.22 289.51 248.7 289.19L251.421 287.589C251.741 287.429 252.221 287.429 252.541 287.909C252.701 288.229 252.701 288.71 252.221 289.03L249.5 290.63C249.34 290.47 249.18 290.63 249.02 290.63ZM118.109 288.55C117.948 288.55 117.788 288.55 117.788 288.39L115.068 286.789C114.748 286.629 114.588 286.149 114.748 285.669C114.908 285.349 115.388 285.189 115.868 285.349L118.589 286.949C118.909 287.109 119.069 287.589 118.909 288.069C118.749 288.39 118.429 288.55 118.109 288.55ZM255.902 286.629C255.582 286.629 255.422 286.469 255.262 286.309C255.102 285.989 255.102 285.509 255.582 285.189L258.302 283.588C258.622 283.428 259.103 283.428 259.423 283.908C259.583 284.228 259.583 284.709 259.103 285.029L256.382 286.629C256.222 286.469 256.062 286.629 255.902 286.629ZM111.227 284.549C111.067 284.549 110.907 284.549 110.907 284.389L108.186 282.788C107.866 282.628 107.706 282.148 107.866 281.668C108.026 281.348 108.506 281.188 108.986 281.348L111.707 282.948C112.027 283.108 112.187 283.588 112.027 284.068C111.707 284.389 111.547 284.549 111.227 284.549ZM262.943 282.628C262.623 282.628 262.463 282.468 262.303 282.308C262.143 281.988 262.143 281.508 262.623 281.188L265.344 279.587C265.664 279.427 266.144 279.427 266.464 279.907C266.624 280.228 266.624 280.708 266.144 281.028L263.424 282.628C263.104 282.628 262.943 282.628 262.943 282.628ZM104.345 280.548C104.185 280.548 104.025 280.548 104.025 280.388L101.304 278.787C100.984 278.627 100.824 278.147 100.984 277.667C101.144 277.347 101.625 277.187 102.105 277.347L104.825 278.947C105.145 279.107 105.305 279.587 105.145 280.068C104.825 280.388 104.665 280.548 104.345 280.548ZM269.825 278.627C269.505 278.627 269.345 278.467 269.185 278.307C269.025 277.987 269.025 277.507 269.505 277.187L272.226 275.586C272.546 275.426 273.026 275.426 273.346 275.906C273.506 276.227 273.506 276.707 273.026 277.027L270.305 278.627C269.985 278.627 269.985 278.627 269.825 278.627ZM97.4635 276.547C97.3035 276.547 97.1435 276.547 97.1435 276.387L94.4228 274.786C94.1027 274.626 93.9427 274.146 94.1027 273.666C94.2628 273.346 94.7429 273.186 95.223 273.346L97.9436 274.946C98.2637 275.106 98.4238 275.586 98.2637 276.067C97.9436 276.387 97.6236 276.547 97.4635 276.547ZM276.707 274.626C276.387 274.626 276.227 274.466 276.067 274.306C275.907 273.986 275.907 273.506 276.387 273.186L279.107 271.585C279.427 271.425 279.908 271.425 280.228 271.906C280.388 272.226 280.388 272.706 279.908 273.026L277.187 274.626C276.867 274.626 276.867 274.626 276.707 274.626ZM90.5819 272.706C90.4218 272.706 90.2618 272.706 90.2618 272.546L87.5411 270.945C87.2211 270.785 87.061 270.305 87.2211 269.825C87.3811 269.505 87.8612 269.345 88.3413 269.505L91.062 271.105C91.3821 271.265 91.5421 271.746 91.3821 272.226C91.062 272.546 90.7419 272.706 90.5819 272.706ZM283.588 270.625C283.268 270.625 283.108 270.465 282.948 270.305C282.788 269.985 282.788 269.505 283.268 269.185L285.989 267.584C286.309 267.424 286.789 267.424 287.109 267.905C287.269 268.225 287.269 268.705 286.789 269.025L284.069 270.625C283.909 270.625 283.749 270.625 283.588 270.625ZM83.7002 268.705C83.5402 268.705 83.3801 268.705 83.3801 268.545L80.6595 266.944C80.3394 266.784 80.1794 266.304 80.3394 265.824C80.4994 265.504 80.9796 265.344 81.4597 265.504L84.1803 267.104C84.5004 267.264 84.6604 267.745 84.5004 268.225C84.1803 268.545 83.8602 268.705 83.7002 268.705ZM290.47 266.624C290.15 266.624 289.99 266.464 289.83 266.304C289.67 265.984 289.67 265.504 290.15 265.184L292.871 263.584C293.191 263.423 293.671 263.423 293.991 263.904C294.151 264.224 294.151 264.704 293.671 265.024L290.95 266.624C290.79 266.624 290.63 266.624 290.47 266.624ZM76.6585 264.704C76.4985 264.704 76.3384 264.704 76.3384 264.544L73.6178 262.943C73.2977 262.783 73.1377 262.303 73.2977 261.823C73.4577 261.503 73.9379 261.343 74.418 261.503L77.1386 263.103C77.4587 263.263 77.6187 263.744 77.4587 264.224C77.2987 264.544 76.9786 264.704 76.6585 264.704ZM297.192 262.463C297.032 262.463 296.712 262.303 296.552 262.143C296.232 261.823 296.392 261.343 296.712 261.023C297.512 260.383 298.152 259.583 298.792 258.942C299.112 258.622 299.592 258.462 299.912 258.782C300.232 259.102 300.393 259.583 300.072 259.903C299.432 260.703 298.632 261.663 297.672 262.303C297.512 262.463 297.352 262.463 297.192 262.463ZM69.7768 260.703C69.6168 260.703 69.4568 260.703 69.4568 260.543L66.7361 258.942C66.416 258.782 66.256 258.302 66.416 257.822C66.5761 257.502 67.0562 257.342 67.5363 257.502L70.257 259.102C70.577 259.262 70.7371 259.743 70.577 260.223C70.417 260.543 70.0969 260.703 69.7768 260.703ZM62.8952 256.702C62.7351 256.702 62.5751 256.702 62.5751 256.542L59.8545 254.941C59.5344 254.781 59.3743 254.301 59.5344 253.821C59.6944 253.501 60.1745 253.341 60.6546 253.501L63.3753 255.101C63.6954 255.262 63.8554 255.742 63.6954 256.222C63.5353 256.542 63.2153 256.702 62.8952 256.702ZM301.033 255.742C300.553 255.742 300.232 255.422 300.232 254.941C300.232 253.981 299.912 253.181 299.432 252.381C299.272 252.061 299.272 251.581 299.752 251.261C300.072 251.101 300.553 251.101 300.873 251.581C301.513 252.701 301.833 253.821 301.833 254.941C301.833 255.422 301.353 255.742 301.033 255.742ZM56.0135 252.701C55.8535 252.701 55.6934 252.701 55.6934 252.541L52.9728 250.94C52.6527 250.78 52.4927 250.3 52.6527 249.82C52.8128 249.5 53.2929 249.34 53.773 249.5L56.4936 251.101C56.8137 251.261 56.9738 251.741 56.8137 252.221C56.6537 252.541 56.3336 252.701 56.0135 252.701ZM296.712 249.5C296.552 249.5 296.392 249.5 296.232 249.34L293.511 247.74C293.191 247.58 293.031 247.1 293.191 246.619C293.351 246.299 293.831 246.139 294.311 246.299L297.032 247.9C297.352 248.06 297.512 248.7 297.352 249.02C297.192 249.34 296.872 249.5 296.712 249.5ZM49.1319 248.7C48.9718 248.7 48.8118 248.7 48.8118 248.54L46.0911 246.94C45.7711 246.779 45.611 246.299 45.7711 245.819C45.9311 245.499 46.4112 245.339 46.8913 245.499L49.612 247.1C49.9321 247.26 50.0921 247.74 49.9321 248.22C49.612 248.54 49.4519 248.7 49.1319 248.7ZM289.83 245.499C289.67 245.499 289.51 245.499 289.51 245.339L286.789 243.739C286.469 243.579 286.309 243.099 286.469 242.618C286.629 242.298 287.109 242.138 287.589 242.298L290.31 243.899C290.63 244.059 290.79 244.539 290.63 245.019C290.31 245.339 289.99 245.499 289.83 245.499ZM42.2502 244.699C42.0902 244.699 41.9301 244.699 41.9301 244.539L39.2095 242.939C38.8894 242.779 38.7294 242.298 38.8894 241.818C39.0494 241.498 39.5295 241.338 40.0097 241.498L42.7303 243.099C43.0504 243.259 43.2104 243.739 43.0504 244.219C42.7303 244.539 42.5703 244.699 42.2502 244.699ZM282.948 241.498C282.788 241.498 282.628 241.498 282.628 241.338L279.908 239.738C279.587 239.578 279.427 239.098 279.587 238.618C279.748 238.297 280.228 238.137 280.708 238.297L283.428 239.898C283.748 240.058 283.909 240.538 283.749 241.018C283.428 241.338 283.108 241.498 282.948 241.498ZM35.3685 240.698C35.2085 240.698 35.0485 240.698 35.0485 240.538L32.3278 238.938C32.0077 238.778 31.8477 238.297 32.0077 237.817C32.1678 237.497 32.6479 237.337 33.128 237.497L35.8487 239.098C36.1687 239.258 36.3288 239.738 36.1687 240.218C35.8487 240.698 35.6886 240.698 35.3685 240.698ZM275.907 237.497C275.747 237.497 275.587 237.497 275.587 237.337L272.866 235.737C272.546 235.577 272.386 235.097 272.546 234.617C272.706 234.296 273.186 234.136 273.666 234.296L276.387 235.897C276.707 236.057 276.867 236.537 276.707 237.017C276.547 237.337 276.227 237.497 275.907 237.497ZM28.4869 236.857C28.3268 236.857 28.1668 236.857 28.1668 236.697L25.4461 235.097C25.1261 234.937 24.966 234.456 25.1261 233.976C25.2861 233.656 25.7662 233.496 26.2463 233.656L28.967 235.257C29.2871 235.417 29.4471 235.897 29.2871 236.377C28.967 236.697 28.6469 236.857 28.4869 236.857ZM269.025 233.496C268.865 233.496 268.705 233.496 268.705 233.336L265.984 231.736C265.664 231.576 265.504 231.096 265.664 230.616C265.824 230.296 266.304 230.135 266.784 230.295L269.505 231.896C269.825 232.056 269.985 232.536 269.825 233.016C269.665 233.336 269.345 233.496 269.025 233.496ZM21.6052 232.856C21.4452 232.856 21.2851 232.856 21.2851 232.696L18.5645 231.096C18.2444 230.936 18.0844 230.456 18.2444 229.975C18.4044 229.655 18.8846 229.495 19.3647 229.655L22.0853 231.256C22.4054 231.416 22.5654 231.896 22.4054 232.376C22.0853 232.696 21.7653 232.856 21.6052 232.856ZM262.143 229.495C261.983 229.495 261.823 229.495 261.823 229.335L259.103 227.735C258.782 227.575 258.622 227.095 258.782 226.615C258.943 226.295 259.423 226.134 259.903 226.295L262.623 227.895C262.943 228.055 263.104 228.535 262.943 229.015C262.783 229.335 262.463 229.495 262.143 229.495ZM14.5635 228.855C14.4035 228.855 14.2434 228.855 14.2434 228.695L11.5228 227.095C11.2027 226.935 11.0427 226.455 11.2027 225.974C11.3627 225.654 11.8429 225.494 12.323 225.654L15.0436 227.255C15.3637 227.415 15.5237 227.895 15.3637 228.375C15.2037 228.695 14.8836 228.855 14.5635 228.855ZM255.262 225.494C255.102 225.494 254.942 225.494 254.942 225.334L252.221 223.734C251.901 223.574 251.741 223.094 251.901 222.614C252.061 222.294 252.541 222.134 253.021 222.294L255.742 223.894C256.062 224.054 256.222 224.534 256.062 225.014C255.902 225.334 255.582 225.494 255.262 225.494ZM7.68185 224.854C7.52182 224.854 7.36178 224.854 7.36178 224.694L4.64112 223.094C4.32104 222.934 4.161 222.294 4.32104 221.973C4.48108 221.653 5.12124 221.493 5.44131 221.653L8.16197 223.254C8.48205 223.414 8.64209 223.894 8.48205 224.374C8.32201 224.694 8.00193 224.854 7.68185 224.854ZM248.38 221.493C248.22 221.493 248.06 221.493 248.06 221.333L245.339 219.733C245.019 219.573 244.859 219.093 245.019 218.613C245.179 218.293 245.659 218.133 246.139 218.293L248.86 219.893C249.18 220.053 249.34 220.533 249.18 221.013C248.86 221.333 248.7 221.493 248.38 221.493ZM1.60039 219.893C1.28031 219.893 1.12027 219.733 0.960232 219.573C0.320077 218.453 0 217.332 0 216.212C0 215.732 0.320077 215.412 0.800193 215.412C1.28031 215.412 1.60039 215.732 1.60039 216.212C1.60039 217.172 1.92046 217.973 2.40058 218.773C2.56062 219.093 2.56062 219.573 2.0805 219.893C1.92046 219.893 1.76043 219.893 1.60039 219.893ZM241.498 217.492C241.338 217.492 241.178 217.492 241.178 217.332L238.458 215.732C238.137 215.572 237.977 215.092 238.137 214.612C238.298 214.292 238.778 214.132 239.258 214.292L241.978 215.892C242.298 216.052 242.459 216.532 242.298 217.012C241.978 217.492 241.818 217.492 241.498 217.492ZM234.617 213.651C234.457 213.651 234.297 213.651 234.297 213.491L231.576 211.891C231.256 211.731 231.096 211.251 231.256 210.771C231.416 210.451 231.896 210.291 232.376 210.451L235.097 212.051C235.417 212.211 235.577 212.691 235.417 213.171C235.097 213.491 234.777 213.651 234.617 213.651ZM2.24054 212.531C2.0805 212.531 1.92046 212.531 1.76043 212.371C1.44035 212.051 1.28031 211.571 1.60039 211.251C2.24054 210.451 3.04073 209.651 4.00097 208.85C4.32104 208.53 4.80116 208.69 5.12124 209.01C5.44131 209.33 5.28128 209.811 4.9612 210.131C4.161 210.771 3.52085 211.571 2.8807 212.211C2.72066 212.371 2.56062 212.531 2.24054 212.531ZM227.735 209.651C227.575 209.651 227.415 209.651 227.415 209.49L224.694 207.89C224.374 207.73 224.214 207.25 224.374 206.77C224.534 206.45 225.014 206.29 225.494 206.45L228.215 208.05C228.535 208.21 228.695 208.69 228.535 209.17C228.215 209.49 227.895 209.651 227.735 209.651ZM8.48205 207.57C8.16197 207.57 8.00193 207.41 7.84189 207.25C7.68185 206.93 7.68186 206.45 8.16197 206.13L10.8826 204.529C11.2027 204.369 11.6828 204.369 12.0029 204.849C12.1629 205.169 12.1629 205.65 11.6828 205.97L8.96216 207.57C8.80213 207.57 8.64209 207.57 8.48205 207.57ZM220.853 205.65C220.693 205.65 220.533 205.65 220.533 205.489L217.813 203.889C217.492 203.729 217.332 203.249 217.492 202.769C217.653 202.449 218.133 202.289 218.613 202.449L221.333 204.049C221.654 204.209 221.814 204.689 221.654 205.169C221.333 205.49 221.013 205.65 220.853 205.65ZM15.3637 203.569C15.0436 203.569 14.8836 203.409 14.7236 203.249C14.5635 202.929 14.5635 202.449 15.0436 202.129L17.7643 200.528C18.0844 200.368 18.5645 200.368 18.8846 200.848C19.0446 201.168 19.0446 201.649 18.5645 201.969L15.8438 203.569C15.6838 203.569 15.5237 203.569 15.3637 203.569ZM213.812 201.649C213.652 201.649 213.492 201.649 213.492 201.489L210.771 199.888C210.451 199.728 210.291 199.248 210.451 198.768C210.611 198.448 211.091 198.288 211.571 198.448L214.292 200.048C214.612 200.208 214.772 200.688 214.612 201.168C214.452 201.489 214.132 201.649 213.812 201.649ZM22.2454 199.568C21.9253 199.568 21.7653 199.408 21.6052 199.248C21.4452 198.928 21.4452 198.448 21.9253 198.128L24.646 196.527C24.966 196.367 25.4461 196.367 25.7662 196.847C25.9263 197.167 25.9263 197.648 25.4461 197.968L22.7255 199.568C22.5654 199.568 22.4054 199.568 22.2454 199.568ZM206.93 197.648C206.77 197.648 206.61 197.648 206.61 197.488L203.889 195.887C203.569 195.727 203.409 195.247 203.569 194.767C203.729 194.447 204.209 194.287 204.689 194.447L207.41 196.047C207.73 196.207 207.89 196.687 207.73 197.167C207.57 197.488 207.25 197.648 206.93 197.648ZM29.127 195.727C28.807 195.727 28.6469 195.567 28.4869 195.407C28.3268 195.087 28.3268 194.607 28.807 194.287L31.5276 192.686C31.8477 192.526 32.3278 192.526 32.6479 193.006C32.8079 193.327 32.8079 193.807 32.3278 194.127L29.6071 195.727C29.4471 195.567 29.2871 195.727 29.127 195.727ZM200.048 193.647C199.888 193.647 199.728 193.647 199.728 193.487L197.008 191.886C196.687 191.726 196.527 191.246 196.687 190.766C196.848 190.446 197.328 190.286 197.808 190.446L200.528 192.046C200.848 192.206 201.009 192.686 200.848 193.167C200.688 193.487 200.368 193.647 200.048 193.647ZM36.0087 191.726C35.6886 191.726 35.5286 191.566 35.3685 191.406C35.2085 191.086 35.2085 190.606 35.6886 190.286L38.4093 188.685C38.7294 188.525 39.2095 188.525 39.5295 189.006C39.6896 189.326 39.6896 189.806 39.2095 190.126L36.4888 191.726C36.3288 191.566 36.1687 191.726 36.0087 191.726ZM193.167 189.646C193.007 189.646 192.847 189.646 192.847 189.486L190.126 187.885C189.806 187.725 189.646 187.245 189.806 186.765C189.966 186.445 190.446 186.285 190.926 186.445L193.647 188.045C193.967 188.205 194.127 188.685 193.967 189.166C193.807 189.486 193.487 189.646 193.167 189.646ZM43.0504 187.725C42.7303 187.725 42.5703 187.565 42.4102 187.405C42.2502 187.085 42.2502 186.605 42.7303 186.285L45.451 184.684C45.7711 184.524 46.2512 184.524 46.5712 185.005C46.7313 185.325 46.7313 185.805 46.2512 186.125L43.5305 187.725C43.2104 187.725 43.0504 187.725 43.0504 187.725ZM186.285 185.645C186.125 185.645 185.965 185.645 185.965 185.485L183.244 183.884C182.924 183.724 182.764 183.244 182.924 182.764C183.084 182.444 183.564 182.284 184.044 182.444L186.765 184.044C187.085 184.204 187.245 184.684 187.085 185.165C186.765 185.485 186.605 185.645 186.285 185.645ZM49.9321 183.724C49.612 183.724 49.4519 183.564 49.2919 183.404C49.1319 183.084 49.1319 182.604 49.612 182.284L52.3326 180.684C52.6527 180.523 53.1328 180.523 53.4529 181.004C53.6129 181.324 53.6129 181.804 53.1328 182.124L50.4122 183.724C50.0921 183.724 50.0921 183.724 49.9321 183.724ZM179.403 181.644C179.243 181.644 179.083 181.644 179.083 181.484L176.363 179.883C176.042 179.723 175.882 179.243 176.043 178.763C176.203 178.443 176.683 178.283 177.163 178.443L179.883 180.043C180.203 180.203 180.364 180.684 180.204 181.164C179.883 181.644 179.723 181.644 179.403 181.644ZM56.8137 179.723C56.4936 179.723 56.3336 179.563 56.1736 179.403C56.0135 179.083 56.0135 178.603 56.4936 178.283L59.2143 176.683C59.5344 176.523 60.0145 176.523 60.3346 177.003C60.4946 177.323 60.4946 177.803 60.0145 178.123L57.2938 179.723C56.9738 179.723 56.9738 179.723 56.8137 179.723ZM172.522 177.803C172.362 177.803 172.202 177.803 172.202 177.643L169.481 176.042C169.161 175.882 169.001 175.402 169.161 174.922C169.321 174.602 169.801 174.442 170.281 174.602L173.002 176.202C173.322 176.362 173.482 176.843 173.322 177.323C173.002 177.643 172.842 177.803 172.522 177.803ZM63.6954 175.722C63.3753 175.722 63.2153 175.562 63.0552 175.402C62.8952 175.082 62.8952 174.602 63.3753 174.282L66.096 172.682C66.416 172.522 66.8962 172.522 67.2162 173.002C67.3763 173.322 67.3763 173.802 66.8961 174.122L64.1755 175.722C64.0155 175.722 63.8554 175.722 63.6954 175.722ZM165.64 173.802C165.48 173.802 165.32 173.802 165.32 173.642L162.599 172.041C162.279 171.881 162.119 171.401 162.279 170.921C162.439 170.601 162.919 170.441 163.399 170.601L166.12 172.201C166.44 172.362 166.6 172.842 166.44 173.322C166.12 173.642 165.8 173.802 165.64 173.802ZM70.577 171.721C70.257 171.721 70.0969 171.561 69.9369 171.401C69.7768 171.081 69.7768 170.601 70.257 170.281L72.9776 168.681C73.2977 168.521 73.7778 168.521 74.0979 169.001C74.2579 169.321 74.2579 169.801 73.7778 170.121L71.0572 171.721C70.8971 171.721 70.7371 171.721 70.577 171.721ZM158.758 169.801C158.598 169.801 158.438 169.801 158.438 169.641L155.718 168.04C155.398 167.88 155.237 167.4 155.398 166.92C155.558 166.6 156.038 166.44 156.518 166.6L159.238 168.201C159.559 168.361 159.719 168.841 159.559 169.321C159.238 169.641 158.918 169.801 158.758 169.801ZM77.4587 167.72C77.1386 167.72 76.9786 167.56 76.8185 167.4C76.6585 167.08 76.6585 166.6 77.1386 166.28L79.8593 164.68C80.1794 164.52 80.6595 164.52 80.9796 165C81.1396 165.32 81.1396 165.8 80.6595 166.12L77.9388 167.72C77.7788 167.72 77.6187 167.72 77.4587 167.72ZM151.717 165.8C151.557 165.8 151.397 165.8 151.397 165.64L148.676 164.04C148.356 163.879 148.196 163.399 148.356 162.919C148.516 162.599 148.996 162.439 149.476 162.599L152.197 164.2C152.517 164.36 152.677 164.84 152.517 165.32C152.357 165.64 152.037 165.8 151.717 165.8ZM84.3404 163.719C84.0203 163.719 83.8602 163.559 83.7002 163.399C83.5402 163.079 83.5402 162.599 84.0203 162.279L86.7409 160.679C87.061 160.519 87.5411 160.519 87.8612 160.999C88.0213 161.319 88.0213 161.799 87.5411 162.119L84.8205 163.719C84.6604 163.719 84.5004 163.719 84.3404 163.719ZM144.835 161.799C144.675 161.799 144.515 161.799 144.515 161.639L141.794 160.039C141.474 159.879 141.314 159.398 141.474 158.918C141.634 158.598 142.114 158.438 142.594 158.598L145.315 160.199C145.635 160.359 145.795 160.839 145.635 161.319C145.475 161.639 145.155 161.799 144.835 161.799ZM91.222 159.879C90.9019 159.879 90.7419 159.718 90.5819 159.558C90.4218 159.238 90.4218 158.758 90.9019 158.438L93.6226 156.838C93.9427 156.678 94.4228 156.678 94.7429 157.158C94.9029 157.478 94.9029 157.958 94.4228 158.278L91.7021 159.879C91.5421 159.718 91.3821 159.879 91.222 159.879ZM137.953 157.798C137.793 157.798 137.633 157.798 137.633 157.638L134.913 156.038C134.592 155.878 134.432 155.397 134.592 154.917C134.753 154.597 135.233 154.437 135.713 154.597L138.433 156.198C138.753 156.358 138.914 156.838 138.753 157.318C138.593 157.638 138.273 157.798 137.953 157.798ZM98.1037 155.878C97.7836 155.878 97.6236 155.717 97.4635 155.557C97.3035 155.237 97.3035 154.757 97.7836 154.437L100.504 152.837C100.824 152.677 101.304 152.677 101.625 153.157C101.785 153.477 101.785 153.957 101.304 154.277L98.5838 155.878C98.4238 155.718 98.2637 155.878 98.1037 155.878ZM131.072 153.797C130.912 153.797 130.752 153.797 130.752 153.637L128.031 152.037C127.711 151.877 127.551 151.396 127.711 150.916C127.871 150.596 128.351 150.436 128.831 150.596L131.552 152.197C131.872 152.357 132.032 152.837 131.872 153.317C131.712 153.637 131.392 153.797 131.072 153.797ZM105.145 152.037C104.825 152.037 104.505 151.877 104.345 151.556C104.185 151.076 104.345 150.756 104.825 150.436C105.786 149.956 106.906 149.636 107.866 149.316C108.346 149.156 108.666 149.476 108.826 149.796C108.986 150.276 108.666 150.596 108.346 150.756C107.386 151.076 106.426 151.396 105.465 151.717C105.305 152.037 105.305 152.037 105.145 152.037ZM123.87 150.436H123.71C122.75 150.116 121.789 149.956 120.669 149.796C120.189 149.796 119.869 149.316 120.029 148.836C120.029 148.356 120.509 148.036 120.989 148.196C122.109 148.356 123.23 148.516 124.19 148.836C124.67 148.996 124.83 149.316 124.83 149.796C124.51 150.276 124.19 150.436 123.87 150.436ZM112.827 149.956C112.507 149.956 112.027 149.636 112.027 149.316C112.027 148.836 112.347 148.516 112.667 148.356C113.787 148.196 114.908 148.196 115.868 148.036C116.348 148.036 116.668 148.356 116.668 148.836C116.668 149.316 116.348 149.636 115.868 149.636C115.068 149.796 113.948 149.796 112.827 149.956Z" fill="#A8CFF0"/>
<path d="M173.482 309.675L17.9247 219.894C15.204 218.293 13.7637 216.213 13.7637 213.972V206.29C13.7637 203.57 15.8442 208.211 19.6851 206.13L108.026 155.078C115.068 150.917 125.791 150.597 132.032 154.118L287.59 243.9C289.67 245.02 291.111 240.059 291.591 241.659C291.751 242.139 291.591 249.181 291.591 249.821C291.591 252.542 289.67 255.422 285.669 257.823L197.328 308.875C190.446 312.716 179.724 313.196 173.482 309.675Z" fill="#2672AB"/>
<path d="M173.482 302.153L17.9244 212.211C11.8429 208.69 12.483 202.449 19.6848 198.448L108.026 147.395C115.068 143.234 125.79 142.914 132.032 146.435L287.589 236.217C293.671 239.738 293.031 245.979 285.829 249.98L197.488 301.033C190.446 305.194 179.723 305.674 173.482 302.153Z" fill="#D1EBFF"/>
<path opacity="0.5" d="M173.482 309.675C179.563 313.196 190.286 312.716 197.488 308.715V301.193C190.446 305.354 179.723 305.674 173.482 302.154V309.675Z" fill="#3F92D1"/>
<path d="M173.482 302.153L17.9243 212.211C14.8836 210.451 13.6032 208.21 13.7633 205.81C13.7633 205.97 13.7633 206.13 13.7633 206.29V213.972C13.7633 216.212 15.2036 218.293 17.9243 219.893L173.482 309.675V302.153Z" fill="#3F92D1"/>
<path d="M285.829 248.86L197.488 299.912C190.446 304.073 179.724 304.393 173.482 300.872L17.9245 210.931C15.3639 209.49 14.0836 207.57 13.7635 205.489C13.4434 208.05 14.7237 210.45 17.9245 212.211L173.482 301.993C179.564 305.513 190.286 305.033 197.488 301.032L285.829 249.98C289.99 247.579 291.911 244.539 291.591 241.658C291.271 244.219 289.35 246.779 285.829 248.86Z" fill="white"/>
<path opacity="0.3" d="M138.113 270.786L82.7399 238.778C81.6196 238.138 81.7797 237.018 83.06 236.217L103.865 224.215C105.145 223.414 107.066 223.414 108.186 224.055L163.559 256.062C164.68 256.702 164.52 257.823 163.239 258.623L142.434 270.626C141.154 271.266 139.234 271.426 138.113 270.786Z" fill="white"/>
<path d="M83.0603 237.497L103.865 225.494C105.146 224.694 107.066 224.694 108.186 225.334L163.56 257.342C163.72 257.502 163.88 257.662 164.04 257.822C164.52 257.182 164.36 256.542 163.56 256.062L108.186 224.054C107.066 223.414 105.146 223.574 103.865 224.214L83.0603 236.217C82.1001 236.857 81.78 237.657 82.2601 238.297C82.4202 237.977 82.7402 237.817 83.0603 237.497Z" fill="#A8CFF0"/>
<path d="M121.789 157.958L131.392 163.4C132.672 164.04 134.592 164.04 135.713 163.4C136.993 162.759 136.833 161.639 135.713 160.839L126.11 155.398C124.83 154.757 122.91 154.757 121.789 155.398C120.509 156.198 120.509 157.318 121.789 157.958ZM138.113 167.4L142.594 169.961C143.875 170.601 145.795 170.601 146.915 169.961C148.196 169.321 148.036 168.201 146.915 167.4L142.434 164.84C141.154 164.2 139.234 164.2 138.113 164.84C136.993 165.64 136.993 166.76 138.113 167.4ZM149.476 173.962L153.957 176.523C155.237 177.163 157.158 177.163 158.278 176.523C159.558 175.883 159.398 174.762 158.278 173.962L153.797 171.401C152.517 170.761 150.596 170.761 149.476 171.401C148.196 172.202 148.196 173.322 149.476 173.962ZM160.839 180.524L165.32 183.084C166.6 183.724 168.521 183.724 169.641 183.084C170.921 182.444 170.761 181.324 169.641 180.524L165.16 177.963C163.88 177.323 161.959 177.323 160.839 177.963C159.558 178.603 159.558 179.723 160.839 180.524ZM172.041 187.085L176.523 189.646C177.803 190.286 179.723 190.286 180.844 189.646C182.124 189.006 181.964 187.885 180.844 187.085L176.363 184.525C175.082 183.884 173.162 183.884 172.041 184.525C170.921 185.165 170.921 186.285 172.041 187.085ZM183.404 193.487L187.885 196.047C189.166 196.688 191.086 196.688 192.206 196.047C193.487 195.407 193.327 194.287 192.206 193.487L187.725 190.926C186.445 190.286 184.524 190.286 183.404 190.926C182.124 191.726 182.124 192.847 183.404 193.487ZM194.767 200.048L199.248 202.609C200.528 203.249 202.449 203.249 203.569 202.609C204.849 201.969 204.689 200.849 203.569 200.048L199.088 197.488C197.808 196.848 195.887 196.848 194.767 197.488C193.487 198.288 193.487 199.408 194.767 200.048ZM205.97 206.61L210.451 209.171C211.731 209.811 213.652 209.811 214.772 209.171C216.052 208.53 215.892 207.41 214.772 206.61L210.291 204.049C209.01 203.409 207.09 203.409 205.97 204.049C204.849 204.85 204.849 205.97 205.97 206.61ZM217.332 213.172L221.813 215.732C223.094 216.372 225.014 216.372 226.135 215.732C227.415 215.092 227.255 213.972 226.135 213.172L221.653 210.611C220.373 209.971 218.453 209.971 217.332 210.611C216.212 211.251 216.212 212.531 217.332 213.172ZM228.695 219.733L233.176 222.294C234.457 222.934 236.377 222.934 237.497 222.294C238.778 221.654 238.618 220.533 237.497 219.733L233.016 217.172C231.736 216.532 229.815 216.532 228.695 217.172C227.415 217.813 227.415 218.933 228.695 219.733ZM240.058 226.295L244.539 228.855C245.819 229.495 247.74 229.495 248.86 228.855C249.98 228.215 249.98 227.095 248.86 226.295L244.379 223.734C243.099 223.094 241.178 223.094 240.058 223.734C238.778 224.374 238.778 225.495 240.058 226.295ZM251.261 232.696L255.742 235.257C257.022 235.897 258.942 235.897 260.063 235.257C261.343 234.617 261.183 233.496 260.063 232.696L255.582 230.136C254.301 229.495 252.381 229.495 251.261 230.136C250.14 230.936 250.14 232.056 251.261 232.696ZM262.943 239.418L267.424 241.978C268.705 242.619 270.625 242.619 271.746 241.978C273.026 241.338 272.866 240.218 271.746 239.418L267.264 236.857C265.984 236.217 264.064 236.217 262.943 236.857C261.663 237.657 261.663 238.778 262.943 239.418ZM111.547 164.2L115.548 166.44C116.988 167.24 119.229 167.24 120.509 166.44L124.35 164.2C125.79 163.4 125.79 162.119 124.35 161.319L120.509 159.078C119.069 158.278 116.828 158.278 115.548 159.078L111.707 161.319C110.267 162.119 110.267 163.4 111.547 164.2ZM131.872 173.002L135.713 170.761C137.153 169.961 137.153 168.681 135.713 167.881L131.872 165.64C130.431 164.84 128.191 164.84 126.911 165.64L123.07 167.881C121.629 168.681 121.629 169.961 123.07 170.761L126.911 173.002C128.191 173.802 130.431 173.802 131.872 173.002ZM134.272 177.323L138.113 179.563C139.554 180.364 141.794 180.364 143.074 179.563L146.915 177.323C148.356 176.523 148.356 175.242 146.915 174.442L143.074 172.202C141.634 171.401 139.394 171.401 138.113 172.202L134.272 174.442C132.832 175.242 132.832 176.523 134.272 177.323ZM145.635 183.884L149.476 186.125C150.916 186.925 153.157 186.925 154.437 186.125L158.278 183.884C159.719 183.084 159.719 181.804 158.278 181.004L154.437 178.763C152.997 177.963 150.756 177.963 149.476 178.763L145.635 181.004C144.195 181.804 144.195 183.084 145.635 183.884ZM169.641 187.565L165.8 185.325C164.36 184.525 162.119 184.525 160.839 185.325L156.998 187.565C155.558 188.366 155.558 189.646 156.998 190.446L160.839 192.687C162.279 193.487 164.52 193.487 165.8 192.687L169.641 190.446C171.081 189.646 171.081 188.366 169.641 187.565ZM181.004 193.967L177.163 191.726C175.722 190.926 173.482 190.926 172.202 191.726L168.361 193.967C166.92 194.767 166.92 196.047 168.361 196.848L172.202 199.088C173.642 199.888 175.882 199.888 177.163 199.088L181.004 196.848C182.444 196.047 182.284 194.767 181.004 193.967ZM192.366 200.528L188.525 198.288C187.085 197.488 184.845 197.488 183.564 198.288L179.723 200.528C178.283 201.329 178.283 202.609 179.723 203.409L183.564 205.65C185.005 206.45 187.245 206.45 188.525 205.65L192.366 203.409C193.647 202.609 193.647 201.329 192.366 200.528ZM203.569 207.09L199.728 204.85C198.288 204.049 196.047 204.049 194.767 204.85L190.926 207.09C189.486 207.89 189.486 209.171 190.926 209.971L194.767 212.211C196.207 213.012 198.448 213.012 199.728 212.211L203.569 209.971C205.009 209.171 205.009 207.89 203.569 207.09ZM214.932 213.652L211.091 211.411C209.651 210.611 207.41 210.611 206.13 211.411L202.289 213.652C200.848 214.452 200.848 215.732 202.289 216.532L206.13 218.773C207.57 219.573 209.811 219.573 211.091 218.773L214.932 216.532C216.372 215.732 216.372 214.452 214.932 213.652ZM226.295 220.213L222.454 217.973C221.013 217.172 218.773 217.172 217.492 217.973L213.652 220.213C212.211 221.013 212.211 222.294 213.652 223.094L217.492 225.334C218.933 226.135 221.173 226.135 222.454 225.334L226.295 223.094C227.575 222.294 227.575 221.013 226.295 220.213ZM224.854 229.495L228.695 231.736C230.135 232.536 232.376 232.536 233.656 231.736L237.497 229.495C238.938 228.695 238.938 227.415 237.497 226.615L233.656 224.374C232.216 223.574 229.975 223.574 228.695 224.374L224.854 226.615C223.414 227.415 223.414 228.695 224.854 229.495ZM248.86 233.176L245.019 230.936C243.579 230.136 241.338 230.136 240.058 230.936L236.217 233.176C234.777 233.977 234.777 235.257 236.217 236.057L240.058 238.298C241.498 239.098 243.739 239.098 245.019 238.298L248.86 236.057C250.3 235.257 250.3 233.977 248.86 233.176ZM265.504 242.779L256.542 237.657C255.102 236.857 252.861 236.857 251.581 237.657L247.74 239.898C246.299 240.698 246.299 241.978 247.74 242.779L256.702 247.9C258.142 248.7 260.383 248.7 261.663 247.9L265.504 245.659C266.784 244.859 266.784 243.579 265.504 242.779ZM101.144 170.281L110.107 175.402C111.547 176.203 113.787 176.203 115.068 175.402L118.909 173.162C120.349 172.362 120.349 171.081 118.909 170.281L109.946 165.16C108.506 164.36 106.266 164.36 104.985 165.16L101.144 167.4C99.704 168.201 99.704 169.481 101.144 170.281ZM117.468 179.723L121.309 181.964C122.75 182.764 124.99 182.764 126.27 181.964L130.111 179.723C131.552 178.923 131.552 177.643 130.111 176.843L126.27 174.602C124.83 173.802 122.59 173.802 121.309 174.602L117.468 176.843C116.028 177.643 116.028 178.923 117.468 179.723ZM132.672 188.526C134.112 189.326 136.353 189.326 137.633 188.526L141.474 186.285C142.914 185.485 142.914 184.205 141.474 183.404L137.633 181.164C136.193 180.364 133.952 180.364 132.672 181.164L128.831 183.404C127.391 184.205 127.391 185.485 128.831 186.285L132.672 188.526ZM144.035 195.087C145.475 195.887 147.716 195.887 148.996 195.087L152.837 192.847C154.277 192.046 154.277 190.766 152.837 189.966L148.996 187.725C147.556 186.925 145.315 186.925 144.035 187.725L140.194 189.966C138.753 190.766 138.753 192.046 140.194 192.847L144.035 195.087ZM155.237 194.127L151.397 196.367C149.956 197.168 149.956 198.448 151.397 199.248L155.237 201.489C156.678 202.289 158.918 202.289 160.199 201.489L164.04 199.248C165.48 198.448 165.48 197.168 164.04 196.367L160.199 194.127C158.918 193.327 156.678 193.327 155.237 194.127ZM166.92 200.528L162.599 203.089C161.319 203.729 161.319 205.01 162.599 205.65L166.92 208.21C168.201 209.011 170.121 209.011 171.401 208.21L175.722 205.65C177.003 205.01 177.003 203.729 175.722 203.089L171.401 200.528C170.121 199.888 168.041 199.888 166.92 200.528ZM178.123 207.09L173.802 209.651C172.522 210.291 172.522 211.571 173.802 212.211L178.123 214.772C179.403 215.572 181.324 215.572 182.604 214.772L186.925 212.211C188.205 211.571 188.205 210.291 186.925 209.651L182.604 207.09C181.484 206.45 179.403 206.45 178.123 207.09ZM189.486 213.652L185.165 216.212C183.884 216.852 183.884 218.133 185.165 218.773L189.486 221.334C190.766 222.134 192.686 222.134 193.967 221.334L198.288 218.773C199.568 218.133 199.568 216.852 198.288 216.212L193.967 213.652C192.686 212.851 190.766 212.851 189.486 213.652ZM200.848 220.213L196.527 222.774C195.247 223.414 195.247 224.694 196.527 225.334L200.848 227.895C202.129 228.695 204.049 228.695 205.33 227.895L209.651 225.334C210.931 224.694 210.931 223.414 209.651 222.774L205.33 220.213C204.049 219.413 202.129 219.413 200.848 220.213ZM212.051 226.775L207.73 229.335C206.45 229.976 206.45 231.256 207.73 231.896L212.051 234.457C213.331 235.257 215.252 235.257 216.532 234.457L220.853 231.896C222.134 231.256 222.134 229.976 220.853 229.335L216.532 226.775C215.412 225.975 213.331 225.975 212.051 226.775ZM228.055 240.858L232.376 238.298C233.656 237.657 233.656 236.377 232.376 235.737L228.055 233.176C226.775 232.376 224.854 232.376 223.574 233.176L219.253 235.737C217.973 236.377 217.973 237.657 219.253 238.298L223.574 240.858C224.694 241.658 226.775 241.658 228.055 240.858ZM239.258 247.42L243.579 244.859C244.859 244.219 244.859 242.939 243.579 242.299L239.258 239.738C237.977 238.938 236.057 238.938 234.777 239.738L230.456 242.299C229.175 242.939 229.175 244.219 230.456 244.859L234.777 247.42C236.057 248.22 238.137 248.22 239.258 247.42ZM255.262 249.02L250.941 246.46C249.66 245.659 247.74 245.659 246.459 246.46L242.138 249.02C240.858 249.66 240.858 250.941 242.138 251.581L246.459 254.141C247.74 254.942 249.66 254.942 250.941 254.141L255.262 251.581C256.542 250.941 256.542 249.66 255.262 249.02ZM90.4218 176.203L104.665 184.365C105.946 185.165 107.866 185.165 109.146 184.365L113.467 181.804C114.748 181.164 114.748 179.884 113.467 179.243L99.2239 171.081C97.9436 170.281 96.0231 170.281 94.7428 171.081L90.4218 173.642C89.1415 174.282 89.1415 175.402 90.4218 176.203ZM111.547 188.366L115.868 190.926C117.148 191.726 119.069 191.726 120.349 190.926L124.67 188.366C125.95 187.725 125.95 186.445 124.67 185.805L120.349 183.244C119.069 182.444 117.148 182.444 115.868 183.244L111.547 185.805C110.267 186.445 110.267 187.725 111.547 188.366ZM122.91 194.927L127.231 197.488C128.511 198.288 130.431 198.288 131.712 197.488L136.033 194.927C137.313 194.287 137.313 193.007 136.033 192.367L131.712 189.806C130.431 189.006 128.511 189.006 127.231 189.806L122.91 192.367C121.629 193.007 121.629 194.127 122.91 194.927ZM134.112 201.489L138.433 204.049C139.714 204.85 141.634 204.85 142.914 204.049L147.236 201.489C148.516 200.849 148.516 199.568 147.236 198.928L142.914 196.367C141.634 195.567 139.714 195.567 138.433 196.367L134.112 198.928C132.832 199.568 132.992 200.689 134.112 201.489ZM154.437 210.451L158.758 207.89C160.039 207.25 160.039 205.97 158.758 205.33L154.437 202.769C153.157 201.969 151.236 201.969 149.956 202.769L145.635 205.33C144.355 205.97 144.355 207.25 145.635 207.89L149.956 210.451C151.076 211.251 153.157 211.251 154.437 210.451ZM165.64 217.012L169.961 214.452C171.241 213.812 171.241 212.531 169.961 211.891L165.64 209.331C164.36 208.53 162.439 208.53 161.159 209.331L156.838 211.891C155.558 212.531 155.558 213.812 156.838 214.452L161.159 217.012C162.439 217.813 164.52 217.813 165.64 217.012ZM177.003 223.574L181.324 221.013C182.604 220.373 182.604 219.093 181.324 218.453L177.003 215.892C175.722 215.092 173.802 215.092 172.522 215.892L168.201 218.453C166.92 219.093 166.92 220.373 168.201 221.013L172.522 223.574C173.802 224.374 175.722 224.374 177.003 223.574ZM188.365 230.136L192.686 227.575C193.967 226.935 193.967 225.655 192.686 225.014L188.365 222.454C187.085 221.654 185.165 221.654 183.884 222.454L179.563 225.014C178.283 225.655 178.283 226.935 179.563 227.575L183.884 230.136C185.005 230.776 187.085 230.776 188.365 230.136ZM199.728 236.697L204.049 234.137C205.33 233.496 205.33 232.216 204.049 231.576L199.728 229.015C198.448 228.215 196.527 228.215 195.247 229.015L190.926 231.576C189.646 232.216 189.646 233.496 190.926 234.137L195.247 236.697C196.367 237.337 198.448 237.337 199.728 236.697ZM210.931 243.259L215.252 240.698C216.532 240.058 216.532 238.778 215.252 238.138L210.931 235.577C209.651 234.777 207.73 234.777 206.45 235.577L202.129 238.138C200.848 238.778 200.848 240.058 202.129 240.698L206.45 243.259C207.73 243.899 209.651 243.899 210.931 243.259ZM213.331 247.1L217.652 249.66C218.933 250.461 220.853 250.461 222.134 249.66L226.455 247.1C227.735 246.46 227.735 245.179 226.455 244.539L222.134 241.978C220.853 241.178 218.933 241.178 217.652 241.978L213.331 244.539C212.051 245.339 212.211 246.46 213.331 247.1ZM244.699 255.102L233.496 248.7C232.216 247.9 230.296 247.9 229.015 248.7L224.694 251.261C223.414 251.901 223.414 253.181 224.694 253.821L235.897 260.223C237.177 261.023 239.098 261.023 240.378 260.223L244.699 257.662C245.979 256.862 245.979 255.742 244.699 255.102ZM80.0193 182.604L100.184 194.287C101.624 195.087 103.865 195.087 105.305 194.287L109.146 192.046C110.587 191.246 110.587 189.966 109.146 189.166L88.9814 177.483C87.5411 176.683 85.3005 176.683 83.8602 177.483L80.0193 179.723C78.5789 180.364 78.5789 181.804 80.0193 182.604ZM107.546 198.448L111.387 200.689C112.827 201.489 115.068 201.489 116.508 200.689L120.349 198.448C121.789 197.648 121.789 196.367 120.349 195.567L116.508 193.327C115.068 192.527 112.827 192.527 111.387 193.327L107.546 195.567C106.266 196.367 106.266 197.648 107.546 198.448ZM118.909 205.01L122.75 207.25C124.19 208.05 126.43 208.05 127.871 207.25L131.712 205.01C133.152 204.209 133.152 202.929 131.712 202.129L127.871 199.888C126.43 199.088 124.19 199.088 122.75 199.888L118.909 202.129C117.468 202.929 117.468 204.209 118.909 205.01ZM130.271 211.571L134.112 213.812C135.553 214.612 137.793 214.612 139.234 213.812L143.074 211.571C144.515 210.771 144.515 209.491 143.074 208.69L139.234 206.45C137.793 205.65 135.553 205.65 134.112 206.45L130.271 208.69C128.831 209.491 128.831 210.771 130.271 211.571ZM141.634 218.133L145.475 220.373C146.915 221.173 149.156 221.173 150.596 220.373L154.437 218.133C155.878 217.333 155.878 216.052 154.437 215.252L150.596 213.012C149.156 212.211 146.915 212.211 145.475 213.012L141.634 215.252C140.194 216.052 140.194 217.333 141.634 218.133ZM152.837 224.694L156.678 226.935C158.118 227.735 160.359 227.735 161.799 226.935L165.64 224.694C167.08 223.894 167.08 222.614 165.64 221.814L161.799 219.573C160.359 218.773 158.118 218.773 156.678 219.573L152.837 221.814C151.397 222.454 151.557 223.894 152.837 224.694ZM164.2 231.096L168.041 233.336C169.481 234.137 171.721 234.137 173.162 233.336L177.003 231.096C178.443 230.296 178.443 229.015 177.003 228.215L173.162 225.975C171.721 225.174 169.481 225.174 168.041 225.975L164.2 228.215C162.759 229.015 162.759 230.296 164.2 231.096ZM175.562 237.657L179.403 239.898C180.844 240.698 183.084 240.698 184.524 239.898L188.365 237.657C189.806 236.857 189.806 235.577 188.365 234.777L184.524 232.536C183.084 231.736 180.844 231.736 179.403 232.536L175.562 234.777C174.122 235.577 174.122 236.857 175.562 237.657ZM186.765 244.219L190.606 246.46C192.046 247.26 194.287 247.26 195.727 246.46L199.568 244.219C201.008 243.419 201.008 242.139 199.568 241.338L195.727 239.098C194.287 238.298 192.046 238.298 190.606 239.098L186.765 241.338C185.485 242.139 185.485 243.419 186.765 244.219ZM198.128 250.781L201.969 253.021C203.409 253.821 205.65 253.821 207.09 253.021L210.931 250.781C212.371 249.98 212.371 248.7 210.931 247.9L207.09 245.659C205.65 244.859 203.409 244.859 201.969 245.659L198.128 247.9C196.687 248.7 196.687 249.98 198.128 250.781ZM209.491 257.342L213.331 259.583C214.772 260.383 217.012 260.383 218.453 259.583L222.294 257.342C223.734 256.542 223.734 255.262 222.294 254.461L218.453 252.221C217.012 251.421 214.772 251.421 213.331 252.221L209.491 254.461C208.05 255.102 208.05 256.542 209.491 257.342ZM233.656 261.023L229.815 258.783C228.375 257.982 226.135 257.982 224.694 258.783L220.853 261.023C219.413 261.823 219.413 263.104 220.853 263.904L224.694 266.144C226.135 266.945 228.375 266.945 229.815 266.144L233.656 263.904C235.097 263.264 235.097 261.823 233.656 261.023ZM87.221 188.526L78.4189 183.404C76.9785 182.604 74.738 182.604 73.2976 183.404L69.4567 185.645C68.0164 186.445 68.0164 187.725 69.4567 188.526L78.2589 193.647C79.6992 194.447 81.9397 194.447 83.3801 193.647L87.221 191.406C88.6614 190.766 88.6614 189.326 87.221 188.526ZM98.5838 195.087L94.7428 192.847C93.3025 192.046 91.0619 192.046 89.6216 192.847L85.7807 195.087C84.3403 195.887 84.3403 197.168 85.7807 197.968L89.6216 200.208C91.0619 201.009 93.3025 201.009 94.7428 200.208L98.5838 197.968C99.8641 197.168 99.8641 195.887 98.5838 195.087ZM109.786 201.649L105.946 199.408C104.505 198.608 102.265 198.608 100.824 199.408L96.9834 201.649C95.543 202.449 95.543 203.729 96.9834 204.529L100.824 206.77C102.265 207.57 104.505 207.57 105.946 206.77L109.786 204.529C111.227 203.729 111.227 202.449 109.786 201.649ZM189.006 247.42L117.308 205.97C115.868 205.17 113.627 205.17 112.187 205.97L108.346 208.21C106.906 209.011 106.906 210.291 108.346 211.091L180.043 252.541C181.484 253.341 183.724 253.341 185.165 252.541L189.006 250.3C190.446 249.5 190.446 248.22 189.006 247.42ZM200.368 253.981L196.527 251.741C195.087 250.941 192.847 250.941 191.406 251.741L187.565 253.981C186.125 254.782 186.125 256.062 187.565 256.862L191.406 259.103C192.847 259.903 195.087 259.903 196.527 259.103L200.368 256.862C201.809 256.062 201.809 254.782 200.368 253.981ZM211.731 260.383L207.89 258.142C206.45 257.342 204.209 257.342 202.769 258.142L198.928 260.383C197.488 261.183 197.488 262.463 198.928 263.264L202.769 265.504C204.209 266.304 206.45 266.304 207.89 265.504L211.731 263.264C213.171 262.623 213.011 261.343 211.731 260.383ZM223.254 267.105L219.413 264.864C217.973 264.064 215.732 264.064 214.292 264.864L210.451 267.105C209.01 267.905 209.01 269.185 210.451 269.985L214.292 272.226C215.732 273.026 217.973 273.026 219.413 272.226L223.254 269.985C224.694 269.185 224.694 267.905 223.254 267.105Z" fill="#72B5E8"/>
<path d="M121.789 156.998L131.392 162.439C132.672 163.079 134.592 163.079 135.713 162.439C136.993 161.799 136.833 160.679 135.713 159.878L126.11 154.437C124.83 153.797 122.91 153.797 121.789 154.437C120.509 155.077 120.509 156.198 121.789 156.998ZM138.113 166.44L142.594 169.001C143.875 169.641 145.795 169.641 146.915 169.001C148.196 168.361 148.036 167.24 146.915 166.44L142.434 163.879C141.154 163.239 139.234 163.239 138.113 163.879C136.993 164.52 136.993 165.64 138.113 166.44ZM149.476 172.842L153.957 175.402C155.237 176.042 157.158 176.042 158.278 175.402C159.558 174.762 159.398 173.642 158.278 172.842L153.797 170.281C152.517 169.641 150.596 169.641 149.476 170.281C148.196 171.081 148.196 172.201 149.476 172.842ZM160.839 179.403L165.32 181.964C166.6 182.604 168.521 182.604 169.641 181.964C170.921 181.324 170.761 180.203 169.641 179.403L165.16 176.843C163.88 176.202 161.959 176.202 160.839 176.843C159.719 177.483 159.558 178.763 160.839 179.403ZM172.041 185.965L176.523 188.525C177.803 189.166 179.723 189.166 180.844 188.525C182.124 187.885 181.964 186.765 180.844 185.965L176.363 183.404C175.082 182.764 173.162 182.764 172.041 183.404C170.921 184.204 170.921 185.325 172.041 185.965ZM183.404 192.526L187.885 195.087C189.166 195.727 191.086 195.727 192.206 195.087C193.487 194.447 193.327 193.327 192.206 192.526L187.725 189.966C186.445 189.326 184.524 189.326 183.404 189.966C182.124 190.606 182.124 191.726 183.404 192.526ZM194.767 199.088L199.248 201.649C200.528 202.289 202.449 202.289 203.569 201.649C204.849 201.008 204.689 199.888 203.569 199.088L199.088 196.527C197.808 195.887 195.887 195.887 194.767 196.527C193.487 197.167 193.487 198.288 194.767 199.088ZM205.97 205.65L210.451 208.21C211.731 208.85 213.652 208.85 214.772 208.21C215.892 207.57 215.892 206.45 214.772 205.65L210.291 203.089C209.01 202.449 207.09 202.449 205.97 203.089C204.849 203.729 204.849 204.849 205.97 205.65ZM217.332 212.051L221.813 214.612C223.094 215.252 225.014 215.252 226.135 214.612C227.415 213.972 227.255 212.851 226.135 212.051L221.653 209.49C220.373 208.85 218.453 208.85 217.332 209.49C216.212 210.291 216.212 211.411 217.332 212.051ZM228.695 218.613L233.176 221.173C234.457 221.813 236.377 221.813 237.497 221.173C238.778 220.533 238.618 219.413 237.497 218.613L233.016 216.052C231.736 215.412 229.815 215.412 228.695 216.052C227.415 216.852 227.415 217.972 228.695 218.613ZM240.058 225.174L244.539 227.735C245.819 228.375 247.74 228.375 248.86 227.735C249.98 227.095 249.98 225.974 248.86 225.174L244.379 222.614C243.099 221.973 241.178 221.973 240.058 222.614C238.778 223.414 238.778 224.534 240.058 225.174ZM251.261 231.736L255.742 234.296C257.022 234.937 258.942 234.937 260.063 234.296C261.343 233.656 261.183 232.536 260.063 231.736L255.582 229.175C254.301 228.535 252.381 228.535 251.261 229.175C250.14 229.815 250.14 230.936 251.261 231.736ZM262.943 238.457L267.424 241.018C268.705 241.658 270.625 241.658 271.746 241.018C273.026 240.378 272.866 239.258 271.746 238.457L267.264 235.897C265.984 235.257 264.064 235.257 262.943 235.897C261.663 236.537 261.663 237.657 262.943 238.457ZM111.547 163.239L115.388 165.48C116.828 166.28 119.069 166.28 120.349 165.48L124.19 163.239C125.63 162.439 125.63 161.159 124.19 160.359L120.349 158.118C118.909 157.318 116.668 157.318 115.388 158.118L111.547 160.359C110.267 160.999 110.267 162.439 111.547 163.239ZM131.872 172.041L135.713 169.801C137.153 169.001 137.153 167.72 135.713 166.92L131.872 164.68C130.431 163.879 128.191 163.879 126.911 164.68L123.07 166.92C121.629 167.72 121.629 169.001 123.07 169.801L126.911 172.041C128.191 172.682 130.431 172.682 131.872 172.041ZM134.272 176.202L138.113 178.443C139.554 179.243 141.794 179.243 143.074 178.443L146.915 176.202C148.356 175.402 148.356 174.122 146.915 173.322L143.074 171.081C141.634 170.281 139.394 170.281 138.113 171.081L134.272 173.322C132.832 174.122 132.832 175.402 134.272 176.202ZM145.635 182.764L149.476 185.005C150.916 185.805 153.157 185.805 154.437 185.005L158.278 182.764C159.719 181.964 159.719 180.683 158.278 179.883L154.437 177.643C152.997 176.843 150.756 176.843 149.476 177.643L145.635 179.883C144.195 180.683 144.195 181.964 145.635 182.764ZM169.641 186.445L165.8 184.204C164.36 183.404 162.119 183.404 160.839 184.204L156.998 186.445C155.558 187.245 155.558 188.525 156.998 189.326L160.839 191.566C162.279 192.366 164.52 192.366 165.8 191.566L169.641 189.326C171.081 188.525 171.081 187.245 169.641 186.445ZM181.004 193.006L177.163 190.766C175.722 189.966 173.482 189.966 172.202 190.766L168.361 193.006C166.92 193.807 166.92 195.087 168.361 195.887L172.202 198.128C173.642 198.928 175.882 198.928 177.163 198.128L181.004 195.887C182.444 195.087 182.284 193.807 181.004 193.006ZM192.366 199.568L188.525 197.328C187.085 196.527 184.845 196.527 183.564 197.328L179.723 199.568C178.283 200.368 178.283 201.649 179.723 202.449L183.564 204.689C185.005 205.489 187.245 205.489 188.525 204.689L192.366 202.449C193.647 201.649 193.647 200.368 192.366 199.568ZM203.569 205.97L199.728 203.729C198.288 202.929 196.047 202.929 194.767 203.729L190.926 205.97C189.486 206.77 189.486 208.05 190.926 208.85L194.767 211.091C196.207 211.891 198.448 211.891 199.728 211.091L203.569 208.85C205.009 208.21 205.009 206.77 203.569 205.97ZM214.932 212.531L211.091 210.291C209.651 209.49 207.41 209.49 206.13 210.291L202.289 212.531C200.848 213.331 200.848 214.612 202.289 215.412L206.13 217.652C207.57 218.453 209.811 218.453 211.091 217.652L214.932 215.412C216.372 214.612 216.372 213.331 214.932 212.531ZM226.295 219.093L222.454 216.852C221.013 216.052 218.773 216.052 217.492 216.852L213.652 219.093C212.211 219.893 212.211 221.173 213.652 221.973L217.492 224.214C218.933 225.014 221.173 225.014 222.454 224.214L226.295 221.973C227.575 221.173 227.575 219.893 226.295 219.093ZM224.854 228.535L228.695 230.776C230.135 231.576 232.376 231.576 233.656 230.776L237.497 228.535C238.938 227.735 238.938 226.455 237.497 225.654L233.656 223.414C232.216 222.614 229.975 222.614 228.695 223.414L224.854 225.654C223.414 226.455 223.414 227.735 224.854 228.535ZM248.86 232.216L245.019 229.975C243.579 229.175 241.338 229.175 240.058 229.975L236.217 232.216C234.777 233.016 234.777 234.296 236.217 235.097L240.058 237.337C241.498 238.137 243.739 238.137 245.019 237.337L248.86 235.097C250.3 234.296 250.3 233.016 248.86 232.216ZM265.504 241.818L256.542 236.697C255.102 235.897 252.861 235.897 251.581 236.697L247.74 238.938C246.299 239.738 246.299 241.018 247.74 241.818L256.702 246.939C258.142 247.74 260.383 247.74 261.663 246.939L265.504 244.699C266.784 243.899 266.784 242.618 265.504 241.818ZM101.144 169.161L110.107 174.282C111.547 175.082 113.787 175.082 115.068 174.282L118.909 172.041C120.349 171.241 120.349 169.961 118.909 169.161L109.946 164.039C108.506 163.239 106.266 163.239 104.985 164.039L101.144 166.28C99.704 167.08 99.704 168.361 101.144 169.161ZM117.468 178.603L121.309 180.844C122.75 181.644 124.99 181.644 126.27 180.844L130.111 178.603C131.552 177.803 131.552 176.522 130.111 175.722L126.27 173.482C124.83 172.682 122.59 172.682 121.309 173.482L117.468 175.722C116.028 176.522 116.028 177.803 117.468 178.603ZM132.672 187.405C134.112 188.205 136.353 188.205 137.633 187.405L141.474 185.165C142.914 184.364 142.914 183.084 141.474 182.284L137.633 180.043C136.193 179.243 133.952 179.243 132.672 180.043L128.831 182.284C127.391 183.084 127.391 184.364 128.831 185.165L132.672 187.405ZM144.035 193.967C145.475 194.767 147.716 194.767 148.996 193.967L152.837 191.726C154.277 190.926 154.277 189.646 152.837 188.845L148.996 186.605C147.556 185.805 145.315 185.805 144.035 186.605L140.194 188.845C138.753 189.646 138.753 190.926 140.194 191.726L144.035 193.967ZM155.237 193.166L151.397 195.407C149.956 196.207 149.956 197.488 151.397 198.288L155.237 200.528C156.678 201.328 158.918 201.328 160.199 200.528L164.04 198.288C165.48 197.488 165.48 196.207 164.04 195.407L160.199 193.166C158.918 192.366 156.678 192.366 155.237 193.166ZM166.92 199.568L162.599 202.129C161.319 202.769 161.319 204.049 162.599 204.689L166.92 207.25C168.201 208.05 170.121 208.05 171.401 207.25L175.722 204.689C177.003 204.049 177.003 202.769 175.722 202.129L171.401 199.568C170.121 198.768 168.041 198.768 166.92 199.568ZM178.123 206.13L173.802 208.69C172.522 209.33 172.522 210.611 173.802 211.251L178.123 213.811C179.403 214.612 181.324 214.612 182.604 213.811L186.925 211.251C188.205 210.611 188.205 209.33 186.925 208.69L182.604 206.13C181.484 205.329 179.403 205.329 178.123 206.13ZM189.486 212.531L185.165 215.092C183.884 215.732 183.884 217.012 185.165 217.652L189.486 220.213C190.766 221.013 192.686 221.013 193.967 220.213L198.288 217.652C199.568 217.012 199.568 215.732 198.288 215.092L193.967 212.531C192.686 211.891 190.766 211.891 189.486 212.531ZM200.848 219.093L196.527 221.653C195.247 222.294 195.247 223.574 196.527 224.214L200.848 226.775C202.129 227.575 204.049 227.575 205.33 226.775L209.651 224.214C210.931 223.574 210.931 222.294 209.651 221.653L205.33 219.093C204.049 218.453 202.129 218.453 200.848 219.093ZM212.051 225.654L207.73 228.215C206.45 228.855 206.45 230.135 207.73 230.776L212.051 233.336C213.331 234.136 215.252 234.136 216.532 233.336L220.853 230.776C222.134 230.135 222.134 228.855 220.853 228.215L216.532 225.654C215.412 225.014 213.331 225.014 212.051 225.654ZM228.055 239.898L232.376 237.337C233.656 236.697 233.656 235.417 232.376 234.777L228.055 232.216C226.775 231.416 224.854 231.416 223.574 232.216L219.253 234.777C217.973 235.417 217.973 236.697 219.253 237.337L223.574 239.898C224.694 240.538 226.775 240.538 228.055 239.898ZM239.258 246.459L243.579 243.899C244.859 243.259 244.859 241.978 243.579 241.338L239.258 238.777C237.977 237.977 236.057 237.977 234.777 238.777L230.456 241.338C229.175 241.978 229.175 243.259 230.456 243.899L234.777 246.459C236.057 247.1 238.137 247.1 239.258 246.459ZM255.262 247.9L250.941 245.339C249.66 244.539 247.74 244.539 246.459 245.339L242.138 247.9C240.858 248.54 240.858 249.82 242.138 250.46L246.459 253.021C247.74 253.821 249.66 253.821 250.941 253.021L255.262 250.46C256.542 249.82 256.542 248.7 255.262 247.9ZM90.4218 175.082L104.665 183.244C105.946 184.044 107.866 184.044 109.146 183.244L113.467 180.683C114.748 180.043 114.748 178.763 113.467 178.123L99.2239 169.961C97.9436 169.161 96.0231 169.161 94.7428 169.961L90.4218 172.522C89.1415 173.162 89.1415 174.442 90.4218 175.082ZM111.547 187.245L115.868 189.806C117.148 190.606 119.069 190.606 120.349 189.806L124.67 187.245C125.95 186.605 125.95 185.325 124.67 184.684L120.349 182.124C119.069 181.324 117.148 181.324 115.868 182.124L111.547 184.684C110.267 185.485 110.267 186.605 111.547 187.245ZM122.91 193.807L127.231 196.367C128.511 197.167 130.431 197.167 131.712 196.367L136.033 193.807C137.313 193.166 137.313 191.886 136.033 191.246L131.712 188.685C130.431 187.885 128.511 187.885 127.231 188.685L122.91 191.246C121.629 191.886 121.629 193.166 122.91 193.807ZM134.112 200.368L138.433 202.929C139.714 203.729 141.634 203.729 142.914 202.929L147.236 200.368C148.516 199.728 148.516 198.448 147.236 197.808L142.914 195.247C141.634 194.447 139.714 194.447 138.433 195.247L134.112 197.808C132.832 198.448 132.992 199.728 134.112 200.368ZM154.437 209.49L158.758 206.93C160.039 206.29 160.039 205.009 158.758 204.369L154.437 201.809C153.157 201.008 151.236 201.008 149.956 201.809L145.635 204.369C144.355 205.009 144.355 206.29 145.635 206.93L149.956 209.49C151.076 210.131 153.157 210.131 154.437 209.49ZM165.64 216.052L169.961 213.491C171.241 212.851 171.241 211.571 169.961 210.931L165.64 208.37C164.36 207.57 162.439 207.57 161.159 208.37L156.838 210.931C155.558 211.571 155.558 212.851 156.838 213.491L161.159 216.052C162.439 216.692 164.52 216.692 165.64 216.052ZM177.003 222.454L181.324 219.893C182.604 219.253 182.604 217.972 181.324 217.332L177.003 214.772C175.722 213.972 173.802 213.972 172.522 214.772L168.201 217.332C166.92 217.972 166.92 219.253 168.201 219.893L172.522 222.454C173.802 223.254 175.722 223.254 177.003 222.454ZM188.365 229.015L192.686 226.455C193.967 225.814 193.967 224.534 192.686 223.894L188.365 221.333C187.085 220.533 185.165 220.533 183.884 221.333L179.563 223.894C178.283 224.534 178.283 225.814 179.563 226.455L183.884 229.015C185.005 229.815 187.085 229.815 188.365 229.015ZM199.728 235.577L204.049 233.016C205.33 232.376 205.33 231.096 204.049 230.455L199.728 227.895C198.448 227.095 196.527 227.095 195.247 227.895L190.766 230.455C189.486 231.096 189.486 232.376 190.766 233.016L195.087 235.577C196.367 236.377 198.448 236.377 199.728 235.577ZM210.931 242.138L215.252 239.578C216.532 238.938 216.532 237.657 215.252 237.017L210.931 234.456C209.651 233.656 207.73 233.656 206.45 234.456L202.129 237.017C200.848 237.657 200.848 238.938 202.129 239.578L206.45 242.138C207.73 242.778 209.651 242.778 210.931 242.138ZM213.331 246.139L217.652 248.7C218.933 249.5 220.853 249.5 222.134 248.7L226.455 246.139C227.735 245.499 227.735 244.219 226.455 243.579L222.134 241.018C220.853 240.218 218.933 240.218 217.652 241.018L213.331 243.579C212.051 244.219 212.211 245.339 213.331 246.139ZM244.699 253.981L233.496 247.58C232.216 246.779 230.296 246.779 229.015 247.58L224.694 250.14C223.414 250.78 223.414 252.061 224.694 252.701L235.897 259.102C237.177 259.903 239.098 259.903 240.378 259.102L244.699 256.542C245.979 255.902 245.979 254.781 244.699 253.981ZM80.0193 181.484L100.184 193.166C101.624 193.967 103.865 193.967 105.305 193.166L109.146 190.926C110.587 190.126 110.587 188.845 109.146 188.045L88.9814 176.362C87.5411 175.562 85.3005 175.562 83.8602 176.362L80.0193 178.603C78.5789 179.403 78.5789 180.683 80.0193 181.484ZM107.546 197.488L111.387 199.728C112.827 200.528 115.068 200.528 116.508 199.728L120.349 197.488C121.789 196.687 121.789 195.407 120.349 194.607L116.508 192.366C115.068 191.566 112.827 191.566 111.387 192.366L107.546 194.607C106.266 195.247 106.266 196.687 107.546 197.488ZM118.909 204.049L122.75 206.29C124.19 207.09 126.43 207.09 127.871 206.29L131.712 204.049C133.152 203.249 133.152 201.969 131.712 201.168L127.871 198.928C126.43 198.128 124.19 198.128 122.75 198.928L118.909 201.168C117.468 201.809 117.468 203.249 118.909 204.049ZM130.271 210.451L134.112 212.691C135.553 213.491 137.793 213.491 139.234 212.691L143.074 210.451C144.515 209.65 144.515 208.37 143.074 207.57L139.234 205.329C137.793 204.529 135.553 204.529 134.112 205.329L130.271 207.57C128.831 208.37 128.831 209.65 130.271 210.451ZM141.634 217.012L145.475 219.253C146.915 220.053 149.156 220.053 150.596 219.253L154.437 217.012C155.878 216.212 155.878 214.932 154.437 214.132L150.596 211.891C149.156 211.091 146.915 211.091 145.475 211.891L141.634 214.132C140.194 214.932 140.194 216.212 141.634 217.012ZM152.837 223.574L156.678 225.814C158.118 226.615 160.359 226.615 161.799 225.814L165.64 223.574C167.08 222.774 167.08 221.493 165.64 220.693L161.799 218.453C160.359 217.652 158.118 217.652 156.678 218.453L152.837 220.693C151.397 221.493 151.557 222.774 152.837 223.574ZM164.2 230.135L168.041 232.376C169.481 233.176 171.721 233.176 173.162 232.376L177.003 230.135C178.443 229.335 178.443 228.055 177.003 227.255L173.162 225.014C171.721 224.214 169.481 224.214 168.041 225.014L164.2 227.255C162.759 228.055 162.759 229.335 164.2 230.135ZM175.562 236.697L179.403 238.938C180.844 239.738 183.084 239.738 184.524 238.938L188.365 236.697C189.806 235.897 189.806 234.617 188.365 233.816L184.524 231.576C183.084 230.776 180.844 230.776 179.403 231.576L175.562 233.816C174.122 234.456 174.122 235.897 175.562 236.697ZM186.765 243.259L190.606 245.499C192.046 246.299 194.287 246.299 195.727 245.499L199.568 243.259C201.008 242.458 201.008 241.178 199.568 240.378L195.727 238.137C194.287 237.337 192.046 237.337 190.606 238.137L186.765 240.378C185.485 241.018 185.485 242.298 186.765 243.259ZM198.128 249.66L201.969 251.901C203.409 252.701 205.65 252.701 207.09 251.901L210.931 249.66C212.371 248.86 212.371 247.58 210.931 246.779L207.09 244.539C205.65 243.739 203.409 243.739 201.969 244.539L198.128 246.779C196.687 247.58 196.687 248.86 198.128 249.66ZM209.491 256.222L213.331 258.462C214.772 259.262 217.012 259.262 218.453 258.462L222.294 256.222C223.734 255.422 223.734 254.141 222.294 253.341L218.453 251.1C217.012 250.3 214.772 250.3 213.331 251.1L209.491 253.341C208.05 254.141 208.05 255.422 209.491 256.222ZM233.656 260.063L229.815 257.822C228.375 257.022 226.135 257.022 224.694 257.822L220.853 260.063C219.413 260.863 219.413 262.143 220.853 262.943L224.694 265.184C226.135 265.984 228.375 265.984 229.815 265.184L233.656 262.943C235.097 262.143 235.097 260.863 233.656 260.063ZM87.221 187.565L78.4189 182.444C76.9785 181.644 74.738 181.644 73.2976 182.444L69.4567 184.684C68.0164 185.485 68.0164 186.765 69.4567 187.565L78.2589 192.686C79.6992 193.487 81.9397 193.487 83.3801 192.686L87.221 190.446C88.6614 189.646 88.6614 188.365 87.221 187.565ZM98.5838 194.127L94.7428 191.886C93.3025 191.086 91.0619 191.086 89.6216 191.886L85.7807 194.127C84.3403 194.927 84.3403 196.207 85.7807 197.007L89.6216 199.248C91.0619 200.048 93.3025 200.048 94.7428 199.248L98.5838 197.007C99.8641 196.207 99.8641 194.927 98.5838 194.127ZM109.786 200.528L105.946 198.448C104.505 197.648 102.265 197.648 100.824 198.448L96.9834 200.688C95.543 201.489 95.543 202.769 96.9834 203.569L100.824 205.81C102.265 206.61 104.505 206.61 105.946 205.81L109.786 203.569C111.227 202.769 111.227 201.489 109.786 200.528ZM189.006 246.299L117.308 204.849C115.868 204.049 113.627 204.049 112.187 204.849L108.346 207.09C106.906 207.89 106.906 209.17 108.346 209.971L180.043 251.421C181.484 252.221 183.724 252.221 185.165 251.421L189.006 249.18C190.446 248.54 190.446 247.1 189.006 246.299ZM200.368 252.861L196.527 250.62C195.087 249.82 192.847 249.82 191.406 250.62L187.565 252.861C186.125 253.661 186.125 254.941 187.565 255.742L191.406 257.982C192.847 258.782 195.087 258.782 196.527 257.982L200.368 255.742C201.809 254.941 201.809 253.661 200.368 252.861ZM211.731 259.423L207.89 257.182C206.45 256.382 204.209 256.382 202.769 257.182L198.928 259.423C197.488 260.223 197.488 261.503 198.928 262.303L202.769 264.544C204.209 265.344 206.45 265.344 207.89 264.544L211.731 262.303C213.171 261.503 213.011 260.223 211.731 259.423ZM223.254 266.144L219.413 263.904C217.973 263.103 215.732 263.103 214.292 263.904L210.451 266.144C209.01 266.944 209.01 268.225 210.451 269.025L214.292 271.265C215.732 272.066 217.973 272.066 219.413 271.265L223.254 269.025C224.694 268.225 224.694 266.944 223.254 266.144Z" fill="#A8CFF0"/>
<path d="M285.029 235.097L135.073 148.516C129.311 145.155 124.51 136.193 124.51 128.511V10.7225C124.51 3.04064 129.151 -0.640246 135.073 2.72057L285.029 89.3015C290.79 92.6623 295.592 101.624 295.592 109.306V226.935C295.592 234.937 290.79 238.457 285.029 235.097Z" fill="#A8CFF0"/>
<path d="M286.469 229.015L138.114 143.395C133.472 140.354 130.592 134.432 130.592 128.351V10.2425C130.592 8.80216 132.192 7.84193 133.472 8.64212C133.633 8.80216 133.793 8.80216 133.793 8.80216L282.308 94.5829C287.91 97.7836 289.83 103.545 289.83 109.626V227.575C289.83 229.175 288.23 230.136 286.789 229.335C286.629 229.175 286.469 229.015 286.469 229.015Z" fill="#084C94"/>
<path d="M282.148 94.5829L133.632 8.80216C133.632 8.80216 133.472 8.64212 133.312 8.64212C132.032 7.84193 130.432 8.80216 130.432 10.2425V128.351C130.432 134.432 133.312 140.354 137.953 143.395L286.309 229.015C286.309 229.015 286.469 229.175 286.629 229.175C287.91 229.976 289.67 229.015 289.67 227.415V109.466C289.67 103.385 287.75 97.7836 282.148 94.5829ZM288.55 227.415C288.55 227.895 288.07 228.215 287.75 228.215C287.59 228.215 287.43 228.215 287.269 228.055L138.754 142.274C134.593 139.554 131.712 134.112 131.712 128.351V10.2425C131.712 9.76239 132.032 9.60235 132.352 9.60235C132.512 9.60235 132.512 9.60235 132.672 9.76239L281.508 95.7031C287.269 99.0639 288.55 105.145 288.55 109.626V227.415Z" fill="#022652"/>
<path d="M288.07 87.8612L138.114 1.28031C135.873 0 133.633 -0.320077 132.032 0.320077C131.872 0.480116 128.831 1.92046 128.671 2.0805C130.432 1.28031 132.672 1.44035 135.233 2.8807L285.189 89.4616C290.951 92.8224 295.752 101.785 295.752 109.466V227.095C295.752 231.896 293.991 235.097 291.111 236.057C291.271 236.057 291.591 236.057 292.071 235.737C292.231 235.737 295.432 233.816 295.432 233.816C297.352 232.376 298.632 229.495 298.632 225.494V108.026C298.472 100.184 293.831 91.222 288.07 87.8612Z" fill="#3F92D1"/>
<path d="M288.07 87.8612L138.114 1.28031C135.873 0 133.633 -0.320077 132.032 0.320077C131.872 0.480116 128.831 1.92046 128.671 2.0805C130.432 1.28031 132.672 1.44035 135.233 2.8807L285.189 89.4616L288.07 87.8612Z" fill="#4F9FDB"/>
<path d="M285.509 89.1419L135.713 2.56102C133.312 1.12067 131.072 0.960635 129.312 1.76083C130.752 1.60079 132.512 1.92087 134.433 2.8811L284.229 89.622C289.99 92.9828 294.791 101.945 294.791 109.627V227.255C294.791 231.896 293.191 234.937 290.63 236.057C293.831 235.577 296.072 232.216 296.072 226.935V109.307C296.072 101.465 291.431 92.5027 285.509 89.1419Z" fill="white"/>
</svg>
