<svg width="44" height="44" viewBox="0 0 44 44" fill="none" xmlns="http://www.w3.org/2000/svg">
<path d="M44 22C44 34.1503 34.1503 44 22 44C9.84973 44 0 34.1503 0 22C0 9.84973 9.84973 0 22 0C34.1503 0 44 9.84973 44 22Z" fill="#80D9EB"/>
<path d="M21.75 22.4113V8.87502C21.75 8.53002 21.47 8.25 21.125 8.25C13.8875 8.25 8 14.6988 8 22.625C8 30.5512 14.4488 37 22.375 37C25.9212 37 27.84 36.3575 30.2725 34.3575C30.5338 34.1425 30.5762 33.7587 30.3688 33.4912L21.75 22.4113ZM22.375 35.75C15.1375 35.75 9.24998 29.8625 9.24998 22.625C9.24998 15.62 14.2412 9.87879 20.5 9.51756V22.625C20.5 22.7638 20.5462 22.8988 20.6325 23.0088L29.0025 33.77C27.0287 35.2775 25.3825 35.75 22.375 35.75Z" fill="#0084C8"/>
<path d="M20.4999 23V9.5C17.3543 9.96305 15.6708 10.7154 12.9999 13C10.329 15.2846 9.99993 18.5 9.99993 18.5C9.47174 21.3256 8.76411 23.6945 10.4999 28C12.4771 31.8483 14.4147 33.4469 19.4999 35.5C24.4624 35.979 26.8025 35.6409 28.9999 33.5L20.4999 23Z" fill="white"/>
<path d="M23.625 22H37.375C37.72 22 38.0001 21.72 38.0001 21.375C38 13.4488 31.5512 7 23.625 7C23.28 7 23 7.28002 23 7.62502V21.375C23 21.72 23.28 22 23.625 22ZM24.25 8.26498C30.9913 8.5825 36.4175 14.0088 36.735 20.75H24.25V8.26498Z" fill="#0084C8"/>
<path d="M24.2 20.8002V8.2002C25.4403 8.49301 26.2485 8.35931 27.5 8.8002C29.7919 9.60769 31.1285 10.3288 32.9 12.1002C34.7657 13.9659 35.4136 15.0636 36.2 17.5002C36.5684 18.6419 36.5771 19.6785 36.8 20.8002H24.2Z" fill="#FFB727"/>
<path d="M37.375 23.25H24.875C24.635 23.25 24.4137 23.3887 24.31 23.6062C24.2062 23.8237 24.2375 24.0813 24.3887 24.2675L32.5137 34.3262C32.6225 34.4624 32.7825 34.5449 32.9562 34.5575C32.9712 34.5587 32.985 34.5587 33 34.5587C33.1575 34.5587 33.31 34.4987 33.4263 34.3912C36.3325 31.68 38 27.8475 38 23.875C38 23.53 37.72 23.25 37.375 23.25ZM33.0537 33.005L26.1837 24.5H36.735C36.5812 27.6775 35.2662 30.7162 33.0537 33.005Z" fill="#0084C8"/>
</svg>
