<svg width="44" height="44" viewBox="0 0 44 44" fill="none" xmlns="http://www.w3.org/2000/svg">
<path d="M44 22C44 34.1503 34.1503 44 22 44C9.84973 44 0 34.1503 0 22C0 9.84973 9.84973 0 22 0C34.1503 0 44 9.84973 44 22Z" fill="#80D9EB"/>
<g clip-path="url(#clip0_378_102)">
<path d="M26.7063 15.5106L26.1027 14.907C26.1027 14.2402 25.5622 13.6997 24.8954 13.6997H15.8474C15.1807 13.6997 14.6401 14.2402 14.6401 14.907V15.5106L20.3745 16.8222L26.7063 15.5106Z" fill="#C1C8D2"/>
<path d="M29.3079 33.6189H9.81084C8.81076 33.6189 8 32.8081 8 31.808V17.3211C8 16.321 8.81076 15.5103 9.81084 15.5103H29.3079C30.308 15.5103 31.1187 16.321 31.1187 17.3211V31.808C31.1187 32.8081 30.308 33.6189 29.3079 33.6189Z" fill="#0084C8"/>
<path d="M32.7482 17.3212V31.808C32.7482 32.8082 31.9376 33.6189 30.9374 33.6189H29.1265C30.1267 33.6189 30.9374 32.8082 30.9374 31.808V31.5062L28.292 24.5646L30.9374 17.3211C30.9374 16.3209 30.1267 15.5103 29.1265 15.5103H30.9374C31.9376 15.5103 32.7482 16.321 32.7482 17.3212V17.3212Z" fill="#0084C8"/>
<path d="M30.4916 32.2001H9.50877C9.33834 32.2001 9.2002 32.0546 9.2002 31.8751V16.9251C9.2002 16.7456 9.33834 16.6001 9.50877 16.6001H30.4916C30.6621 16.6001 30.8002 16.7456 30.8002 16.9251V31.8752C30.8002 32.0546 30.6621 32.2001 30.4916 32.2001Z" fill="white"/>
<path d="M17.6001 20.2002H11.6001V28.5677H17.6001V20.2002Z" fill="#56B3F7"/>
<path d="M14.6296 25.9701C15.3346 25.9701 15.9061 25.3986 15.9061 24.6936C15.9061 23.9885 15.3346 23.417 14.6296 23.417C13.9246 23.417 13.353 23.9885 13.353 24.6936C13.353 25.3986 13.9246 25.9701 14.6296 25.9701Z" fill="white"/>
<path d="M12.0322 28.5677C12.0322 27.1332 13.1952 25.9702 14.6297 25.9702C16.0643 25.9702 17.2273 27.1332 17.2273 28.5677H12.0322V28.5677Z" fill="#FFC843"/>
<path d="M15.358 22.1525C15.6234 22.1525 15.8385 21.9374 15.8385 21.672C15.8385 21.4065 15.6234 21.1914 15.358 21.1914H13.901C13.6355 21.1914 13.4204 21.4065 13.4204 21.672C13.4204 21.9374 13.6355 22.1525 13.901 22.1525H15.358Z" fill="#00C395"/>
<path d="M20.1874 19.1325H18.931C18.6198 19.1325 18.3596 18.8959 18.3301 18.5861L17.81 13.1248C17.7931 12.9477 17.9324 12.7944 18.1104 12.7944H21.008C21.186 12.7944 21.3253 12.9477 21.3084 13.1248L20.7883 18.5861C20.7588 18.8959 20.4986 19.1325 20.1874 19.1325Z" fill="#E8EAEC"/>
<path d="M22.9386 13.1246L22.4183 18.5862C22.3887 18.8959 22.1285 19.1325 21.8177 19.1325H20.0068C20.3177 19.1325 20.5778 18.8959 20.6074 18.5862L21.1277 13.1246C21.1446 12.9478 21.0052 12.7944 20.8271 12.7944H22.638C22.8161 12.7944 22.9555 12.9478 22.9386 13.1246Z" fill="#C1C8D2"/>
<path d="M29.1267 30.4503H19.7706C19.5205 30.4503 19.3179 30.2476 19.3179 29.9976C19.3179 29.7476 19.5205 29.5449 19.7706 29.5449H29.1267C29.3767 29.5449 29.5794 29.7476 29.5794 29.9976C29.5794 30.2476 29.3767 30.4503 29.1267 30.4503Z" fill="#C1C8D2"/>
<path d="M25.686 25.0177H19.7706C19.5205 25.0177 19.3179 24.815 19.3179 24.565C19.3179 24.315 19.5205 24.1123 19.7706 24.1123H25.6861C25.9361 24.1123 26.1388 24.315 26.1388 24.565C26.1388 24.815 25.936 25.0177 25.686 25.0177V25.0177Z" fill="#C1C8D2"/>
<path d="M24.841 23.2071H19.7706C19.5205 23.2071 19.3179 23.0045 19.3179 22.7545C19.3179 22.5044 19.5205 22.3018 19.7706 22.3018H24.841C25.091 22.3018 25.2937 22.5044 25.2937 22.7545C25.2937 23.0044 25.091 23.2071 24.841 23.2071Z" fill="#C1C8D2"/>
<path d="M23.6338 21.3961H19.7706C19.5205 21.3961 19.3179 21.1934 19.3179 20.9434C19.3179 20.6934 19.5205 20.4907 19.7706 20.4907H23.6338C23.8838 20.4907 24.0865 20.6934 24.0865 20.9434C24.0865 21.1934 23.8838 21.3961 23.6338 21.3961Z" fill="#C1C8D2"/>
<path d="M29.1265 28.6394C28.8765 28.6394 28.6738 28.4367 28.6738 28.1867V27.5831C28.6738 27.333 28.8765 27.1304 29.1265 27.1304C29.3765 27.1304 29.5792 27.333 29.5792 27.5831V28.1867C29.5792 28.4367 29.3765 28.6394 29.1265 28.6394Z" fill="#C1C8D2"/>
<path d="M26.8028 28.6394C26.5528 28.6394 26.3501 28.4367 26.3501 28.1867V27.5831C26.3501 27.333 26.5528 27.1304 26.8028 27.1304C27.0528 27.1304 27.2555 27.333 27.2555 27.5831V28.1867C27.2555 28.4367 27.0528 28.6394 26.8028 28.6394Z" fill="#C1C8D2"/>
<path d="M24.4483 28.6394C24.1983 28.6394 23.9956 28.4367 23.9956 28.1867V27.5831C23.9956 27.333 24.1983 27.1304 24.4483 27.1304C24.6983 27.1304 24.901 27.333 24.901 27.5831V28.1867C24.901 28.4367 24.6983 28.6394 24.4483 28.6394Z" fill="#C1C8D2"/>
<path d="M22.0943 28.6394C21.8443 28.6394 21.6416 28.4367 21.6416 28.1867V27.5831C21.6416 27.333 21.8443 27.1304 22.0943 27.1304C22.3443 27.1304 22.547 27.333 22.547 27.5831V28.1867C22.5471 28.4367 22.3444 28.6394 22.0943 28.6394Z" fill="#C1C8D2"/>
<path d="M19.7706 28.6394C19.5205 28.6394 19.3179 28.4367 19.3179 28.1867V27.5831C19.3179 27.333 19.5205 27.1304 19.7706 27.1304C20.0206 27.1304 20.2233 27.333 20.2233 27.5831V28.1867C20.2233 28.4367 20.0206 28.6394 19.7706 28.6394Z" fill="#C1C8D2"/>
<path d="M17.9596 30.4503H11.9234C11.6734 30.4503 11.4707 30.2476 11.4707 29.9976C11.4707 29.7476 11.6734 29.5449 11.9234 29.5449H17.9596C18.2096 29.5449 18.4123 29.7476 18.4123 29.9976C18.4123 30.2476 18.2096 30.4503 17.9596 30.4503Z" fill="#C1C8D2"/>
<path d="M30.5148 20.4676L24.8408 13.7004L31.4203 12.3418L37.9998 13.7004L30.5148 20.4676Z" fill="#FFC43C"/>
<path d="M38.0001 13.6997L31.883 20.9951C31.7874 21.1094 31.6598 21.1784 31.5257 21.2019C31.4481 21.0898 31.3731 21.1106 31.3155 21.2019C31.1814 21.1783 31.0539 21.1094 30.9582 20.9951L30.5151 20.4669L30.9388 19.9617L31.5311 19.9169L32.45 18.1594L36.1892 13.6998H38.0001V13.6997Z" fill="#FFB727"/>
<path d="M33.8977 11.0964L31.4203 10.3799L28.5481 11.1648L26.7095 10.46C26.6146 10.5145 26.5345 10.5948 26.4801 10.6945L24.8408 13.6998H29.036L31.4203 14.9849L33.8046 13.6998H36.3097L34.6704 10.6945L33.8977 11.0964Z" fill="#FFB727"/>
<path d="M37.9998 13.6997H36.189L35.1597 11.8128C35.1597 11.8128 35.1711 10.7598 36.1311 10.46C36.2261 10.5145 36.3062 10.5947 36.3604 10.6943L37.9998 13.6997Z" fill="#FFDB93"/>
<path d="M31.4206 10.3799L29.0363 13.6998L26.71 10.4602C26.7999 10.4082 26.9031 10.3799 27.0105 10.3799H31.4206Z" fill="#FDE09D"/>
<path d="M35.1597 11.8128L33.8047 13.6998L31.4204 10.3799H34.095L35.0308 10.5193L35.1597 11.8128Z" fill="#FDE09D"/>
<path d="M36.131 10.4601L35.1598 11.8129L34.5495 10.6944C34.4439 10.5006 34.2404 10.3799 34.0195 10.3799H35.8304C35.9378 10.3798 36.0411 10.4082 36.131 10.4601V10.4601Z" fill="#FFC43C"/>
<path d="M33.8047 13.6997L32.4498 18.1593L31.4204 19.9814L30.9387 19.9617L29.0361 13.6997H33.8047Z" fill="#FDE09D"/>
<path d="M32.4498 18.1602L31.5257 21.2024C31.4562 21.2151 31.385 21.2151 31.3156 21.2024L30.939 19.9626L32.4498 18.1602Z" fill="#FBDF9F"/>
</g>
<defs>
<clipPath id="clip0_378_102">
<rect width="30" height="30" fill="white" transform="translate(8 7)"/>
</clipPath>
</defs>
</svg>
