<svg width="16" height="16" viewBox="0 0 16 16" fill="none" xmlns="http://www.w3.org/2000/svg">
<path fill-rule="evenodd" clip-rule="evenodd" d="M13.7777 6.60303H1.89502C1.61902 6.60303 1.39502 6.37903 1.39502 6.10303C1.39502 5.82703 1.61902 5.60303 1.89502 5.60303H13.7777C14.0537 5.60303 14.2777 5.82703 14.2777 6.10303C14.2777 6.37903 14.0537 6.60303 13.7777 6.60303" fill="black"/>
<path fill-rule="evenodd" clip-rule="evenodd" d="M10.8009 9.20654C10.5249 9.20654 10.2982 8.98254 10.2982 8.70654C10.2982 8.43054 10.5189 8.20654 10.7949 8.20654H10.8009C11.0769 8.20654 11.3009 8.43054 11.3009 8.70654C11.3009 8.98254 11.0769 9.20654 10.8009 9.20654" fill="black"/>
<path fill-rule="evenodd" clip-rule="evenodd" d="M7.84251 9.20654C7.56651 9.20654 7.33984 8.98254 7.33984 8.70654C7.33984 8.43054 7.56051 8.20654 7.83651 8.20654H7.84251C8.11851 8.20654 8.34251 8.43054 8.34251 8.70654C8.34251 8.98254 8.11851 9.20654 7.84251 9.20654" fill="black"/>
<path fill-rule="evenodd" clip-rule="evenodd" d="M4.87797 9.20654C4.60197 9.20654 4.37463 8.98254 4.37463 8.70654C4.37463 8.43054 4.59597 8.20654 4.87197 8.20654H4.87797C5.15397 8.20654 5.37797 8.43054 5.37797 8.70654C5.37797 8.98254 5.15397 9.20654 4.87797 9.20654" fill="black"/>
<path fill-rule="evenodd" clip-rule="evenodd" d="M10.8009 11.7979C10.5249 11.7979 10.2982 11.5739 10.2982 11.2979C10.2982 11.0219 10.5189 10.7979 10.7949 10.7979H10.8009C11.0769 10.7979 11.3009 11.0219 11.3009 11.2979C11.3009 11.5739 11.0769 11.7979 10.8009 11.7979" fill="black"/>
<path fill-rule="evenodd" clip-rule="evenodd" d="M7.84251 11.7979C7.56651 11.7979 7.33984 11.5739 7.33984 11.2979C7.33984 11.0219 7.56051 10.7979 7.83651 10.7979H7.84251C8.11851 10.7979 8.34251 11.0219 8.34251 11.2979C8.34251 11.5739 8.11851 11.7979 7.84251 11.7979" fill="black"/>
<path fill-rule="evenodd" clip-rule="evenodd" d="M4.87797 11.7979C4.60197 11.7979 4.37463 11.5739 4.37463 11.2979C4.37463 11.0219 4.59597 10.7979 4.87197 10.7979H4.87797C5.15397 10.7979 5.37797 11.0219 5.37797 11.2979C5.37797 11.5739 5.15397 11.7979 4.87797 11.7979" fill="black"/>
<path fill-rule="evenodd" clip-rule="evenodd" d="M10.5291 3.86075C10.2531 3.86075 10.0291 3.63675 10.0291 3.36075V1.16675C10.0291 0.890748 10.2531 0.666748 10.5291 0.666748C10.8051 0.666748 11.0291 0.890748 11.0291 1.16675V3.36075C11.0291 3.63675 10.8051 3.86075 10.5291 3.86075" fill="black"/>
<path fill-rule="evenodd" clip-rule="evenodd" d="M5.14355 3.86075C4.86755 3.86075 4.64355 3.63675 4.64355 3.36075V1.16675C4.64355 0.890748 4.86755 0.666748 5.14355 0.666748C5.41955 0.666748 5.64355 0.890748 5.64355 1.16675V3.36075C5.64355 3.63675 5.41955 3.86075 5.14355 3.86075" fill="black"/>
<mask id="mask0_410_102" style="mask-type:alpha" maskUnits="userSpaceOnUse" x="1" y="1" width="14" height="14">
<path fill-rule="evenodd" clip-rule="evenodd" d="M1.33337 1.71948H14.3334V15.0001H1.33337V1.71948Z" fill="white"/>
</mask>
<g mask="url(#mask0_410_102)">
<path fill-rule="evenodd" clip-rule="evenodd" d="M5.01404 2.71948C3.28537 2.71948 2.33337 3.64148 2.33337 5.31548V11.3481C2.33337 13.0588 3.28537 14.0001 5.01404 14.0001H10.6527C12.3814 14.0001 13.3334 13.0761 13.3334 11.3988V5.31548C13.336 4.49215 13.1147 3.85215 12.6754 3.41215C12.2234 2.95882 11.5267 2.71948 10.6587 2.71948H5.01404ZM10.6527 15.0001H5.01404C2.74404 15.0001 1.33337 13.6008 1.33337 11.3481V5.31548C1.33337 3.09682 2.74404 1.71948 5.01404 1.71948H10.6587C11.798 1.71948 12.74 2.06082 13.3834 2.70548C14.008 3.33282 14.3367 4.23482 14.3334 5.31682V11.3988C14.3334 13.6201 12.9227 15.0001 10.6527 15.0001V15.0001Z" fill="black"/>
</g>
</svg>
