<svg width="24" height="24" viewBox="0 0 24 24" fill="none" xmlns="http://www.w3.org/2000/svg">
<path opacity="0.4" fill-rule="evenodd" clip-rule="evenodd" d="M16.3344 2.75H7.66543C4.64443 2.75 2.75043 4.889 2.75043 7.916V16.084C2.75043 19.111 4.63543 21.25 7.66543 21.25H16.3334C19.3644 21.25 21.2504 19.111 21.2504 16.084V7.916C21.2504 4.889 19.3644 2.75 16.3344 2.75Z" stroke="#00B4D8" stroke-width="1.5" stroke-linecap="round" stroke-linejoin="round"/>
<path fill-rule="evenodd" clip-rule="evenodd" d="M10.6923 11.9999C10.6923 13.0219 9.86332 13.8519 8.84032 13.8519C7.81832 13.8519 6.98932 13.0219 6.98932 11.9999C6.98932 10.9779 7.81832 10.1479 8.84032 10.1479C9.86332 10.1479 10.6923 10.9779 10.6923 11.9999Z" stroke="#00B4D8" stroke-width="1.5" stroke-linecap="round" stroke-linejoin="round"/>
<path d="M10.6923 12H17.0103V13.852" stroke="#00B4D8" stroke-width="1.5" stroke-linecap="round" stroke-linejoin="round"/>
<path d="M14.1816 13.8515V11.9995" stroke="#00B4D8" stroke-width="1.5" stroke-linecap="round" stroke-linejoin="round"/>
</svg>
