<svg xmlns="http://www.w3.org/2000/svg" width="42" height="42" fill="none" viewBox="0 0 42 42">
  <g clip-path="url(#a)">
    <path fill="#06506B" d="M21 3.784c-5.607 0-6.272.02-8.486.122-2.289.105-4.646.626-6.314 2.294-1.683 1.684-2.189 4.018-2.294 6.314-.102 2.214-.123 2.879-.123 8.486 0 5.607.022 6.272.123 8.486.103 2.276.637 4.656 2.294 6.314 1.684 1.683 4.016 2.189 6.314 2.294 2.214.102 2.879.123 8.486.123 5.607 0 6.272-.021 8.486-.123 2.259-.103 4.67-.65 6.314-2.294 1.675-1.675 2.189-4.032 2.294-6.314.102-2.214.123-2.879.123-8.486 0-5.607-.021-6.272-.123-8.486-.103-2.268-.642-4.662-2.294-6.314-1.68-1.68-4.023-2.189-6.314-2.294-2.214-.102-2.879-.123-8.486-.123ZM21 0c5.703 0 6.419.025 8.659.126 3.246.149 6.47 1.052 8.816 3.399 2.356 2.355 3.25 5.572 3.399 8.816.101 2.24.126 2.956.126 8.659 0 5.703-.025 6.419-.126 8.659-.149 3.243-1.055 6.475-3.399 8.816-2.353 2.354-5.575 3.25-8.816 3.399-2.24.101-2.956.126-8.659.126-5.703 0-6.419-.025-8.659-.126-3.244-.149-6.471-1.053-8.816-3.399-2.359-2.357-3.251-5.572-3.4-8.815C.025 27.419 0 26.703 0 21s.025-6.419.126-8.659C.275 9.095 1.18 5.87 3.524 3.525 5.875 1.174 9.106.272 12.341.125 14.581.024 15.297 0 21 0Z"/>
    <path fill="#06506B" d="M21 10.217c5.955 0 10.784 4.828 10.784 10.783 0 5.955-4.829 10.784-10.784 10.784-5.955 0-10.784-4.829-10.784-10.784 0-5.955 4.829-10.783 10.784-10.783ZM21 28a7 7 0 1 0 0-14 7 7 0 0 0 0 14ZM9.79 12.31a2.52 2.52 0 1 1 0-5.04 2.52 2.52 0 0 1 0 5.04Z"/>
  </g>
  <defs>
    <clipPath id="a">
      <path fill="#fff" d="M0 0h42v42H0z" transform="matrix(-1 0 0 1 42 0)"/>
    </clipPath>
  </defs>
</svg>
