<svg width="20" height="20" viewBox="0 0 20 20" fill="none" xmlns="http://www.w3.org/2000/svg">
<path d="M18.7111 18.306L14.0273 13.6029C15.2316 12.2207 15.8914 10.4817 15.8914 8.67124C15.8914 4.44139 12.3269 1 7.94571 1C3.56452 1 0 4.44139 0 8.67124C0 12.9011 3.56452 16.3425 7.94571 16.3425C9.59048 16.3425 11.1579 15.8635 12.4979 14.9543L17.2173 19.6932C17.4146 19.8909 17.6799 20 17.9642 20C18.2333 20 18.4886 19.9009 18.6824 19.7208C19.0942 19.3383 19.1074 18.7039 18.7111 18.306ZM7.94571 3.00119C11.1841 3.00119 13.8186 5.54471 13.8186 8.67124C13.8186 11.7978 11.1841 14.3413 7.94571 14.3413C4.70732 14.3413 2.07279 11.7978 2.07279 8.67124C2.07279 5.54471 4.70732 3.00119 7.94571 3.00119Z" fill="#657085"/>
</svg>
