<svg width="30" height="30" viewBox="0 0 30 30" fill="none" xmlns="http://www.w3.org/2000/svg">
<g clip-path="url(#clip0_314_157)">
<path d="M14.9473 30C23.2315 30 29.9473 23.2843 29.9473 15C29.9473 6.71573 23.2315 0 14.9473 0C6.66299 0 -0.0527344 6.71573 -0.0527344 15C-0.0527344 23.2843 6.66299 30 14.9473 30Z" fill="#ECB13A"/>
<path d="M14.5254 28.5059C22.3728 28.5059 28.7344 22.1443 28.7344 14.2969C28.7344 6.44947 22.3728 0.0878906 14.5254 0.0878906C6.67799 0.0878906 0.316406 6.44947 0.316406 14.2969C0.316406 22.1443 6.67799 28.5059 14.5254 28.5059Z" fill="#FFDE4F"/>
<path d="M14.5078 21.8262C10.5117 21.8262 7.25391 19.1836 7.25391 15.9375C7.25391 15.668 7.4707 15.4512 7.74024 15.4512C8.00977 15.4512 8.22656 15.668 8.22656 15.9375C8.22656 18.6504 11.0449 20.8535 14.5078 20.8535C17.9707 20.8535 20.7891 18.6445 20.7891 15.9375C20.7891 15.668 21.0059 15.4512 21.2754 15.4512C21.5449 15.4512 21.7617 15.668 21.7617 15.9375C21.7617 19.1836 18.5039 21.8262 14.5078 21.8262Z" fill="#645033"/>
<path d="M8.34961 11.6191C9.46281 11.6191 10.3652 10.7167 10.3652 9.60352C10.3652 8.49032 9.46281 7.58789 8.34961 7.58789C7.23641 7.58789 6.33398 8.49032 6.33398 9.60352C6.33398 10.7167 7.23641 11.6191 8.34961 11.6191Z" fill="#645033"/>
<path d="M21.3516 11.6426C22.4648 11.6426 23.3672 10.7402 23.3672 9.62695C23.3672 8.51375 22.4648 7.61133 21.3516 7.61133C20.2384 7.61133 19.3359 8.51375 19.3359 9.62695C19.3359 10.7402 20.2384 11.6426 21.3516 11.6426Z" fill="#645033"/>
</g>
<defs>
<clipPath id="clip0_314_157">
<rect width="30" height="30" fill="white"/>
</clipPath>
</defs>
</svg>
