<svg width="41" height="41" viewBox="0 0 41 41" fill="none" xmlns="http://www.w3.org/2000/svg">
<path d="M23.9168 8.07187H23.8058C23.6932 8.05821 23.5845 8.02227 23.486 7.96615C23.3875 7.91003 23.3011 7.83486 23.2319 7.74502C23.1628 7.65518 23.1122 7.55246 23.0831 7.44286C23.0541 7.33327 23.0471 7.21898 23.0627 7.10667C23.0687 7.01566 23.0687 6.92434 23.0627 6.83333C23.0627 6.15372 22.7927 5.50193 22.3121 5.02137C21.8316 4.54081 21.1798 4.27083 20.5002 4.27083C19.8206 4.27083 19.1688 4.54081 18.6882 5.02137C18.2076 5.50193 17.9377 6.15372 17.9377 6.83333C17.9316 6.92434 17.9316 7.01566 17.9377 7.10667C17.9523 7.21884 17.9446 7.33278 17.9151 7.44199C17.8857 7.55121 17.835 7.65355 17.766 7.74318C17.697 7.8328 17.611 7.90796 17.513 7.96436C17.4149 8.02076 17.3067 8.05729 17.1945 8.07187C17.0824 8.08646 16.9684 8.0788 16.8592 8.04935C16.75 8.0199 16.6477 7.96922 16.558 7.90021C16.4684 7.83121 16.3932 7.74522 16.3368 7.64717C16.2805 7.54912 16.2439 7.44092 16.2293 7.32875C16.2184 7.16379 16.2184 6.99829 16.2293 6.83333C16.2293 5.70064 16.6793 4.61433 17.4802 3.8134C18.2812 3.01246 19.3675 2.5625 20.5002 2.5625C21.6329 2.5625 22.7192 3.01246 23.5201 3.8134C24.321 4.61433 24.771 5.70064 24.771 6.83333C24.7819 6.99829 24.7819 7.16379 24.771 7.32875C24.7439 7.53554 24.6421 7.72527 24.4847 7.86216C24.3274 7.99905 24.1254 8.07364 23.9168 8.07187ZM35.6275 10.4977L32.2108 7.08104C32.0474 6.94111 31.8372 6.86799 31.6222 6.87629C31.4073 6.88459 31.2033 6.97371 31.0512 7.12583C30.8991 7.27795 30.81 7.48188 30.8017 7.69685C30.7934 7.91182 30.8665 8.12201 31.0064 8.28542L32.1083 9.39583L31.0064 10.4977C30.917 10.5743 30.8444 10.6685 30.7931 10.7745C30.7418 10.8805 30.713 10.9959 30.7085 11.1135C30.7039 11.2312 30.7238 11.3485 30.7667 11.4581C30.8097 11.5677 30.8748 11.6672 30.958 11.7505C31.0413 11.8337 31.1408 11.8989 31.2504 11.9418C31.36 11.9847 31.4773 12.0046 31.595 12C31.7126 11.9955 31.828 11.9667 31.934 11.9154C32.04 11.8641 32.1342 11.7915 32.2108 11.7021L33.3127 10.6002L34.4145 11.7021C34.5779 11.842 34.7881 11.9151 35.0031 11.9068C35.2181 11.8985 35.422 11.8094 35.5741 11.6573C35.7263 11.5052 35.8154 11.3012 35.8237 11.0863C35.832 10.8713 35.7589 10.6611 35.6189 10.4977H35.6275ZM20.5002 11.1042C18.304 11.1042 16.1571 11.7554 14.331 12.9756C12.505 14.1957 11.0817 15.9299 10.2413 17.959C9.40081 19.988 9.18091 22.2207 9.60936 24.3746C10.0378 26.5286 11.0954 28.5072 12.6483 30.0602C14.2013 31.6131 16.1799 32.6707 18.3339 33.0991C20.4878 33.5276 22.7205 33.3077 24.7495 32.4672C26.7786 31.6268 28.5128 30.2035 29.7329 28.3775C30.9531 26.5514 31.6043 24.4045 31.6043 22.2083C31.6043 19.2633 30.4344 16.4389 28.352 14.3565C26.2696 12.2741 23.4452 11.1042 20.5002 11.1042V11.1042ZM28.1877 16.7673C28.3323 16.6798 28.4997 16.6372 28.6686 16.6449C28.8375 16.6526 29.0003 16.7102 29.1364 16.8105C29.2726 16.9108 29.3759 17.0492 29.4332 17.2083C29.4906 17.3673 29.4995 17.5398 29.4588 17.7039C29.4181 17.868 29.3295 18.0163 29.2045 18.1301C29.0794 18.2438 28.9234 18.3179 28.7561 18.3429C28.5889 18.3679 28.418 18.3428 28.2652 18.2706C28.1123 18.1984 27.9842 18.0825 27.8973 17.9375C27.781 17.7437 27.7463 17.5117 27.8007 17.2924C27.8552 17.0731 27.9943 16.8843 28.1877 16.7673V16.7673ZM20.5002 11.9583C20.6691 11.9583 20.8343 12.0084 20.9747 12.1023C21.1152 12.1961 21.2247 12.3295 21.2893 12.4856C21.354 12.6417 21.3709 12.8134 21.3379 12.9791C21.305 13.1448 21.2236 13.297 21.1042 13.4165C20.9847 13.5359 20.8325 13.6173 20.6668 13.6503C20.5011 13.6832 20.3294 13.6663 20.1733 13.6016C20.0172 13.537 19.8838 13.4275 19.79 13.2871C19.6961 13.1466 19.646 12.9814 19.646 12.8125C19.646 12.586 19.736 12.3687 19.8962 12.2085C20.0564 12.0483 20.2736 11.9583 20.5002 11.9583ZM10.2502 22.2083C10.2502 22.0394 10.3003 21.8743 10.3941 21.7338C10.488 21.5933 10.6214 21.4838 10.7775 21.4192C10.9335 21.3545 11.1053 21.3376 11.271 21.3706C11.4367 21.4035 11.5889 21.4849 11.7083 21.6043C11.8278 21.7238 11.9091 21.876 11.9421 22.0417C11.975 22.2074 11.9581 22.3791 11.8935 22.5352C11.8288 22.6913 11.7194 22.8247 11.5789 22.9185C11.4384 23.0124 11.2733 23.0625 11.1043 23.0625C10.8778 23.0625 10.6605 22.9725 10.5003 22.8123C10.3402 22.6521 10.2502 22.4349 10.2502 22.2083ZM12.8127 27.6494C12.668 27.7369 12.5006 27.7795 12.3317 27.7718C12.1628 27.7641 12 27.7065 11.8639 27.6062C11.7278 27.5059 11.6245 27.3674 11.5671 27.2084C11.5097 27.0494 11.5008 26.8769 11.5416 26.7128C11.5823 26.5487 11.6708 26.4004 11.7959 26.2866C11.921 26.1728 12.077 26.0988 12.2442 26.0738C12.4114 26.0487 12.5823 26.0739 12.7352 26.1461C12.8881 26.2182 13.0161 26.3342 13.1031 26.4792C13.2193 26.673 13.254 26.9049 13.1996 27.1243C13.1452 27.3436 13.006 27.5324 12.8127 27.6494V27.6494ZM13.1031 17.9375C13.0161 18.0825 12.8881 18.1984 12.7352 18.2706C12.5823 18.3428 12.4114 18.3679 12.2442 18.3429C12.077 18.3179 11.921 18.2438 11.7959 18.1301C11.6708 18.0163 11.5823 17.868 11.5416 17.7039C11.5008 17.5398 11.5097 17.3673 11.5671 17.2083C11.6245 17.0492 11.7278 16.9108 11.8639 16.8105C12 16.7102 12.1628 16.6526 12.3317 16.6449C12.5006 16.6372 12.668 16.6798 12.8127 16.7673C13.006 16.8843 13.1452 17.0731 13.1996 17.2924C13.254 17.5117 13.2193 17.7437 13.1031 17.9375ZM16.5198 30.75C16.4358 30.8985 16.3093 31.0184 16.1566 31.0943C16.0039 31.1703 15.8319 31.1988 15.6629 31.1761C15.4938 31.1535 15.3354 31.0808 15.2081 30.9673C15.0807 30.8539 14.9903 30.7049 14.9483 30.5396C14.9064 30.3743 14.9149 30.2002 14.9727 30.0397C15.0306 29.8793 15.1352 29.7399 15.273 29.6394C15.4108 29.5389 15.5755 29.4819 15.7459 29.4759C15.9164 29.4698 16.0848 29.5149 16.2293 29.6054C16.4202 29.718 16.5598 29.9003 16.6188 30.1138C16.6777 30.3274 16.6514 30.5555 16.5454 30.75H16.5198ZM16.2293 14.8113C16.0828 14.8977 15.9137 14.9384 15.7439 14.9281C15.574 14.9178 15.4111 14.8571 15.276 14.7536C15.1409 14.6501 15.0398 14.5087 14.9857 14.3473C14.9315 14.186 14.9268 14.0122 14.9721 13.8482C15.0173 13.6841 15.1106 13.5374 15.2399 13.4267C15.3691 13.316 15.5285 13.2465 15.6975 13.227C15.8666 13.2075 16.0376 13.2389 16.1886 13.3172C16.3397 13.3956 16.4639 13.5173 16.5454 13.6667C16.6514 13.8612 16.6777 14.0893 16.6188 14.3029C16.5598 14.5164 16.4202 14.6987 16.2293 14.8113V14.8113ZM20.5002 32.4583C20.3312 32.4583 20.1661 32.4082 20.0256 32.3144C19.8852 32.2205 19.7757 32.0871 19.711 31.931C19.6464 31.775 19.6295 31.6032 19.6624 31.4375C19.6954 31.2718 19.7767 31.1196 19.8962 31.0002C20.0156 30.8807 20.1678 30.7994 20.3335 30.7664C20.4992 30.7335 20.671 30.7504 20.827 30.815C20.9831 30.8797 21.1165 30.9892 21.2104 31.1296C21.3042 31.2701 21.3543 31.4352 21.3543 31.6042C21.3543 31.8307 21.2643 32.048 21.1042 32.2082C20.944 32.3683 20.7267 32.4583 20.5002 32.4583ZM21.3543 23.6775V24.7708C21.3543 24.9974 21.2643 25.2146 21.1042 25.3748C20.944 25.535 20.7267 25.625 20.5002 25.625C20.2736 25.625 20.0564 25.535 19.8962 25.3748C19.736 25.2146 19.646 24.9974 19.646 24.7708V23.6775C19.3891 23.5268 19.1761 23.3115 19.0281 23.053C18.8801 22.7946 18.8022 22.5019 18.8022 22.2041C18.8022 21.9062 18.8801 21.6135 19.0281 21.3551C19.1761 21.0966 19.3891 20.8814 19.646 20.7306V16.2292C19.646 16.0026 19.736 15.7854 19.8962 15.6252C20.0564 15.465 20.2736 15.375 20.5002 15.375C20.7267 15.375 20.944 15.465 21.1042 15.6252C21.2643 15.7854 21.3543 16.0026 21.3543 16.2292V20.7392C21.6112 20.8899 21.8242 21.1052 21.9723 21.3636C22.1203 21.6221 22.1982 21.9148 22.1982 22.2126C22.1982 22.5104 22.1203 22.8031 21.9723 23.0616C21.8242 23.32 21.6112 23.5353 21.3543 23.686V23.6775ZM25.6252 31.0831C25.4787 31.1647 25.3114 31.2013 25.1442 31.1885C24.977 31.1756 24.8173 31.1138 24.685 31.0108C24.5527 30.9078 24.4536 30.7681 24.4001 30.6092C24.3466 30.4503 24.3411 30.2791 24.3843 30.1171C24.4274 29.9551 24.5173 29.8093 24.6427 29.698C24.7681 29.5867 24.9235 29.5147 25.0895 29.4912C25.2555 29.4676 25.4248 29.4933 25.5763 29.5653C25.7277 29.6373 25.8546 29.7522 25.9412 29.8958C26.0004 29.994 26.0392 30.1031 26.0554 30.2166C26.0715 30.3301 26.0646 30.4457 26.0351 30.5565C26.0056 30.6673 25.9541 30.7711 25.8837 30.8615C25.8133 30.952 25.7253 31.0274 25.6252 31.0831V31.0831ZM25.9412 14.5208C25.8546 14.6644 25.7277 14.7794 25.5763 14.8514C25.4248 14.9233 25.2555 14.9491 25.0895 14.9255C24.9235 14.9019 24.7681 14.83 24.6427 14.7187C24.5173 14.6074 24.4274 14.4616 24.3843 14.2996C24.3411 14.1375 24.3466 13.9664 24.4001 13.8074C24.4536 13.6485 24.5527 13.5088 24.685 13.4058C24.8173 13.3028 24.977 13.2411 25.1442 13.2282C25.3114 13.2153 25.4787 13.252 25.6252 13.3335C25.7253 13.3893 25.8133 13.4647 25.8837 13.5551C25.9541 13.6456 26.0056 13.7493 26.0351 13.8601C26.0646 13.9709 26.0715 14.0865 26.0554 14.2C26.0392 14.3135 26.0004 14.4226 25.9412 14.5208V14.5208ZM29.3579 27.3333C29.2733 27.4793 29.1474 27.597 28.9961 27.6715C28.8448 27.746 28.6748 27.774 28.5075 27.7521C28.3403 27.7301 28.1833 27.6591 28.0563 27.548C27.9294 27.4369 27.8381 27.2907 27.7942 27.1279C27.7502 26.965 27.7554 26.7928 27.8092 26.6329C27.8629 26.473 27.9628 26.3326 28.0963 26.2294C28.2297 26.1263 28.3907 26.0649 28.559 26.0531C28.7273 26.0413 28.8953 26.0796 29.0418 26.1631C29.1411 26.2175 29.2287 26.291 29.2993 26.3795C29.3699 26.468 29.4222 26.5696 29.4532 26.6785C29.4842 26.7874 29.4933 26.9014 29.4798 27.0138C29.4664 27.1262 29.4308 27.2348 29.375 27.3333H29.3579ZM29.896 23.0625C29.7271 23.0625 29.5619 23.0124 29.4215 22.9185C29.281 22.8247 29.1715 22.6913 29.1069 22.5352C29.0422 22.3791 29.0253 22.2074 29.0582 22.0417C29.0912 21.876 29.1726 21.7238 29.292 21.6043C29.4115 21.4849 29.5637 21.4035 29.7294 21.3706C29.8951 21.3376 30.0668 21.3545 30.2229 21.4192C30.379 21.4838 30.5124 21.5933 30.6062 21.7338C30.7001 21.8743 30.7502 22.0394 30.7502 22.2083C30.7502 22.4349 30.6602 22.6521 30.5 22.8123C30.3398 22.9725 30.1225 23.0625 29.896 23.0625Z" fill="#D1EBFF"/>
<path d="M20.5002 5.979C17.2903 5.979 14.1526 6.93083 11.4837 8.71411C8.81486 10.4974 6.73472 13.032 5.50638 15.9975C4.27803 18.963 3.95664 22.2262 4.58284 25.3743C5.20905 28.5225 6.75473 31.4142 9.02442 33.6839C11.2941 35.9536 14.1859 37.4993 17.334 38.1255C20.4822 38.7517 23.7453 38.4303 26.7108 37.202C29.6763 35.9736 32.2109 33.8935 33.9942 31.2246C35.7775 28.5557 36.7293 25.418 36.7293 22.2082C36.7293 17.9039 35.0195 13.776 31.9759 10.7324C28.9324 7.68886 24.8044 5.979 20.5002 5.979V5.979ZM20.5002 35.0207C17.9661 35.0207 15.4889 34.2692 13.3819 32.8614C11.2749 31.4535 9.63271 29.4525 8.66296 27.1113C7.69322 24.7701 7.43949 22.194 7.93386 19.7086C8.42823 17.2232 9.6485 14.9402 11.4404 13.1484C13.2322 11.3565 15.5152 10.1362 18.0006 9.64186C20.486 9.14749 23.0621 9.40122 25.4033 10.371C27.7445 11.3407 29.7455 12.9829 31.1534 15.0899C32.5612 17.1969 33.3127 19.6741 33.3127 22.2082C33.3127 25.6063 31.9628 28.8652 29.56 31.268C27.1572 33.6708 23.8983 35.0207 20.5002 35.0207Z" fill="white"/>
</svg>
