<svg width="41" height="41" viewBox="0 0 41 41" fill="none" xmlns="http://www.w3.org/2000/svg">
<path d="M23.9167 8.07187H23.8056C23.6931 8.05821 23.5843 8.02227 23.4858 7.96615C23.3873 7.91003 23.3009 7.83486 23.2318 7.74502C23.1626 7.65518 23.112 7.55246 23.0829 7.44286C23.0539 7.33327 23.0469 7.21898 23.0625 7.10667C23.0685 7.01566 23.0685 6.92434 23.0625 6.83333C23.0625 6.15372 22.7925 5.50193 22.3119 5.02137C21.8314 4.54081 21.1796 4.27083 20.5 4.27083C19.8204 4.27083 19.1686 4.54081 18.688 5.02137C18.2075 5.50193 17.9375 6.15372 17.9375 6.83333C17.9314 6.92434 17.9314 7.01566 17.9375 7.10667C17.9521 7.21884 17.9444 7.33278 17.915 7.44199C17.8855 7.55121 17.8348 7.65355 17.7658 7.74318C17.6968 7.8328 17.6108 7.90796 17.5128 7.96436C17.4147 8.02076 17.3065 8.05729 17.1944 8.07187C17.0822 8.08646 16.9682 8.0788 16.859 8.04935C16.7498 8.0199 16.6475 7.96922 16.5578 7.90021C16.4682 7.83121 16.3931 7.74522 16.3367 7.64717C16.2803 7.54912 16.2437 7.44092 16.2292 7.32875C16.2183 7.16379 16.2183 6.99829 16.2292 6.83333C16.2292 5.70064 16.6791 4.61433 17.48 3.8134C18.281 3.01246 19.3673 2.5625 20.5 2.5625C21.6327 2.5625 22.719 3.01246 23.5199 3.8134C24.3209 4.61433 24.7708 5.70064 24.7708 6.83333C24.7817 6.99829 24.7817 7.16379 24.7708 7.32875C24.7437 7.53554 24.6419 7.72527 24.4845 7.86216C24.3272 7.99905 24.1252 8.07364 23.9167 8.07187ZM35.6273 10.4977L32.2106 7.08104C32.0472 6.94111 31.837 6.86799 31.622 6.87629C31.4071 6.88459 31.2031 6.97371 31.051 7.12583C30.8989 7.27795 30.8098 7.48188 30.8015 7.69685C30.7932 7.91182 30.8663 8.12201 31.0062 8.28542L32.1081 9.39583L31.0062 10.4977C30.9168 10.5743 30.8442 10.6685 30.7929 10.7745C30.7417 10.8805 30.7128 10.9959 30.7083 11.1135C30.7038 11.2312 30.7236 11.3485 30.7665 11.4581C30.8095 11.5677 30.8746 11.6672 30.9578 11.7505C31.0411 11.8337 31.1406 11.8989 31.2503 11.9418C31.3599 11.9847 31.4772 12.0046 31.5948 12C31.7124 11.9955 31.8279 11.9667 31.9338 11.9154C32.0398 11.8641 32.134 11.7915 32.2106 11.7021L33.3125 10.6002L34.4144 11.7021C34.5778 11.842 34.788 11.9151 35.0029 11.9068C35.2179 11.8985 35.4218 11.8094 35.5739 11.6573C35.7261 11.5052 35.8152 11.3012 35.8235 11.0863C35.8318 10.8713 35.7587 10.6611 35.6187 10.4977H35.6273ZM20.5 11.1042C18.3038 11.1042 16.1569 11.7554 14.3308 12.9756C12.5048 14.1957 11.0815 15.9299 10.2411 17.959C9.40062 19.988 9.18072 22.2207 9.60918 24.3746C10.0376 26.5286 11.0952 28.5072 12.6482 30.0602C14.2011 31.6131 16.1797 32.6707 18.3337 33.0991C20.4877 33.5276 22.7203 33.3077 24.7494 32.4672C26.7784 31.6268 28.5126 30.2035 29.7328 28.3775C30.9529 26.5514 31.6042 24.4045 31.6042 22.2083C31.6042 19.2633 30.4343 16.4389 28.3518 14.3565C26.2694 12.2741 23.445 11.1042 20.5 11.1042V11.1042ZM28.1875 16.7673C28.3322 16.6798 28.4995 16.6372 28.6684 16.6449C28.8373 16.6526 29.0002 16.7102 29.1363 16.8105C29.2724 16.9108 29.3757 17.0492 29.433 17.2083C29.4904 17.3673 29.4993 17.5398 29.4586 17.7039C29.4179 17.868 29.3294 18.0163 29.2043 18.1301C29.0792 18.2438 28.9232 18.3179 28.756 18.3429C28.5887 18.3679 28.4179 18.3428 28.265 18.2706C28.1121 18.1984 27.984 18.0825 27.8971 17.9375C27.7808 17.7437 27.7461 17.5117 27.8006 17.2924C27.855 17.0731 27.9941 16.8843 28.1875 16.7673V16.7673ZM20.5 11.9583C20.6689 11.9583 20.8341 12.0084 20.9745 12.1023C21.115 12.1961 21.2245 12.3295 21.2891 12.4856C21.3538 12.6417 21.3707 12.8134 21.3377 12.9791C21.3048 13.1448 21.2234 13.297 21.104 13.4165C20.9845 13.5359 20.8323 13.6173 20.6666 13.6503C20.5009 13.6832 20.3292 13.6663 20.1731 13.6016C20.017 13.537 19.8836 13.4275 19.7898 13.2871C19.6959 13.1466 19.6458 12.9814 19.6458 12.8125C19.6458 12.586 19.7358 12.3687 19.896 12.2085C20.0562 12.0483 20.2734 11.9583 20.5 11.9583ZM10.25 22.2083C10.25 22.0394 10.3001 21.8743 10.3939 21.7338C10.4878 21.5933 10.6212 21.4838 10.7773 21.4192C10.9334 21.3545 11.1051 21.3376 11.2708 21.3706C11.4365 21.4035 11.5887 21.4849 11.7081 21.6043C11.8276 21.7238 11.9089 21.876 11.9419 22.0417C11.9749 22.2074 11.9579 22.3791 11.8933 22.5352C11.8286 22.6913 11.7192 22.8247 11.5787 22.9185C11.4382 23.0124 11.2731 23.0625 11.1042 23.0625C10.8776 23.0625 10.6604 22.9725 10.5002 22.8123C10.34 22.6521 10.25 22.4349 10.25 22.2083ZM12.8125 27.6494C12.6678 27.7369 12.5004 27.7795 12.3315 27.7718C12.1626 27.7641 11.9998 27.7065 11.8637 27.6062C11.7276 27.5059 11.6243 27.3674 11.5669 27.2084C11.5095 27.0494 11.5006 26.8769 11.5414 26.7128C11.5821 26.5487 11.6706 26.4004 11.7957 26.2866C11.9208 26.1728 12.0768 26.0988 12.244 26.0738C12.4112 26.0487 12.5821 26.0739 12.735 26.1461C12.8879 26.2182 13.0159 26.3342 13.1029 26.4792C13.2191 26.673 13.2538 26.9049 13.1994 27.1243C13.145 27.3436 13.0058 27.5324 12.8125 27.6494V27.6494ZM13.1029 17.9375C13.0159 18.0825 12.8879 18.1984 12.735 18.2706C12.5821 18.3428 12.4112 18.3679 12.244 18.3429C12.0768 18.3179 11.9208 18.2438 11.7957 18.1301C11.6706 18.0163 11.5821 17.868 11.5414 17.7039C11.5006 17.5398 11.5095 17.3673 11.5669 17.2083C11.6243 17.0492 11.7276 16.9108 11.8637 16.8105C11.9998 16.7102 12.1626 16.6526 12.3315 16.6449C12.5004 16.6372 12.6678 16.6798 12.8125 16.7673C13.0058 16.8843 13.145 17.0731 13.1994 17.2924C13.2538 17.5117 13.2191 17.7437 13.1029 17.9375ZM16.5196 30.75C16.4356 30.8985 16.3091 31.0184 16.1564 31.0943C16.0037 31.1703 15.8318 31.1988 15.6627 31.1761C15.4937 31.1535 15.3353 31.0808 15.2079 30.9673C15.0806 30.8539 14.9901 30.7049 14.9481 30.5396C14.9062 30.3743 14.9147 30.2002 14.9726 30.0397C15.0304 29.8793 15.135 29.7399 15.2728 29.6394C15.4106 29.5389 15.5753 29.4819 15.7458 29.4759C15.9162 29.4698 16.0846 29.5149 16.2292 29.6054C16.42 29.718 16.5596 29.9003 16.6186 30.1138C16.6776 30.3274 16.6512 30.5555 16.5452 30.75H16.5196ZM16.2292 14.8113C16.0826 14.8977 15.9135 14.9384 15.7437 14.9281C15.5738 14.9178 15.4109 14.8571 15.2758 14.7536C15.1407 14.6501 15.0396 14.5087 14.9855 14.3473C14.9313 14.186 14.9266 14.0122 14.9719 13.8482C15.0172 13.6841 15.1104 13.5374 15.2397 13.4267C15.3689 13.316 15.5283 13.2465 15.6973 13.227C15.8664 13.2075 16.0374 13.2389 16.1885 13.3172C16.3395 13.3956 16.4637 13.5173 16.5452 13.6667C16.6512 13.8612 16.6776 14.0893 16.6186 14.3029C16.5596 14.5164 16.42 14.6987 16.2292 14.8113V14.8113ZM20.5 32.4583C20.331 32.4583 20.1659 32.4082 20.0254 32.3144C19.885 32.2205 19.7755 32.0871 19.7108 31.931C19.6462 31.775 19.6293 31.6032 19.6622 31.4375C19.6952 31.2718 19.7765 31.1196 19.896 31.0002C20.0155 30.8807 20.1677 30.7994 20.3333 30.7664C20.499 30.7335 20.6708 30.7504 20.8269 30.815C20.9829 30.8797 21.1163 30.9892 21.2102 31.1296C21.3041 31.2701 21.3542 31.4352 21.3542 31.6042C21.3542 31.8307 21.2642 32.048 21.104 32.2082C20.9438 32.3683 20.7265 32.4583 20.5 32.4583ZM21.3542 23.6775V24.7708C21.3542 24.9974 21.2642 25.2146 21.104 25.3748C20.9438 25.535 20.7265 25.625 20.5 25.625C20.2734 25.625 20.0562 25.535 19.896 25.3748C19.7358 25.2146 19.6458 24.9974 19.6458 24.7708V23.6775C19.3889 23.5268 19.1759 23.3115 19.0279 23.053C18.8799 22.7946 18.802 22.5019 18.802 22.2041C18.802 21.9062 18.8799 21.6135 19.0279 21.3551C19.1759 21.0966 19.3889 20.8814 19.6458 20.7306V16.2292C19.6458 16.0026 19.7358 15.7854 19.896 15.6252C20.0562 15.465 20.2734 15.375 20.5 15.375C20.7265 15.375 20.9438 15.465 21.104 15.6252C21.2642 15.7854 21.3542 16.0026 21.3542 16.2292V20.7392C21.611 20.8899 21.8241 21.1052 21.9721 21.3636C22.1201 21.6221 22.198 21.9148 22.198 22.2126C22.198 22.5104 22.1201 22.8031 21.9721 23.0616C21.8241 23.32 21.611 23.5353 21.3542 23.686V23.6775ZM25.625 31.0831C25.4785 31.1647 25.3112 31.2013 25.144 31.1885C24.9768 31.1756 24.8171 31.1138 24.6848 31.0108C24.5525 30.9078 24.4534 30.7681 24.3999 30.6092C24.3465 30.4503 24.3409 30.2791 24.3841 30.1171C24.4272 29.9551 24.5171 29.8093 24.6425 29.698C24.7679 29.5867 24.9233 29.5147 25.0893 29.4912C25.2553 29.4676 25.4246 29.4933 25.5761 29.5653C25.7275 29.6373 25.8545 29.7522 25.941 29.8958C26.0002 29.994 26.039 30.1031 26.0552 30.2166C26.0713 30.3301 26.0644 30.4457 26.0349 30.5565C26.0054 30.6673 25.9539 30.7711 25.8835 30.8615C25.8131 30.952 25.7252 31.0274 25.625 31.0831V31.0831ZM25.941 14.5208C25.8545 14.6644 25.7275 14.7794 25.5761 14.8514C25.4246 14.9233 25.2553 14.9491 25.0893 14.9255C24.9233 14.9019 24.7679 14.83 24.6425 14.7187C24.5171 14.6074 24.4272 14.4616 24.3841 14.2996C24.3409 14.1375 24.3465 13.9664 24.3999 13.8074C24.4534 13.6485 24.5525 13.5088 24.6848 13.4058C24.8171 13.3028 24.9768 13.2411 25.144 13.2282C25.3112 13.2153 25.4785 13.252 25.625 13.3335C25.7252 13.3893 25.8131 13.4647 25.8835 13.5551C25.9539 13.6456 26.0054 13.7493 26.0349 13.8601C26.0644 13.9709 26.0713 14.0865 26.0552 14.2C26.039 14.3135 26.0002 14.4226 25.941 14.5208V14.5208ZM29.3577 27.3333C29.2731 27.4793 29.1472 27.597 28.9959 27.6715C28.8446 27.746 28.6746 27.774 28.5073 27.7521C28.3401 27.7301 28.1831 27.6591 28.0561 27.548C27.9292 27.4369 27.838 27.2907 27.794 27.1279C27.75 26.965 27.7552 26.7928 27.809 26.6329C27.8627 26.473 27.9627 26.3326 28.0961 26.2294C28.2295 26.1263 28.3906 26.0649 28.5588 26.0531C28.7271 26.0413 28.8951 26.0796 29.0417 26.1631C29.141 26.2175 29.2285 26.291 29.2991 26.3795C29.3697 26.468 29.4221 26.5696 29.4531 26.6785C29.4841 26.7874 29.4931 26.9014 29.4797 27.0138C29.4662 27.1262 29.4306 27.2348 29.3748 27.3333H29.3577ZM29.8958 23.0625C29.7269 23.0625 29.5617 23.0124 29.4213 22.9185C29.2808 22.8247 29.1713 22.6913 29.1067 22.5352C29.042 22.3791 29.0251 22.2074 29.0581 22.0417C29.091 21.876 29.1724 21.7238 29.2918 21.6043C29.4113 21.4849 29.5635 21.4035 29.7292 21.3706C29.8949 21.3376 30.0666 21.3545 30.2227 21.4192C30.3788 21.4838 30.5122 21.5933 30.606 21.7338C30.6999 21.8743 30.75 22.0394 30.75 22.2083C30.75 22.4349 30.66 22.6521 30.4998 22.8123C30.3396 22.9725 30.1224 23.0625 29.8958 23.0625Z" fill="#D1EBFF"/>
<path d="M20.5 5.979C17.2902 5.979 14.1524 6.93083 11.4835 8.71411C8.81467 10.4974 6.73454 13.032 5.50619 15.9975C4.27784 18.963 3.95645 22.2262 4.58266 25.3743C5.20887 28.5225 6.75454 31.4142 9.02423 33.6839C11.2939 35.9536 14.1857 37.4993 17.3338 38.1255C20.482 38.7517 23.7451 38.4303 26.7106 37.202C29.6761 35.9736 32.2108 33.8935 33.994 31.2246C35.7773 28.5557 36.7292 25.418 36.7292 22.2082C36.7292 17.9039 35.0193 13.776 31.9757 10.7324C28.9322 7.68886 24.8042 5.979 20.5 5.979V5.979ZM20.5 35.0207C17.9659 35.0207 15.4887 34.2692 13.3817 32.8614C11.2747 31.4535 9.63253 29.4525 8.66278 27.1113C7.69303 24.7701 7.4393 22.194 7.93368 19.7086C8.42805 17.2232 9.64832 14.9402 11.4402 13.1484C13.232 11.3565 15.515 10.1362 18.0004 9.64186C20.4858 9.14749 23.0619 9.40122 25.4031 10.371C27.7443 11.3407 29.7453 12.9829 31.1532 15.0899C32.561 17.1969 33.3125 19.6741 33.3125 22.2082C33.3125 25.6063 31.9626 28.8652 29.5598 31.268C27.157 33.6708 23.8981 35.0207 20.5 35.0207Z" fill="white"/>
</svg>
