<svg width="41" height="41" viewBox="0 0 41 41" fill="none" xmlns="http://www.w3.org/2000/svg">
<path d="M23.9166 8.07187H23.8055C23.693 8.05821 23.5843 8.02227 23.4858 7.96615C23.3872 7.91003 23.3009 7.83486 23.2317 7.74502C23.1625 7.65518 23.1119 7.55246 23.0829 7.44286C23.0538 7.33327 23.0469 7.21898 23.0624 7.10667C23.0685 7.01566 23.0685 6.92434 23.0624 6.83333C23.0624 6.15372 22.7924 5.50193 22.3119 5.02137C21.8313 4.54081 21.1795 4.27083 20.4999 4.27083C19.8203 4.27083 19.1685 4.54081 18.688 5.02137C18.2074 5.50193 17.9374 6.15372 17.9374 6.83333C17.9314 6.92434 17.9314 7.01566 17.9374 7.10667C17.952 7.21884 17.9444 7.33278 17.9149 7.44199C17.8854 7.55121 17.8348 7.65355 17.7658 7.74318C17.6968 7.8328 17.6108 7.90796 17.5127 7.96436C17.4147 8.02076 17.3065 8.05729 17.1943 8.07187C17.0821 8.08646 16.9682 8.0788 16.859 8.04935C16.7498 8.0199 16.6474 7.96922 16.5578 7.90021C16.4682 7.83121 16.393 7.74522 16.3366 7.64717C16.2802 7.54912 16.2437 7.44092 16.2291 7.32875C16.2182 7.16379 16.2182 6.99829 16.2291 6.83333C16.2291 5.70064 16.6791 4.61433 17.48 3.8134C18.2809 3.01246 19.3672 2.5625 20.4999 2.5625C21.6326 2.5625 22.7189 3.01246 23.5199 3.8134C24.3208 4.61433 24.7708 5.70064 24.7708 6.83333C24.7817 6.99829 24.7817 7.16379 24.7708 7.32875C24.7437 7.53554 24.6418 7.72527 24.4845 7.86216C24.3271 7.99905 24.1251 8.07364 23.9166 8.07187ZM35.6272 10.4977L32.2105 7.08104C32.0471 6.94111 31.837 6.86799 31.622 6.87629C31.407 6.88459 31.2031 6.97371 31.051 7.12583C30.8988 7.27795 30.8097 7.48188 30.8014 7.69685C30.7931 7.91182 30.8662 8.12201 31.0062 8.28542L32.108 9.39583L31.0062 10.4977C30.9168 10.5743 30.8441 10.6685 30.7929 10.7745C30.7416 10.8805 30.7128 10.9959 30.7082 11.1135C30.7037 11.2312 30.7235 11.3485 30.7665 11.4581C30.8094 11.5677 30.8745 11.6672 30.9578 11.7505C31.041 11.8337 31.1406 11.8989 31.2502 11.9418C31.3598 11.9847 31.4771 12.0046 31.5947 12C31.7124 11.9955 31.8278 11.9667 31.9338 11.9154C32.0397 11.8641 32.134 11.7915 32.2105 11.7021L33.3124 10.6002L34.4143 11.7021C34.5777 11.842 34.7879 11.9151 35.0029 11.9068C35.2178 11.8985 35.4218 11.8094 35.5739 11.6573C35.726 11.5052 35.8151 11.3012 35.8234 11.0863C35.8317 10.8713 35.7586 10.6611 35.6187 10.4977H35.6272ZM20.4999 11.1042C18.3037 11.1042 16.1569 11.7554 14.3308 12.9756C12.5047 14.1957 11.0815 15.9299 10.241 17.959C9.40056 19.988 9.18066 22.2207 9.60912 24.3746C10.0376 26.5286 11.0951 28.5072 12.6481 30.0602C14.201 31.6131 16.1796 32.6707 18.3336 33.0991C20.4876 33.5276 22.7203 33.3077 24.7493 32.4672C26.7783 31.6268 28.5126 30.2035 29.7327 28.3775C30.9528 26.5514 31.6041 24.4045 31.6041 22.2083C31.6041 19.2633 30.4342 16.4389 28.3518 14.3565C26.2693 12.2741 23.4449 11.1042 20.4999 11.1042V11.1042ZM28.1874 16.7673C28.3321 16.6798 28.4995 16.6372 28.6684 16.6449C28.8373 16.6526 29.0001 16.7102 29.1362 16.8105C29.2723 16.9108 29.3756 17.0492 29.433 17.2083C29.4904 17.3673 29.4993 17.5398 29.4585 17.7039C29.4178 17.868 29.3293 18.0163 29.2042 18.1301C29.0791 18.2438 28.9231 18.3179 28.7559 18.3429C28.5887 18.3679 28.4178 18.3428 28.2649 18.2706C28.112 18.1984 27.984 18.0825 27.897 17.9375C27.7808 17.7437 27.7461 17.5117 27.8005 17.2924C27.8549 17.0731 27.9941 16.8843 28.1874 16.7673V16.7673ZM20.4999 11.9583C20.6689 11.9583 20.834 12.0084 20.9745 12.1023C21.1149 12.1961 21.2244 12.3295 21.2891 12.4856C21.3537 12.6417 21.3706 12.8134 21.3377 12.9791C21.3047 13.1448 21.2234 13.297 21.1039 13.4165C20.9845 13.5359 20.8323 13.6173 20.6666 13.6503C20.5009 13.6832 20.3291 13.6663 20.173 13.6016C20.017 13.537 19.8836 13.4275 19.7897 13.2871C19.6959 13.1466 19.6458 12.9814 19.6458 12.8125C19.6458 12.586 19.7357 12.3687 19.8959 12.2085C20.0561 12.0483 20.2734 11.9583 20.4999 11.9583ZM10.2499 22.2083C10.2499 22.0394 10.3 21.8743 10.3939 21.7338C10.4877 21.5933 10.6211 21.4838 10.7772 21.4192C10.9333 21.3545 11.105 21.3376 11.2707 21.3706C11.4364 21.4035 11.5886 21.4849 11.7081 21.6043C11.8275 21.7238 11.9089 21.876 11.9418 22.0417C11.9748 22.2074 11.9579 22.3791 11.8932 22.5352C11.8286 22.6913 11.7191 22.8247 11.5786 22.9185C11.4382 23.0124 11.273 23.0625 11.1041 23.0625C10.8776 23.0625 10.6603 22.9725 10.5001 22.8123C10.3399 22.6521 10.2499 22.4349 10.2499 22.2083ZM12.8124 27.6494C12.6678 27.7369 12.5004 27.7795 12.3315 27.7718C12.1626 27.7641 11.9998 27.7065 11.8636 27.6062C11.7275 27.5059 11.6242 27.3674 11.5669 27.2084C11.5095 27.0494 11.5006 26.8769 11.5413 26.7128C11.582 26.5487 11.6705 26.4004 11.7956 26.2866C11.9207 26.1728 12.0767 26.0988 12.244 26.0738C12.4112 26.0487 12.582 26.0739 12.7349 26.1461C12.8878 26.2182 13.0159 26.3342 13.1028 26.4792C13.2191 26.673 13.2538 26.9049 13.1993 27.1243C13.1449 27.3436 13.0058 27.5324 12.8124 27.6494V27.6494ZM13.1028 17.9375C13.0159 18.0825 12.8878 18.1984 12.7349 18.2706C12.582 18.3428 12.4112 18.3679 12.244 18.3429C12.0767 18.3179 11.9207 18.2438 11.7956 18.1301C11.6705 18.0163 11.582 17.868 11.5413 17.7039C11.5006 17.5398 11.5095 17.3673 11.5669 17.2083C11.6242 17.0492 11.7275 16.9108 11.8636 16.8105C11.9998 16.7102 12.1626 16.6526 12.3315 16.6449C12.5004 16.6372 12.6678 16.6798 12.8124 16.7673C13.0058 16.8843 13.1449 17.0731 13.1993 17.2924C13.2538 17.5117 13.2191 17.7437 13.1028 17.9375ZM16.5195 30.75C16.4355 30.8985 16.3091 31.0184 16.1564 31.0943C16.0036 31.1703 15.8317 31.1988 15.6626 31.1761C15.4936 31.1535 15.3352 31.0808 15.2079 30.9673C15.0805 30.8539 14.99 30.7049 14.9481 30.5396C14.9061 30.3743 14.9146 30.2002 14.9725 30.0397C15.0304 29.8793 15.1349 29.7399 15.2727 29.6394C15.4105 29.5389 15.5753 29.4819 15.7457 29.4759C15.9162 29.4698 16.0845 29.5149 16.2291 29.6054C16.4199 29.718 16.5596 29.9003 16.6185 30.1138C16.6775 30.3274 16.6512 30.5555 16.5451 30.75H16.5195ZM16.2291 14.8113C16.0825 14.8977 15.9135 14.9384 15.7436 14.9281C15.5738 14.9178 15.4108 14.8571 15.2757 14.7536C15.1407 14.6501 15.0396 14.5087 14.9854 14.3473C14.9313 14.186 14.9265 14.0122 14.9718 13.8482C15.0171 13.6841 15.1104 13.5374 15.2396 13.4267C15.3689 13.316 15.5282 13.2465 15.6973 13.227C15.8663 13.2075 16.0373 13.2389 16.1884 13.3172C16.3395 13.3956 16.4637 13.5173 16.5451 13.6667C16.6512 13.8612 16.6775 14.0893 16.6185 14.3029C16.5596 14.5164 16.4199 14.6987 16.2291 14.8113V14.8113ZM20.4999 32.4583C20.331 32.4583 20.1658 32.4082 20.0254 32.3144C19.8849 32.2205 19.7754 32.0871 19.7108 31.931C19.6461 31.775 19.6292 31.6032 19.6622 31.4375C19.6951 31.2718 19.7765 31.1196 19.8959 31.0002C20.0154 30.8807 20.1676 30.7994 20.3333 30.7664C20.499 30.7335 20.6707 30.7504 20.8268 30.815C20.9829 30.8797 21.1163 30.9892 21.2101 31.1296C21.304 31.2701 21.3541 31.4352 21.3541 31.6042C21.3541 31.8307 21.2641 32.048 21.1039 32.2082C20.9437 32.3683 20.7265 32.4583 20.4999 32.4583ZM21.3541 23.6775V24.7708C21.3541 24.9974 21.2641 25.2146 21.1039 25.3748C20.9437 25.535 20.7265 25.625 20.4999 25.625C20.2734 25.625 20.0561 25.535 19.8959 25.3748C19.7357 25.2146 19.6458 24.9974 19.6458 24.7708V23.6775C19.3889 23.5268 19.1758 23.3115 19.0278 23.053C18.8798 22.7946 18.8019 22.5019 18.8019 22.2041C18.8019 21.9062 18.8798 21.6135 19.0278 21.3551C19.1758 21.0966 19.3889 20.8814 19.6458 20.7306V16.2292C19.6458 16.0026 19.7357 15.7854 19.8959 15.6252C20.0561 15.465 20.2734 15.375 20.4999 15.375C20.7265 15.375 20.9437 15.465 21.1039 15.6252C21.2641 15.7854 21.3541 16.0026 21.3541 16.2292V20.7392C21.611 20.8899 21.824 21.1052 21.972 21.3636C22.12 21.6221 22.1979 21.9148 22.1979 22.2126C22.1979 22.5104 22.12 22.8031 21.972 23.0616C21.824 23.32 21.611 23.5353 21.3541 23.686V23.6775ZM25.6249 31.0831C25.4784 31.1647 25.3111 31.2013 25.144 31.1885C24.9768 31.1756 24.8171 31.1138 24.6847 31.0108C24.5524 30.9078 24.4533 30.7681 24.3999 30.6092C24.3464 30.4503 24.3409 30.2791 24.384 30.1171C24.4271 29.9551 24.517 29.8093 24.6424 29.698C24.7678 29.5867 24.9232 29.5147 25.0893 29.4912C25.2553 29.4676 25.4246 29.4933 25.576 29.5653C25.7275 29.6373 25.8544 29.7522 25.941 29.8958C26.0002 29.994 26.039 30.1031 26.0551 30.2166C26.0712 30.3301 26.0644 30.4457 26.0349 30.5565C26.0054 30.6673 25.9539 30.7711 25.8834 30.8615C25.813 30.952 25.7251 31.0274 25.6249 31.0831V31.0831ZM25.941 14.5208C25.8544 14.6644 25.7275 14.7794 25.576 14.8514C25.4246 14.9233 25.2553 14.9491 25.0893 14.9255C24.9232 14.9019 24.7678 14.83 24.6424 14.7187C24.517 14.6074 24.4271 14.4616 24.384 14.2996C24.3409 14.1375 24.3464 13.9664 24.3999 13.8074C24.4533 13.6485 24.5524 13.5088 24.6847 13.4058C24.8171 13.3028 24.9768 13.2411 25.144 13.2282C25.3111 13.2153 25.4784 13.252 25.6249 13.3335C25.7251 13.3893 25.813 13.4647 25.8834 13.5551C25.9539 13.6456 26.0054 13.7493 26.0349 13.8601C26.0644 13.9709 26.0712 14.0865 26.0551 14.2C26.039 14.3135 26.0002 14.4226 25.941 14.5208V14.5208ZM29.3576 27.3333C29.2731 27.4793 29.1472 27.597 28.9959 27.6715C28.8445 27.746 28.6745 27.774 28.5073 27.7521C28.34 27.7301 28.183 27.6591 28.0561 27.548C27.9291 27.4369 27.8379 27.2907 27.7939 27.1279C27.7499 26.965 27.7551 26.7928 27.8089 26.6329C27.8627 26.473 27.9626 26.3326 28.096 26.2294C28.2295 26.1263 28.3905 26.0649 28.5588 26.0531C28.727 26.0413 28.895 26.0796 29.0416 26.1631C29.1409 26.2175 29.2284 26.291 29.299 26.3795C29.3697 26.468 29.422 26.5696 29.453 26.6785C29.484 26.7874 29.493 26.9014 29.4796 27.0138C29.4662 27.1262 29.4305 27.2348 29.3747 27.3333H29.3576ZM29.8958 23.0625C29.7268 23.0625 29.5617 23.0124 29.4212 22.9185C29.2807 22.8247 29.1713 22.6913 29.1066 22.5352C29.042 22.3791 29.025 22.2074 29.058 22.0417C29.091 21.876 29.1723 21.7238 29.2918 21.6043C29.4112 21.4849 29.5634 21.4035 29.7291 21.3706C29.8948 21.3376 30.0666 21.3545 30.2226 21.4192C30.3787 21.4838 30.5121 21.5933 30.606 21.7338C30.6998 21.8743 30.7499 22.0394 30.7499 22.2083C30.7499 22.4349 30.6599 22.6521 30.4997 22.8123C30.3396 22.9725 30.1223 23.0625 29.8958 23.0625Z" fill="#D1EBFF"/>
<path d="M20.4999 5.979C17.2901 5.979 14.1524 6.93083 11.4835 8.71411C8.81461 10.4974 6.73448 13.032 5.50613 15.9975C4.27778 18.963 3.95639 22.2262 4.5826 25.3743C5.2088 28.5225 6.75448 31.4142 9.02417 33.6839C11.2939 35.9536 14.1856 37.4993 17.3338 38.1255C20.4819 38.7517 23.7451 38.4303 26.7106 37.202C29.6761 35.9736 32.2107 33.8935 33.994 31.2246C35.7773 28.5557 36.7291 25.418 36.7291 22.2082C36.7291 17.9039 35.0192 13.776 31.9757 10.7324C28.9321 7.68886 24.8042 5.979 20.4999 5.979V5.979ZM20.4999 35.0207C17.9659 35.0207 15.4887 34.2692 13.3817 32.8614C11.2747 31.4535 9.63247 29.4525 8.66272 27.1113C7.69297 24.7701 7.43924 22.194 7.93361 19.7086C8.42799 17.2232 9.64826 14.9402 11.4401 13.1484C13.232 11.3565 15.5149 10.1362 18.0003 9.64186C20.4857 9.14749 23.0619 9.40122 25.4031 10.371C27.7442 11.3407 29.7453 12.9829 31.1531 15.0899C32.561 17.1969 33.3124 19.6741 33.3124 22.2082C33.3124 25.6063 31.9625 28.8652 29.5597 31.268C27.1569 33.6708 23.898 35.0207 20.4999 35.0207Z" fill="white"/>
</svg>
